<?xml version="1.0" standalone="no"?>
<!DOCTYPE svg PUBLIC "-//W3C//DTD SVG 1.1//EN" "http://www.w3.org/Graphics/SVG/1.1/DTD/svg11.dtd" >
<svg xmlns="http://www.w3.org/2000/svg">
<metadata>
This is a custom SVG webfont generated by Font Squirrel.
Copyright   :  2011 Sergiy S Tkachenko  4th february 2011 WebHostingGeekscomhttpcreativecommonsorglicensesbynd30httpcreativecommonsorglicensesbynd30deedru
Designer    : Sergiy S Tkachenko
Foundry     : Sergiy S Tkachenko
Foundry URL : httpwebhostinggeekscom
</metadata>
<defs>
<font id="WebServeroffRegular" horiz-adv-x="798" >
<font-face units-per-em="2048" ascent="1536" descent="-512" />
<missing-glyph horiz-adv-x="716" />
<glyph unicode=" "  horiz-adv-x="716" />
<glyph unicode="&#x09;" horiz-adv-x="716" />
<glyph unicode="&#xa0;" horiz-adv-x="716" />
<glyph unicode="!" horiz-adv-x="286" d="M106 0v229h72v-229h-72zM106 397v1024h72v-1024h-72z" />
<glyph unicode="&#x22;" horiz-adv-x="471" d="M106 1151v369h72v-369h-72zM287 1151v369h69v-369h-69z" />
<glyph unicode="#" horiz-adv-x="917" d="M106 4l136 512h-133v72h153l66 246h-140v71h158l141 531l72 -17l-137 -514h162l141 531l72 -17l-138 -514h136v-71h-156l-66 -246h144v-72h-162l-141 -530l-70 18l135 512h-162l-141 -530zM336 588h164l65 246h-164z" />
<glyph unicode="$" horiz-adv-x="860" d="M111 31v73q154 -47 276 -53v627q-53 6 -94 20.5t-86 46t-70.5 94t-25.5 150.5v137q0 143 76.5 221t199.5 91v182h72v-180q117 -6 239 -37v-76q-143 37 -239 43v-629q279 -29 278 -309v-139q0 -141 -76.5 -220t-201.5 -91v-181h-72v181q-141 6 -276 49zM182 989 q0 -211 205 -239v618q-92 -10 -148.5 -70.5t-56.5 -171.5v-137zM459 53q92 8 149.5 68.5t57.5 171.5v139q0 213 -207 238v-617z" />
<glyph unicode="%" horiz-adv-x="962" d="M90 860v416q0 80 46 122t120 42q72 0 118 -42t46 -122v-416q0 -84 -46 -125t-118 -41q-74 0 -120 41t-46 125zM106 10l670 1434l62 -31l-672 -1438zM162 860q0 -45 26.5 -69.5t67.5 -24.5t66.5 24.5t25.5 69.5v416q0 45 -25.5 69.5t-66.5 24.5t-67.5 -24.5t-26.5 -69.5 v-416zM528 145v416q0 80 46.5 123t118 43t118.5 -43t47 -123v-416q0 -82 -47 -123.5t-118.5 -41.5t-118 41.5t-46.5 123.5zM600 145q0 -45 25.5 -69.5t66.5 -24.5t67.5 24.5t26.5 69.5v416q0 45 -26.5 69.5t-67.5 24.5t-66.5 -24.5t-25.5 -69.5v-416z" />
<glyph unicode="&#x26;" horiz-adv-x="1003" d="M113 293v139q0 223 184 279q-184 51 -184 278v137q0 154 87 234t226 80q137 0 272 -49v-78q-150 57 -272 57q-109 0 -176.5 -60.5t-67.5 -183.5v-137q0 -244 258 -244h498v-71h-199v-381q0 -156 -78.5 -234.5t-220.5 -78.5q-143 0 -235 79.5t-92 233.5zM182 293 q0 -121 71.5 -181.5t186.5 -60.5q227 0 228 242v381h-228q-258 0 -258 -242v-139z" />
<glyph unicode="'" horiz-adv-x="286" d="M106 1151v369h72v-369h-72z" />
<glyph unicode="(" horiz-adv-x="450" d="M106 135v1151q0 162 77 257t214 95v-69q-106 0 -162.5 -76t-56.5 -207v-1151q0 -131 56.5 -206.5t162.5 -75.5v-72q-137 0 -214 95t-77 259z" />
<glyph unicode=")" horiz-adv-x="450" d="M47 -147q106 0 162.5 75.5t56.5 206.5v1151q0 131 -56 207t-163 76v69q137 0 213 -94t76 -258v-1151q0 -164 -76 -259t-213 -95v72z" />
<glyph unicode="*" horiz-adv-x="688" d="M100 1280l43 59l160 -112v194h72v-194l160 112l40 -61l-172 -121l172 -121l-40 -61l-160 110v-192h-72v192l-160 -110l-41 61l172 121z" />
<glyph unicode="+" horiz-adv-x="757" d="M109 674v71h229v230h72v-230h227v-71h-227v-228h-72v228h-229z" />
<glyph unicode="," horiz-adv-x="327" d="M90 -258q49 133 55 258h-39v190h111v-174q0 -127 -49 -274h-78z" />
<glyph unicode="-" horiz-adv-x="757" d="M109 674v71h528v-71h-528z" />
<glyph unicode="." horiz-adv-x="327" d="M106 0v190h111v-190h-111z" />
<glyph unicode="/" horiz-adv-x="835" d="M47 10l668 1434l61 -31l-670 -1438z" />
<glyph unicode="0" horiz-adv-x="860" d="M111 293v833q0 154 88 234t225 80t225 -80t88 -234v-833q0 -154 -88 -233.5t-225 -79.5t-225 79.5t-88 233.5zM182 274l455 981q-55 115 -213 115q-109 0 -175.5 -60.5t-66.5 -183.5v-833v-19zM207 166q59 -115 217 -115q109 0 175.5 60.5t66.5 181.5v833q0 4 -1 11.5 t-1 11.5z" />
<glyph unicode="1" horiz-adv-x="368" d="M6 1362v72h211v-1434h-72v1362h-139z" />
<glyph unicode="2" horiz-adv-x="860" d="M111 0v432q0 78 22.5 136.5t52 90t77.5 51t81 25.5t78 10q47 4 77.5 12.5t74.5 31t68 73.5t24 127v137q0 123 -67 183.5t-175 60.5q-121 0 -274 -57v78q137 49 274 49t225 -80t88 -234v-137q0 -96 -29.5 -161.5t-84 -96.5t-97.5 -42t-100 -15q-45 -4 -77 -11.5t-76 -30 t-67.5 -73.5t-23.5 -127v-360h555v-72h-626z" />
<glyph unicode="3" horiz-adv-x="860" d="M111 1362v72h626v-58l-219 -485q100 -27 159.5 -103.5t59.5 -195.5v-299q0 -154 -88 -233.5t-225 -79.5q-131 0 -274 51v75q155 -55 274 -55q109 0 175.5 60.5t66.5 181.5v299q0 121 -72 181.5t-186 60.5v71q6 0 18 -1t20 -1l205 459h-540z" />
<glyph unicode="4" horiz-adv-x="903" d="M104 516l7 19v12h2l272 874h78l-273 -874h459v477h72v-477h119v-70h-119v-477h-72v477h-538v39h-7z" />
<glyph unicode="5" horiz-adv-x="860" d="M150 31v75q156 -55 274 -55q109 0 175.5 60.5t66.5 181.5v299q0 121 -67 181.5t-175 60.5q-74 0 -132.5 -56.5t-68.5 -163.5q-2 -12 -2 -39h-71l40 846h527v-71h-455l-31 -566q59 121 193 121q137 0 225 -80t88 -233v-299q0 -154 -88 -233.5t-225 -79.5q-131 0 -274 51z " />
<glyph unicode="6" horiz-adv-x="860" d="M111 293v833q0 154 88 234t225 80t274 -49v-78q-154 57 -274 57q-109 0 -175.5 -60.5t-66.5 -183.5v-288q154 67 242 67q137 0 225 -80t88 -233v-283q0 -162 -88 -245.5t-225 -83.5t-225 79.5t-88 233.5zM182 293q0 -121 66.5 -181.5t175 -60.5t175.5 63.5t67 194.5v283 q0 121 -67 181.5t-175 60.5q-106 0 -242 -46v-495z" />
<glyph unicode="7" horiz-adv-x="860" d="M70 1362v72h651v-60l-420 -1374h-78l416 1362h-569z" />
<glyph unicode="8" horiz-adv-x="860" d="M111 293v139q0 209 159 277q-160 72 -159 280v137q0 147 86 230.5t225 83.5q141 0 228 -83t87 -231v-137q0 -209 -159 -280q160 -68 159 -277v-139q0 -147 -87 -230t-228 -83q-139 0 -225 82.5t-86 230.5zM182 293q0 -119 67.5 -180.5t174 -61.5t174.5 61.5t68 180.5v139 q0 131 -70 185.5t-170 54.5q-102 0 -173 -53.5t-71 -186.5v-139zM182 989q0 -109 65.5 -176.5t174.5 -67.5q104 0 174 66t70 178v137q0 119 -68 181.5t-174.5 62.5t-174 -62.5t-67.5 -181.5v-137z" />
<glyph unicode="9" horiz-adv-x="860" d="M111 829v283q0 162 88 245t225 83t225 -80t88 -234v-833q0 -154 -88 -233.5t-225 -79.5q-131 0 -274 51v75q155 -55 274 -55q109 0 175.5 60.5t66.5 181.5v289q-162 -66 -242 -66q-137 0 -225 80t-88 233zM182 829q0 -121 66.5 -181t175.5 -60q106 0 242 45v493 q0 123 -67 183.5t-175.5 60.5t-175 -63.5t-66.5 -194.5v-283z" />
<glyph unicode=":" horiz-adv-x="327" d="M106 0v190h111v-190h-111zM106 555v190h111v-190h-111z" />
<glyph unicode=";" horiz-adv-x="327" d="M90 -258q49 133 55 258h-39v190h111v-174q0 -127 -49 -274h-78zM106 555v190h111v-190h-111z" />
<glyph unicode="&#x3c;" horiz-adv-x="636" d="M100 711l375 374l51 -51l-323 -323l323 -324l-51 -51z" />
<glyph unicode="=" horiz-adv-x="757" d="M109 596v72h528v-72h-528zM109 754v71h528v-71h-528z" />
<glyph unicode="&#x3e;" horiz-adv-x="636" d="M100 387l324 324l-324 323l52 51l374 -374l-374 -375z" />
<glyph unicode="?" horiz-adv-x="819" d="M111 1313v78q135 49 272 49q139 0 226 -80t87 -234v-137q0 -90 -22.5 -152.5t-64.5 -94t-67.5 -43t-62.5 -21.5l-18 -4q-20 -4 -41 -15.5t-51.5 -36t-49 -73.5t-18.5 -117v-115h-72v115q0 88 26 152.5t66.5 95.5t69.5 44t58 19l-5 -2l31 11q29 8 48.5 17t47 32.5t42 71 t14.5 116.5v137q0 123 -67.5 183.5t-176.5 60.5q-123 0 -272 -57zM229 0v190h72v-190h-72z" />
<glyph unicode="@" d="M80 293v438q0 154 88 233.5t225 79.5t225.5 -79.5t88.5 -233.5v-383q0 -53 -34 -81.5t-83 -28.5q-72 0 -105 51q-33 -51 -92 -51q-66 0 -108.5 38.5t-42.5 110.5v248q0 76 42 113.5t109 37.5q45 0 78 -32v12h72v-418q0 -39 47 -39q45 0 45 39v383q0 121 -66.5 181.5 t-175 60.5t-175 -60.5t-66.5 -181.5v-438q0 -121 66.5 -181.5t174.5 -60.5q119 0 275 55v-75q-143 -51 -275 -51q-137 0 -225 79.5t-88 233.5zM313 387q0 -78 80 -78q72 0 78 70v264q-6 72 -78 72q-35 0 -57.5 -20.5t-22.5 -59.5v-248z" />
<glyph unicode="A" horiz-adv-x="860" d="M45 0l344 1434h72l342 -1434h-78l-80 340h-442l-82 -340h-76zM219 412h408l-201 858z" />
<glyph unicode="B" horiz-adv-x="839" d="M109 0v1434h280q145 0 238.5 -81t93.5 -235v-121q0 -213 -164 -280q164 -68 164 -281v-121q0 -154 -93.5 -234.5t-238.5 -80.5h-280zM180 72h209q117 0 188.5 60.5t71.5 182.5v121q0 63 -19.5 109.5t-44 70t-66.5 39t-65.5 18.5t-64.5 7h-209v-608zM180 754h209 q41 4 64.5 7t65.5 18.5t66.5 39t44 69.5t19.5 109v121q0 123 -71.5 183.5t-188.5 60.5h-209v-608z" />
<glyph unicode="C" horiz-adv-x="778" d="M109 297v840q0 156 89 236.5t228 80.5q133 0 276 -51v-78q-154 57 -276 57q-111 0 -178.5 -61t-67.5 -184v-840q0 -123 67.5 -184.5t178.5 -61.5q123 0 276 58v-78q-143 -51 -276 -51q-139 0 -228 80.5t-89 236.5z" />
<glyph unicode="D" horiz-adv-x="839" d="M109 0v1434h297q139 0 227 -81t88 -235v-803q0 -154 -88 -234.5t-227 -80.5h-297zM180 72h226q109 0 176 60t67 183v803q0 123 -67.5 183.5t-175.5 60.5h-226v-1290z" />
<glyph unicode="E" horiz-adv-x="716" d="M109 0v1434h553v-72h-482v-608h422v-74h-422v-608h482v-72h-553z" />
<glyph unicode="F" horiz-adv-x="716" d="M109 0v1434h553v-72h-482v-608h422v-74h-422v-680h-71z" />
<glyph unicode="G" horiz-adv-x="860" d="M109 297v840q0 156 89 236.5t228 80.5q127 0 276 -39v-76q-160 43 -276 43q-111 0 -178.5 -61t-67.5 -184v-840q0 -123 67.5 -184.5t178.5 -61.5q113 0 244 33v596h-260v74h331v-723q-164 -51 -315 -51q-139 0 -228 80.5t-89 236.5z" />
<glyph unicode="H" horiz-adv-x="839" d="M109 0v1434h71v-680h469v680h72v-1434h-72v680h-469v-680h-71z" />
<glyph unicode="I" horiz-adv-x="286" d="M106 0v1434h72v-1434h-72z" />
<glyph unicode="J" horiz-adv-x="757" d="M49 31v78q150 -58 275 -58q111 0 178 61.5t67 184.5v1137h72v-1137q0 -156 -89 -236.5t-228 -80.5q-133 0 -275 51z" />
<glyph unicode="K" horiz-adv-x="839" d="M109 0v1434h73v-680h221l316 680h78l-334 -717l336 -717h-78l-318 680h-221v-680h-73z" />
<glyph unicode="L" horiz-adv-x="716" d="M109 0v1434h71v-1362h482v-72h-553z" />
<glyph unicode="M" horiz-adv-x="1095" d="M104 1434h78l363 -977l356 977h80l-4 -13v-1421h-72v1227l-325 -887h-68l-334 895v-1235h-72v1427z" />
<glyph unicode="N" horiz-adv-x="839" d="M109 0v1434h67l473 -1213v1213h72v-1434h-66l-475 1212v-1212h-71z" />
<glyph unicode="O" horiz-adv-x="860" d="M109 297v840q0 156 89 236.5t228 80.5t227 -81t88 -236v-840q0 -156 -88 -236.5t-227 -80.5t-228 80.5t-89 236.5zM180 297q0 -123 67.5 -184.5t178.5 -61.5q109 0 176.5 61.5t67.5 184.5v840q0 123 -67.5 184t-176.5 61q-111 0 -178.5 -61t-67.5 -184v-840z" />
<glyph unicode="P" d="M109 0v1434h280q145 0 238.5 -81t93.5 -235v-280q0 -80 -23.5 -139.5t-57.5 -92.5t-81 -53.5t-87 -26.5t-83 -6h-209v-520h-71zM180 592h209q260 0 260 246v280q0 123 -71.5 183.5t-188.5 60.5h-209v-770z" />
<glyph unicode="Q" horiz-adv-x="860" d="M109 297v840q0 156 89 236.5t228 80.5t227 -81t88 -236v-840q0 -186 -129 -268l107 -230h-78l-94 201q-61 -20 -121 -20q-139 0 -228 80.5t-89 236.5zM180 297q0 -123 67.5 -184.5t178.5 -61.5q47 0 90 12l-115 250h78l101 -219q90 64 90 203v840q0 123 -67.5 184 t-176.5 61q-111 0 -178.5 -61t-67.5 -184v-840z" />
<glyph unicode="R" horiz-adv-x="839" d="M109 0v1434h280q147 0 240.5 -81t93.5 -235v-280q0 -240 -203 -301l250 -537h-78l-243 522q-20 -2 -60 -2h-207v-520h-73zM182 592h207q260 0 260 246v280q0 123 -71.5 183.5t-188.5 60.5h-207v-770z" />
<glyph unicode="S" horiz-adv-x="860" d="M109 31v75q170 -55 317 -55q109 0 176.5 61.5t67.5 184.5v139q0 63 -18.5 108.5t-42 70t-62.5 40t-62.5 18.5t-60.5 7q-45 4 -79 10t-82 26.5t-78.5 52.5t-53 90.5t-22.5 137.5v140q0 156 89 236.5t228 80.5q126 0 276 -39v-76q-160 43 -276 43q-111 0 -178.5 -61 t-67.5 -184v-140q0 -63 18.5 -108t42 -69.5t63.5 -40t63.5 -18.5t60.5 -7q45 -4 79 -10.5t81 -27t77.5 -52t53 -90t22.5 -138.5v-139q0 -156 -88 -236.5t-227 -80.5q-154 0 -317 51z" />
<glyph unicode="T" horiz-adv-x="737" d="M49 1362v72h633v-72h-281v-1362h-71v1362h-281z" />
<glyph unicode="U" horiz-adv-x="839" d="M109 297v1137h71v-1137q0 -123 64.5 -184.5t171 -61.5t170 61.5t63.5 184.5v1137h72v-1137q0 -158 -83 -237.5t-222.5 -79.5t-223 80.5t-83.5 236.5z" />
<glyph unicode="V" horiz-adv-x="860" d="M45 1434h76l305 -1268l299 1268h78l-342 -1434h-72z" />
<glyph unicode="W" horiz-adv-x="1212" d="M47 1434h76l264 -1254q96 479 180 916h68l184 -916q18 88 114.5 549t145.5 705h78l-301 -1434h-72l-182 909l-178 -909h-72z" />
<glyph unicode="X" horiz-adv-x="860" d="M51 1434h78l297 -635l291 635h80l-334 -717l336 -717h-80l-293 633l-295 -633h-78l334 717z" />
<glyph unicode="Y" horiz-adv-x="860" d="M43 1434h76l307 -809l301 809h78l-344 -920v-514h-72v518z" />
<glyph unicode="Z" horiz-adv-x="860" d="M109 0v57l532 1305h-532v72h616v-58l-532 -1304h532v-72h-616z" />
<glyph unicode="[" horiz-adv-x="491" d="M109 -199v1819h309v-72h-240v-1675h240v-72h-309z" />
<glyph unicode="\" horiz-adv-x="835" d="M47 1413l62 31l667 -1436l-59 -33z" />
<glyph unicode="]" horiz-adv-x="491" d="M68 -127h237v1675h-237v72h309v-1819h-309v72z" />
<glyph unicode="^" horiz-adv-x="970" d="M102 1153l375 375l53 -51l-2 -2l326 -322l-53 -51l-324 321l-321 -321z" />
<glyph unicode="_" horiz-adv-x="757" d="M10 -424h729v-72h-729v72z" />
<glyph unicode="`" horiz-adv-x="606" d="M100 1397l45 59l353 -246l-47 -59z" />
<glyph unicode="a" d="M109 264h2v80q0 141 78.5 212t203.5 71h213v133q0 104 -59.5 158.5t-149.5 54.5q-94 0 -247 -55v75q143 51 249 51q121 0 200 -72.5t79 -211.5v-760h-72v29q-143 -49 -213 -49q-125 0 -204.5 71.5t-79.5 212.5zM180 264q0 -106 59.5 -159.5t153.5 -53.5q96 0 213 35v469 h-213q-94 0 -153.5 -53t-59.5 -158v-80z" />
<glyph unicode="b" d="M111 0v1536h69v-547q137 55 213 55q125 0 205 -71.5t80 -212.5v-496q0 -141 -80 -212.5t-205 -71.5q-82 0 -213 53v-33h-69zM180 86q117 -35 213 -35q94 0 153.5 53.5t59.5 159.5v496q0 106 -59.5 159.5t-153.5 53.5q-98 0 -213 -37v-850z" />
<glyph unicode="c" horiz-adv-x="757" d="M109 264v496q0 141 79.5 212.5t204.5 71.5q102 0 244 -51v-75q-154 55 -244 55q-94 0 -153.5 -53.5t-59.5 -159.5v-496q0 -106 59.5 -159.5t153.5 -53.5q90 0 244 55v-75q-141 -51 -244 -51q-125 0 -204.5 71.5t-79.5 212.5z" />
<glyph unicode="d" d="M111 264v496q0 141 78.5 212.5t203.5 71.5q80 0 213 -49v541h72v-1536h-72v27q-137 -47 -213 -47q-125 0 -203.5 71.5t-78.5 212.5zM180 264q0 -106 59.5 -159.5t153.5 -53.5q96 0 213 35v850q-115 37 -213 37q-94 0 -153.5 -53.5t-59.5 -159.5v-496z" />
<glyph unicode="e" d="M111 264v496q0 141 78.5 212.5t203.5 71.5t205 -71.5t80 -212.5v-283h-498v-213q0 -106 59.5 -159.5t153.5 -53.5q90 0 244 55v-75q-141 -51 -244 -51q-125 0 -203.5 71.5t-78.5 212.5zM180 547h426v213q0 106 -59.5 159.5t-153.5 53.5t-153.5 -53.5t-59.5 -159.5v-213z " />
<glyph unicode="f" horiz-adv-x="593" d="M49 952v72h158v162q0 141 84 211.5t217 70.5v-69q-100 0 -164.5 -53.5t-64.5 -159.5v-162h258v-72h-258v-952h-72v952h-158z" />
<glyph unicode="g" d="M111 264v496q0 141 78.5 212.5t203.5 71.5q80 0 213 -49v29h72v-1255q0 -141 -80 -213t-205 -72q-127 0 -274 49v78q155 -55 274 -55q94 0 153.5 53t59.5 160v258q-137 -47 -213 -47q-125 0 -203.5 71.5t-78.5 212.5zM180 264q0 -106 59.5 -159.5t153.5 -53.5 q96 0 213 35v850q-115 37 -213 37q-94 0 -153.5 -53.5t-59.5 -159.5v-496z" />
<glyph unicode="h" d="M111 0v1536h69v-541q129 49 213 49q125 0 205 -71.5t80 -212.5v-760h-72v760q0 106 -59.5 159.5t-153.5 53.5q-98 0 -213 -37v-936h-69z" />
<glyph unicode="i" horiz-adv-x="286" d="M106 0v1024h72v-1024h-72zM106 1190v244h72v-244h-72z" />
<glyph unicode="j" horiz-adv-x="286" d="M-125 -444q100 0 164.5 53.5t64.5 159.5v1255h72v-1255q0 -141 -84 -213t-217 -72v72zM104 1190v244h72v-244h-72z" />
<glyph unicode="k" horiz-adv-x="753" d="M111 0v1536h69v-989h203l219 477h78l-240 -512l242 -512h-78l-221 477h-203v-477h-69z" />
<glyph unicode="l" horiz-adv-x="286" d="M106 0v1536h72v-1536h-72z" />
<glyph unicode="m" horiz-adv-x="1187" d="M113 0v1024h71v-33q129 53 185 53q115 0 186 -71q168 71 250 71q109 -2 180.5 -67.5t71.5 -185.5v-791h-72v791q0 90 -51 136t-129 46q-98 0 -221 -39q37 -59 37 -143v-791h-72v791q0 90 -51.5 136t-128.5 46q-80 0 -185 -33v-940h-71z" />
<glyph unicode="n" d="M111 0v1024h69v-35q137 55 213 55q125 0 205 -71.5t80 -212.5v-760h-72v760q0 106 -59.5 159.5t-153.5 53.5q-98 0 -213 -37v-936h-69z" />
<glyph unicode="o" d="M111 264v496q0 141 78.5 212.5t203.5 71.5t205 -71.5t80 -212.5v-496q0 -141 -80 -212.5t-205 -71.5t-203.5 71.5t-78.5 212.5zM180 264q0 -106 59.5 -159.5t153.5 -53.5t153.5 53.5t59.5 159.5v496q0 106 -59.5 159.5t-153.5 53.5t-153.5 -53.5t-59.5 -159.5v-496z" />
<glyph unicode="p" d="M111 -496v1520h69v-29q129 49 213 49q125 0 205 -71.5t80 -212.5v-496q0 -141 -80 -212.5t-205 -71.5q-80 0 -213 47v-523h-69zM180 86q117 -35 213 -35q94 0 153.5 53.5t59.5 159.5v496q0 106 -59.5 159.5t-153.5 53.5q-98 0 -213 -37v-850z" />
<glyph unicode="q" d="M111 264v496q0 141 78.5 212.5t203.5 71.5q80 0 213 -49v29h72v-1520h-72v523q-137 -47 -213 -47q-125 0 -203.5 71.5t-78.5 212.5zM180 264q0 -106 59.5 -159.5t153.5 -53.5q96 0 213 35v850q-115 37 -213 37q-94 0 -153.5 -53.5t-59.5 -159.5v-496z" />
<glyph unicode="r" horiz-adv-x="419" d="M109 0v1024h69v-35q137 55 215 55v-71q-101 0 -215 -37v-936h-69z" />
<glyph unicode="s" d="M111 754q0 145 78.5 217.5t203.5 72.5q102 0 244 -51v-75q-154 55 -244 55q-94 0 -153.5 -54.5t-59.5 -164.5q0 -61 19.5 -103.5t56.5 -63t67.5 -28.5t71.5 -12q55 -4 96 -15.5t88.5 -38t73 -84t25.5 -139.5q0 -145 -79 -217.5t-206 -72.5q-131 0 -274 51v75 q155 -55 274 -55q94 0 153.5 54.5t59.5 164.5q0 61 -19.5 103.5t-56 63t-67.5 28.5t-72 12q-55 4 -96 15.5t-87 38t-71.5 84t-25.5 139.5z" />
<glyph unicode="t" horiz-adv-x="573" d="M49 952v72h137v199h72v-199h258v-72h-258v-688q0 -106 64.5 -159.5t164.5 -53.5v-71q-133 0 -217 71.5t-84 212.5v688h-137z" />
<glyph unicode="u" d="M111 264v760h69v-760q0 -106 59.5 -159.5t153.5 -53.5q96 0 213 35v938h72v-1024h-72v33q-135 -53 -213 -53q-125 0 -203.5 71.5t-78.5 212.5z" />
<glyph unicode="v" horiz-adv-x="655" d="M4 1024h74l246 -870l243 870h76l-287 -1024h-67z" />
<glyph unicode="w" horiz-adv-x="1015" d="M8 1024h76l209 -877l176 598h63l181 -593l205 872h75l-243 -1024h-70l-180 596q-23 -74 -84.5 -280.5t-91.5 -315.5h-70z" />
<glyph unicode="x" horiz-adv-x="729" d="M37 0l280 512l-280 512h82l239 -438l240 438h80l-281 -512l283 -512h-80l-242 438l-239 -438h-82z" />
<glyph unicode="y" d="M111 264v760h69v-760q0 -106 59.5 -159.5t153.5 -53.5q96 0 213 35v938h72v-1255q0 -141 -80 -213t-205 -72q-127 0 -274 49v78q155 -55 274 -55q94 0 153.5 53t59.5 160v264q-135 -53 -213 -53q-125 0 -203.5 71.5t-78.5 212.5z" />
<glyph unicode="z" d="M111 0v59l481 893h-481v72h567v-59l-483 -893h483v-72h-567z" />
<glyph unicode="{" horiz-adv-x="702" d="M100 711l142 141q51 51 51 123v311q0 162 76.5 257t214.5 95v-69q-106 0 -162.5 -76t-56.5 -207v-328q0 -86 -60 -147l-100 -100l100 -103q60 -59 60 -145v-328q0 -131 56 -206.5t163 -75.5v-72q-137 0 -214 95t-77 259v311q0 72 -51 123z" />
<glyph unicode="|" horiz-adv-x="286" d="M106 -199v1819h72v-1819h-72z" />
<glyph unicode="}" horiz-adv-x="702" d="M109 -147q106 0 162.5 75.5t56.5 206.5v328q0 86 59 145l100 103l-100 100q-59 61 -59 147v328q0 131 -56.5 207t-162.5 76v69q137 0 213.5 -95t76.5 -257v-311q0 -74 52 -123l141 -141l-141 -142q-51 -49 -52 -123v-311q0 -164 -76.5 -259t-213.5 -95v72z" />
<glyph unicode="~" horiz-adv-x="835" d="M111 598q0 125 50 182.5t126 57.5q31 0 60.5 -18.5t42.5 -33t44 -51.5q61 -76 103 -76q104 0 104 168h72q0 -125 -50.5 -182t-125.5 -57q-80 0 -170 112q-57 66 -80 66q-104 0 -105 -168h-71z" />
<glyph unicode="&#xa1;" horiz-adv-x="286" d="M106 -397v1024h72v-1024h-72zM106 795v229h72v-229h-72z" />
<glyph unicode="&#xa2;" horiz-adv-x="757" d="M109 264v496q0 131 68.5 201.5t180.5 80.5v181h70v-181q86 -6 209 -49v-75q-117 43 -209 53v-918q92 10 209 53v-75q-111 -39 -209 -49v-181h-70v181q-113 10 -181 80.5t-68 201.5zM180 264q0 -96 48 -148.5t130 -62.5v918q-82 -10 -130 -62.5t-48 -148.5v-496z" />
<glyph unicode="&#xa3;" horiz-adv-x="901" d="M51 674v71h158v381q0 154 88 234t227 80q137 0 273 -49v-78q-150 57 -273 57q-109 0 -176 -60.5t-67 -183.5v-381h299v-71h-299v-602h557v-72h-629v674h-158z" />
<glyph unicode="&#xa4;" horiz-adv-x="634" d="M100 549l80 80q-23 35 -22 82q0 37 22 82l-80 77l52 54l79 -80q31 20 82.5 20t79.5 -20l80 80l51 -54l-78 -77q20 -45 21 -82q0 -45 -21 -80l78 -82l-51 -51l-80 80q-41 -23 -80 -23q-47 0 -82 23l-79 -80zM229 710.5q0 -34.5 23.5 -59t60.5 -24.5q35 0 58.5 24.5 t23.5 59t-23.5 59.5t-58.5 25q-37 0 -60.5 -25t-23.5 -59.5z" />
<glyph unicode="&#xa5;" horiz-adv-x="860" d="M45 1421h76l303 -803l299 803h76l-340 -911v-2h229v-72h-229v-166h229v-71h-229v-199h-72v199h-227v71h227v166h-227v72h227v8z" />
<glyph unicode="&#xa6;" horiz-adv-x="286" d="M106 -199v826h72v-826h-72zM106 795v825h72v-825h-72z" />
<glyph unicode="&#xa7;" d="M111 713q0 182 131 252q-131 59 -131 243q0 145 78.5 218t203.5 73q102 0 244 -51v-76q-154 55 -244 55q-94 0 -153.5 -54t-59.5 -165q0 -61 19.5 -103t56.5 -62.5t67.5 -28.5t71.5 -13h15v-2q41 -4 73.5 -11t70.5 -26.5t63.5 -47t43 -77t17.5 -112.5q0 -182 -135 -254 q135 -63 135 -244q0 -145 -79 -216.5t-206 -71.5t-274 49v78q155 -56 274 -56q94 0 153.5 54.5t59.5 162.5q0 61 -19.5 104.5t-56 63t-66.5 27.5t-73 12h-14v2q-53 6 -92 17.5t-83 40t-67.5 84t-23.5 135.5zM180 713q0 -61 19.5 -103.5t56.5 -63t67.5 -28.5t71.5 -12 q94 4 152.5 59.5t58.5 159.5q0 186 -209 205q-96 -4 -156.5 -58.5t-60.5 -158.5z" />
<glyph unicode="&#xa8;" horiz-adv-x="573" d="M109 1190v231h71v-231h-71zM385 1190v231h72v-231h-72z" />
<glyph unicode="&#xa9;" horiz-adv-x="860" d="M111 293v833q0 154 88 234t225 80t225 -80t88 -234v-833q0 -154 -88 -233.5t-225 -79.5t-225 79.5t-88 233.5zM182 293q0 -121 66.5 -181.5t175 -60.5t175.5 60.5t67 181.5v833q0 123 -67 183.5t-175.5 60.5t-175 -60.5t-66.5 -183.5v-833zM242 461v500q0 96 54 145 t140 49q82 0 170 -33v-75q-115 37 -170 36.5t-89 -31t-34 -91.5v-500q0 -61 34 -92t89 -31q66 0 170 37v-78q-92 -31 -170 -31q-86 0 -140 49.5t-54 145.5z" />
<glyph unicode="&#xab;" horiz-adv-x="923" d="M100 711l375 374l51 -51l-323 -323l323 -324l-51 -51zM387 711l375 374l51 -51l-324 -323l324 -324l-51 -51z" />
<glyph unicode="&#xac;" horiz-adv-x="757" d="M109 674v71h528v-299h-72v228h-456z" />
<glyph unicode="&#xad;" horiz-adv-x="757" d="M109 674v71h528v-71h-528z" />
<glyph unicode="&#xae;" horiz-adv-x="860" d="M111 293v833q0 154 88 234t225 80t225 -80t88 -234v-833q0 -154 -88 -233.5t-225 -79.5t-225 79.5t-88 233.5zM182 293q0 -121 66.5 -181.5t175 -60.5t175.5 60.5t67 181.5v833q0 123 -67 183.5t-175.5 60.5t-175 -60.5t-66.5 -183.5v-833zM240 279v864h198v-2 q80 -8 129 -57.5t49 -135.5v-166q0 -147 -120 -182l151 -321h-74l-145 309h-4h-113v-309h-71zM311 659h109q125 4 125 123v166q0 61 -39 92t-100 31h-95v-412z" />
<glyph unicode="&#xaf;" horiz-adv-x="778" d="M109 1270v71h548v-71h-548z" />
<glyph unicode="&#xb1;" horiz-adv-x="757" d="M109 274v72h528v-72h-528zM109 674v71h229v230h72v-230h227v-71h-227v-228h-72v228h-229z" />
<glyph unicode="&#xb4;" horiz-adv-x="606" d="M100 1210l351 246l47 -59l-353 -246z" />
<glyph unicode="&#xb8;" horiz-adv-x="518" d="M106 -268q96 -35 146 -35q80 0 80 80q0 76 -84 76h-74l68 180h73l-39 -109q127 -12 127 -147q0 -76 -42 -114t-109 -38q-63 0 -146 29v78z" />
<glyph unicode="&#xbb;" horiz-adv-x="923" d="M100 387l324 324l-324 323l52 51l374 -374l-374 -375zM387 387l324 324l-324 323l51 51l375 -374l-375 -375z" />
<glyph unicode="&#xbf;" horiz-adv-x="819" d="M111 35q0 90 22.5 152.5t64.5 94t67.5 43t62.5 21.5l18 4q20 4 41 15.5t51.5 36t49 73.5t18.5 117v115h72v-115q0 -86 -26 -150.5t-66 -96.5t-69.5 -45t-58.5 -19q-4 -2 -8 -2l-20 -7q-23 -6 -37 -11t-38 -21.5t-38 -40t-24.5 -66.5t-10.5 -98v-137q0 -123 66.5 -183.5 t175.5 -60.5q123 0 272 57v-78q-135 -49 -272 -49q-139 0 -226 80t-87 234v137zM506 834v190h72v-190h-72z" />
<glyph unicode="&#xc0;" horiz-adv-x="860" d="M45 0l344 1434h72l342 -1434h-78l-80 340h-442l-82 -340h-76zM145 1806l45 60l353 -246l-47 -59zM219 412h408l-201 858z" />
<glyph unicode="&#xc1;" horiz-adv-x="860" d="M45 0l344 1434h72l342 -1434h-78l-80 340h-442l-82 -340h-76zM219 412h408l-201 858zM309 1620l350 246l48 -60l-353 -245z" />
<glyph unicode="&#xc2;" horiz-adv-x="860" d="M45 0l344 1434h72l342 -1434h-78l-80 340h-442l-82 -340h-76zM172 1612l252 252l254 -252l-55 -53l-199 198l-197 -198zM219 412h408l-201 858z" />
<glyph unicode="&#xc3;" horiz-adv-x="860" d="M45 0l344 1434h72l342 -1434h-78l-80 340h-442l-82 -340h-76zM203 1599q0 133 33.5 187.5t103.5 54.5q25 0 42 -8t29.5 -26.5t19.5 -33t15 -38.5q29 -74 64 -74q41 0 53 35t12 135h72q0 -131 -32.5 -185.5t-104.5 -54.5q-39 0 -65.5 20.5t-37 40t-24.5 56.5 q-20 61 -43 61q-39 0 -52.5 -35.5t-13.5 -134.5h-71zM219 412h408l-201 858z" />
<glyph unicode="&#xc4;" horiz-adv-x="860" d="M45 0l344 1434h72l342 -1434h-78l-80 340h-442l-82 -340h-76zM219 412h408l-201 858zM252 1599v232h72v-232h-72zM528 1599v232h72v-232h-72z" />
<glyph unicode="&#xc5;" horiz-adv-x="860" d="M45 0l344 1434h72l342 -1434h-78l-80 340h-442l-82 -340h-76zM219 412h408l-201 858zM272 1716q0 63 45 108.5t108.5 45.5t110 -45t46.5 -109q0 -66 -45 -110.5t-111 -44.5q-63 0 -108.5 44.5t-45.5 110.5zM342 1716q0 -37 24.5 -60.5t59.5 -23.5t59.5 23.5t24.5 60.5 q0 35 -24.5 58.5t-59.5 23.5t-59.5 -23.5t-24.5 -58.5z" />
<glyph unicode="&#xc6;" horiz-adv-x="1001" d="M45 0l344 1434h533v-72h-361v-608h299v-74h-299v-608h361v-72h-435v340h-284l-82 -340h-76zM219 412h268v950h-38z" />
<glyph unicode="&#xc7;" horiz-adv-x="778" d="M109 297v840q0 156 89 236.5t228 80.5q133 0 276 -51v-78q-154 57 -276 57q-111 0 -178.5 -61t-67.5 -184v-840q0 -123 67.5 -184.5t178.5 -61.5q123 0 276 58v-78q-117 -43 -233 -49l-20 -58q129 -12 129 -147q0 -78 -42 -117t-110 -39t-147 31v78q102 -37 147 -37 q35 0 57.5 21.5t22.5 62.5q0 76 -84 76h-74l47 129q-127 8 -206.5 88t-79.5 227z" />
<glyph unicode="&#xc8;" horiz-adv-x="716" d="M109 0v1434h553v-72h-482v-608h422v-74h-422v-608h482v-72h-553zM156 1806l45 60l352 -246l-47 -59z" />
<glyph unicode="&#xc9;" horiz-adv-x="716" d="M109 0v1434h553v-72h-482v-608h422v-74h-422v-608h482v-72h-553zM156 1620l350 246l47 -60l-352 -245z" />
<glyph unicode="&#xca;" horiz-adv-x="716" d="M100 1612l252 252l254 -252l-55 -53l-199 198l-196 -198zM109 0v1434h553v-72h-482v-608h422v-74h-422v-608h482v-72h-553z" />
<glyph unicode="&#xcb;" horiz-adv-x="716" d="M109 0v1434h553v-72h-482v-608h422v-74h-422v-608h482v-72h-553zM180 1599v232h72v-232h-72zM457 1599v232h71v-232h-71z" />
<glyph unicode="&#xcc;" horiz-adv-x="286" d="M-59 1806l45 60l352 -246l-47 -59zM106 0v1434h72v-1434h-72z" />
<glyph unicode="&#xcd;" horiz-adv-x="286" d="M-59 1620l350 246l47 -60l-352 -245zM106 0v1434h72v-1434h-72z" />
<glyph unicode="&#xce;" horiz-adv-x="286" d="M-115 1612l252 252l254 -252l-55 -53l-199 198l-196 -198zM106 0v1434h72v-1434h-72z" />
<glyph unicode="&#xcf;" horiz-adv-x="286" d="M-35 1599v232h72v-232h-72zM106 0v1434h72v-1434h-72zM242 1599v232h71v-232h-71z" />
<glyph unicode="&#xd0;" horiz-adv-x="929" d="M49 680v74h148v680h297q139 0 227 -81t88 -235v-803q0 -154 -88 -234.5t-227 -80.5h-297v680h-148zM270 72h224q111 0 177 60.5t66 182.5v803q0 123 -66.5 183.5t-176.5 60.5h-224v-608h312v-74h-312v-608z" />
<glyph unicode="&#xd1;" horiz-adv-x="839" d="M109 0v1434h67l473 -1213v1213h72v-1434h-66l-475 1212v-1212h-71zM193 1599q0 133 33.5 187.5t103.5 54.5q25 0 42 -8t29.5 -26.5t19.5 -33t15 -38.5q29 -74 64 -74q41 0 53 35t12 135h72q0 -131 -33 -185.5t-104 -54.5q-39 0 -65.5 20.5t-37 40t-24.5 56.5 q-20 61 -43 61q-39 0 -52.5 -35.5t-13.5 -134.5h-71z" />
<glyph unicode="&#xd2;" horiz-adv-x="860" d="M109 297v840q0 156 89 236.5t228 80.5t227 -81t88 -236v-840q0 -156 -88 -236.5t-227 -80.5t-228 80.5t-89 236.5zM145 1806l45 60l353 -246l-47 -59zM180 297q0 -123 67.5 -184.5t178.5 -61.5q109 0 176.5 61.5t67.5 184.5v840q0 123 -67.5 184t-176.5 61 q-111 0 -178.5 -61t-67.5 -184v-840z" />
<glyph unicode="&#xd3;" horiz-adv-x="860" d="M109 297v840q0 156 89 236.5t228 80.5t227 -81t88 -236v-840q0 -156 -88 -236.5t-227 -80.5t-228 80.5t-89 236.5zM180 297q0 -123 67.5 -184.5t178.5 -61.5q109 0 176.5 61.5t67.5 184.5v840q0 123 -67.5 184t-176.5 61q-111 0 -178.5 -61t-67.5 -184v-840zM309 1620 l350 246l48 -60l-353 -245z" />
<glyph unicode="&#xd4;" horiz-adv-x="860" d="M109 297v840q0 156 89 236.5t228 80.5t227 -81t88 -236v-840q0 -156 -88 -236.5t-227 -80.5t-228 80.5t-89 236.5zM172 1612l252 252l254 -252l-55 -53l-199 198l-197 -198zM180 297q0 -123 67.5 -184.5t178.5 -61.5q109 0 176.5 61.5t67.5 184.5v840q0 123 -67.5 184 t-176.5 61q-111 0 -178.5 -61t-67.5 -184v-840z" />
<glyph unicode="&#xd5;" horiz-adv-x="860" d="M109 297v840q0 156 89 236.5t228 80.5t227 -81t88 -236v-840q0 -156 -88 -236.5t-227 -80.5t-228 80.5t-89 236.5zM180 297q0 -123 67.5 -184.5t178.5 -61.5q109 0 176.5 61.5t67.5 184.5v840q0 123 -67.5 184t-176.5 61q-111 0 -178.5 -61t-67.5 -184v-840zM203 1599 q0 133 33.5 187.5t103.5 54.5q25 0 42 -8t29.5 -26.5t19.5 -33t15 -38.5q29 -74 64 -74q41 0 53 35t12 135h72q0 -131 -32.5 -185.5t-104.5 -54.5q-39 0 -65.5 20.5t-37 40t-24.5 56.5q-20 61 -43 61q-39 0 -52.5 -35.5t-13.5 -134.5h-71z" />
<glyph unicode="&#xd6;" horiz-adv-x="860" d="M109 297v840q0 156 89 236.5t228 80.5t227 -81t88 -236v-840q0 -156 -88 -236.5t-227 -80.5t-228 80.5t-89 236.5zM180 297q0 -123 67.5 -184.5t178.5 -61.5q109 0 176.5 61.5t67.5 184.5v840q0 123 -67.5 184t-176.5 61q-111 0 -178.5 -61t-67.5 -184v-840zM252 1599 v232h72v-232h-72zM528 1599v232h72v-232h-72z" />
<glyph unicode="&#xd7;" horiz-adv-x="634" d="M100 549l160 160l-160 161l52 54l159 -164l162 164l51 -54l-162 -161l162 -160l-51 -51l-162 159l-159 -159z" />
<glyph unicode="&#xd8;" horiz-adv-x="860" d="M57 10l72 156q-20 61 -20 131v840q0 156 89 236.5t228 80.5q168 0 252 -108l53 112l64 -33l-74 -159q20 -61 20 -129v-840q0 -156 -88 -236.5t-227 -80.5q-170 0 -256 110l-53 -115zM180 274l461 992q-59 117 -215 116q-111 0 -178.5 -61t-67.5 -184v-840v-23zM207 168 q59 -117 219 -117q109 0 176.5 61.5t67.5 184.5v840q0 2 -1 8t-1 10z" />
<glyph unicode="&#xd9;" horiz-adv-x="839" d="M109 297v1137h71v-1137q0 -123 64.5 -184.5t171 -61.5t170 61.5t63.5 184.5v1137h72v-1137q0 -158 -83 -237.5t-222.5 -79.5t-223 80.5t-83.5 236.5zM156 1806l45 60l352 -246l-47 -59z" />
<glyph unicode="&#xda;" horiz-adv-x="839" d="M109 297v1137h71v-1137q0 -123 64.5 -184.5t171 -61.5t170 61.5t63.5 184.5v1137h72v-1137q0 -158 -83 -237.5t-222.5 -79.5t-223 80.5t-83.5 236.5zM299 1620l350 246l47 -60l-352 -245z" />
<glyph unicode="&#xdb;" horiz-adv-x="839" d="M109 297v1137h71v-1137q0 -123 64.5 -184.5t171 -61.5t170 61.5t63.5 184.5v1137h72v-1137q0 -158 -83 -237.5t-222.5 -79.5t-223 80.5t-83.5 236.5zM162 1612l252 252l254 -252l-56 -53l-198 198l-197 -198z" />
<glyph unicode="&#xdc;" horiz-adv-x="839" d="M109 297v1137h71v-1137q0 -123 64.5 -184.5t171 -61.5t170 61.5t63.5 184.5v1137h72v-1137q0 -158 -83 -237.5t-222.5 -79.5t-223 80.5t-83.5 236.5zM242 1599v232h71v-232h-71zM518 1599v232h72v-232h-72z" />
<glyph unicode="&#xdd;" horiz-adv-x="860" d="M43 1434h76l307 -809l301 809h78l-344 -920v-514h-72v518zM227 1620l351 246l47 -60l-353 -245z" />
<glyph unicode="&#xde;" horiz-adv-x="757" d="M109 0v1434h71v-260h185q139 0 228 -81t89 -237v-278q0 -80 -22.5 -138.5t-53.5 -90.5t-79 -52.5t-81.5 -26.5t-78.5 -10h-187v-260h-71zM180 332h182q37 4 60.5 8t63.5 19.5t63.5 39t42 69.5t18.5 110v278q0 125 -67.5 185.5t-177.5 60.5h-185v-770z" />
<glyph unicode="&#xdf;" horiz-adv-x="860" d="M111 0v1227q0 154 88 233.5t225 79.5t225 -80t88 -233v-140q0 -211 -159 -278q160 -72 159 -277v-219q0 -154 -92 -233.5t-237 -79.5v72q115 0 186.5 60.5t71.5 180.5v219q0 72 -22.5 121t-62.5 73t-74 34t-79 14q-6 -2 -20 -2v76q6 -2 20 -2q45 4 79 13t74 32.5t62.5 74 t22.5 121.5v140q0 121 -67 181t-175.5 60t-175 -60t-66.5 -181v-1227h-71z" />
<glyph unicode="&#xe0;" d="M109 264h2v80q0 141 78.5 212t203.5 71h213v133q0 104 -59.5 158.5t-149.5 54.5q-94 0 -247 -55v75q143 51 249 51q121 0 200 -72.5t79 -211.5v-760h-72v29q-143 -49 -213 -49q-125 0 -204.5 71.5t-79.5 212.5zM180 264q0 -106 59.5 -159.5t153.5 -53.5q96 0 213 35v469 h-213q-94 0 -153.5 -53t-59.5 -158v-80zM197 1397l45 59l352 -246l-47 -59z" />
<glyph unicode="&#xe1;" d="M109 264h2v80q0 141 78.5 212t203.5 71h213v133q0 104 -59.5 158.5t-149.5 54.5q-94 0 -247 -55v75q143 51 249 51q121 0 200 -72.5t79 -211.5v-760h-72v29q-143 -49 -213 -49q-125 0 -204.5 71.5t-79.5 212.5zM180 264q0 -106 59.5 -159.5t153.5 -53.5q96 0 213 35v469 h-213q-94 0 -153.5 -53t-59.5 -158v-80zM197 1210l350 246l47 -59l-352 -246z" />
<glyph unicode="&#xe2;" d="M109 264h2v80q0 141 78.5 212t203.5 71h213v133q0 104 -59.5 158.5t-149.5 54.5q-94 0 -247 -55v75q143 51 249 51q121 0 200 -72.5t79 -211.5v-760h-72v29q-143 -49 -213 -49q-125 0 -204.5 71.5t-79.5 212.5zM141 1202l252 252l254 -252l-55 -53l-199 199l-196 -199z M180 264q0 -106 59.5 -159.5t153.5 -53.5q96 0 213 35v469h-213q-94 0 -153.5 -53t-59.5 -158v-80z" />
<glyph unicode="&#xe3;" d="M109 264h2v80q0 141 78.5 212t203.5 71h213v133q0 104 -59.5 158.5t-149.5 54.5q-94 0 -247 -55v75q143 51 249 51q121 0 200 -72.5t79 -211.5v-760h-72v29q-143 -49 -213 -49q-125 0 -204.5 71.5t-79.5 212.5zM172 1190q0 133 34 187.5t103 54.5q25 0 42.5 -8.5 t29.5 -27t19.5 -32.5t15.5 -39q29 -74 63 -74q41 0 53.5 35t12.5 135h71q0 -131 -32.5 -185t-104.5 -54q-39 0 -65.5 20.5t-36.5 40t-25 55.5q-20 62 -43 62q-39 0 -52 -36t-13 -134h-72zM180 264q0 -106 59.5 -159.5t153.5 -53.5q96 0 213 35v469h-213q-94 0 -153.5 -53 t-59.5 -158v-80z" />
<glyph unicode="&#xe4;" d="M109 264h2v80q0 141 78.5 212t203.5 71h213v133q0 104 -59.5 158.5t-149.5 54.5q-94 0 -247 -55v75q143 51 249 51q121 0 200 -72.5t79 -211.5v-760h-72v29q-143 -49 -213 -49q-125 0 -204.5 71.5t-79.5 212.5zM180 264q0 -106 59.5 -159.5t153.5 -53.5q96 0 213 35v469 h-213q-94 0 -153.5 -53t-59.5 -158v-80zM221 1190v231h72v-231h-72zM498 1190v231h71v-231h-71z" />
<glyph unicode="&#xe5;" d="M109 264h2v80q0 141 78.5 212t203.5 71h213v133q0 104 -59.5 158.5t-149.5 54.5q-94 0 -247 -55v75q143 51 249 51q121 0 200 -72.5t79 -211.5v-760h-72v29q-143 -49 -213 -49q-125 0 -204.5 71.5t-79.5 212.5zM180 264q0 -106 59.5 -159.5t153.5 -53.5q96 0 213 35v469 h-213q-94 0 -153.5 -53t-59.5 -158v-80zM242 1307q0 63 45 108t108.5 45t109.5 -45t46 -108q0 -66 -46 -111t-109.5 -45t-108.5 45t-45 111zM311 1307q0 -37 24.5 -60.5t59.5 -23.5t59.5 23.5t24.5 60.5q0 35 -24.5 58.5t-59.5 23.5t-59.5 -23.5t-24.5 -58.5z" />
<glyph unicode="&#xe6;" horiz-adv-x="1310" d="M115 264v80q0 141 78.5 212t203.5 71h213v133q0 106 -59 159.5t-154 53.5q-90 0 -243 -55v75q141 51 243 51q193 0 248 -157q57 158 248 157q125 0 205 -71.5t80 -212.5v-283h-496v-213q0 -106 58.5 -159.5t152.5 -53.5q90 0 246 55v-75q-143 -51 -246 -51 q-199 0 -252 167q-53 -168 -244 -167q-125 0 -203.5 71.5t-78.5 212.5zM184 264q0 -106 59.5 -159.5t153.5 -53.5q90 0 149.5 55.5t63.5 161.5v287h-213q-94 0 -153.5 -53t-59.5 -158v-80zM682 547h424v213q0 106 -59.5 159.5t-153.5 53.5t-152.5 -53.5t-58.5 -159.5v-213z " />
<glyph unicode="&#xe7;" horiz-adv-x="757" d="M109 264v496q0 141 79.5 212.5t204.5 71.5q102 0 244 -51v-75q-154 55 -244 55q-94 0 -153.5 -53.5t-59.5 -159.5v-496q0 -106 59.5 -159.5t153.5 -53.5q90 0 244 55v-75q-117 -43 -225 -51l-19 -56q127 -12 127 -147q0 -76 -42 -114t-109 -38q-63 0 -144 29v78 q92 -35 144 -35q80 0 80 80q0 76 -84 76h-72l49 131q-106 12 -169.5 82.5t-63.5 197.5z" />
<glyph unicode="&#xe8;" d="M111 264v496q0 141 78.5 212.5t203.5 71.5t205 -71.5t80 -212.5v-283h-498v-213q0 -106 59.5 -159.5t153.5 -53.5q90 0 244 55v-75q-141 -51 -244 -51q-125 0 -203.5 71.5t-78.5 212.5zM156 1397l45 59l352 -246l-47 -59zM180 547h426v213q0 106 -59.5 159.5t-153.5 53.5 t-153.5 -53.5t-59.5 -159.5v-213z" />
<glyph unicode="&#xe9;" d="M111 264v496q0 141 78.5 212.5t203.5 71.5t205 -71.5t80 -212.5v-283h-498v-213q0 -106 59.5 -159.5t153.5 -53.5q90 0 244 55v-75q-141 -51 -244 -51q-125 0 -203.5 71.5t-78.5 212.5zM180 547h426v213q0 106 -59.5 159.5t-153.5 53.5t-153.5 -53.5t-59.5 -159.5v-213z M238 1210l350 246l47 -59l-352 -246z" />
<glyph unicode="&#xea;" d="M111 264v496q0 141 78.5 212.5t203.5 71.5t205 -71.5t80 -212.5v-283h-498v-213q0 -106 59.5 -159.5t153.5 -53.5q90 0 244 55v-75q-141 -51 -244 -51q-125 0 -203.5 71.5t-78.5 212.5zM141 1202l252 252l254 -252l-55 -53l-199 199l-196 -199zM180 547h426v213 q0 106 -59.5 159.5t-153.5 53.5t-153.5 -53.5t-59.5 -159.5v-213z" />
<glyph unicode="&#xeb;" d="M111 264v496q0 141 78.5 212.5t203.5 71.5t205 -71.5t80 -212.5v-283h-498v-213q0 -106 59.5 -159.5t153.5 -53.5q90 0 244 55v-75q-141 -51 -244 -51q-125 0 -203.5 71.5t-78.5 212.5zM180 547h426v213q0 106 -59.5 159.5t-153.5 53.5t-153.5 -53.5t-59.5 -159.5v-213z M221 1190v231h72v-231h-72zM498 1190v231h71v-231h-71z" />
<glyph unicode="&#xec;" horiz-adv-x="286" d="M-59 1397l45 59l352 -246l-47 -59zM106 0v1024h72v-1024h-72z" />
<glyph unicode="&#xed;" horiz-adv-x="286" d="M-59 1210l350 246l47 -59l-352 -246zM106 0v1024h72v-1024h-72z" />
<glyph unicode="&#xee;" horiz-adv-x="286" d="M-115 1202l252 252l254 -252l-55 -53l-199 199l-196 -199zM106 0v1024h72v-1024h-72z" />
<glyph unicode="&#xef;" horiz-adv-x="286" d="M-35 1190v231h72v-231h-72zM106 0v1024h72v-1024h-72zM242 1190v231h71v-231h-71z" />
<glyph unicode="&#xf0;" d="M111 264v496q0 141 79.5 212.5t204.5 71.5q63 0 205 -53q-23 84 -68 193l-30 71l-217 -77l-25 69l215 78l-78 195h76l68 -172l217 79l24 -69l-215 -78l27 -63q84 -203 84 -426v-543h-2q-8 -133 -86 -200.5t-195 -67.5q-125 0 -204.5 71.5t-79.5 212.5zM182 264 q0 -106 58.5 -159.5t154.5 -53.5q94 0 152.5 53.5t58.5 159.5v557h17q-4 76 -11 115q-127 37 -217 37q-96 0 -154.5 -53.5t-58.5 -159.5v-496z" />
<glyph unicode="&#xf1;" d="M111 0v1024h69v-35q137 55 213 55q125 0 205 -71.5t80 -212.5v-760h-72v760q0 106 -59.5 159.5t-153.5 53.5q-98 0 -213 -37v-936h-69zM178 1190q0 133 34 187.5t103 54.5q25 0 42.5 -8.5t29.5 -27t19.5 -32.5t15.5 -39q29 -74 63 -74q41 0 53.5 35t12.5 135h72 q0 -131 -33 -185t-105 -54q-39 0 -65.5 20.5t-36.5 40t-25 55.5q-20 62 -43 62q-39 0 -52 -36t-13 -134h-72z" />
<glyph unicode="&#xf2;" d="M111 264v496q0 141 78.5 212.5t203.5 71.5t205 -71.5t80 -212.5v-496q0 -141 -80 -212.5t-205 -71.5t-203.5 71.5t-78.5 212.5zM135 1397l45 59l352 -246l-47 -59zM180 264q0 -106 59.5 -159.5t153.5 -53.5t153.5 53.5t59.5 159.5v496q0 106 -59.5 159.5t-153.5 53.5 t-153.5 -53.5t-59.5 -159.5v-496z" />
<glyph unicode="&#xf3;" d="M111 264v496q0 141 78.5 212.5t203.5 71.5t205 -71.5t80 -212.5v-496q0 -141 -80 -212.5t-205 -71.5t-203.5 71.5t-78.5 212.5zM180 264q0 -106 59.5 -159.5t153.5 -53.5t153.5 53.5t59.5 159.5v496q0 106 -59.5 159.5t-153.5 53.5t-153.5 -53.5t-59.5 -159.5v-496z M279 1210l350 246l47 -59l-352 -246z" />
<glyph unicode="&#xf4;" d="M111 264v496q0 141 78.5 212.5t203.5 71.5t205 -71.5t80 -212.5v-496q0 -141 -80 -212.5t-205 -71.5t-203.5 71.5t-78.5 212.5zM141 1202l252 252l254 -252l-55 -53l-199 199l-196 -199zM180 264q0 -106 59.5 -159.5t153.5 -53.5t153.5 53.5t59.5 159.5v496 q0 106 -59.5 159.5t-153.5 53.5t-153.5 -53.5t-59.5 -159.5v-496z" />
<glyph unicode="&#xf5;" d="M111 264v496q0 141 78.5 212.5t203.5 71.5t205 -71.5t80 -212.5v-496q0 -141 -80 -212.5t-205 -71.5t-203.5 71.5t-78.5 212.5zM172 1190q0 133 34 187.5t103 54.5q25 0 42.5 -8.5t29.5 -27t19.5 -32.5t15.5 -39q29 -74 63 -74q41 0 53.5 35t12.5 135h71 q0 -131 -32.5 -185t-104.5 -54q-39 0 -65.5 20.5t-36.5 40t-25 55.5q-20 62 -43 62q-39 0 -52 -36t-13 -134h-72zM180 264q0 -106 59.5 -159.5t153.5 -53.5t153.5 53.5t59.5 159.5v496q0 106 -59.5 159.5t-153.5 53.5t-153.5 -53.5t-59.5 -159.5v-496z" />
<glyph unicode="&#xf6;" d="M111 264v496q0 141 78.5 212.5t203.5 71.5t205 -71.5t80 -212.5v-496q0 -141 -80 -212.5t-205 -71.5t-203.5 71.5t-78.5 212.5zM180 264q0 -106 59.5 -159.5t153.5 -53.5t153.5 53.5t59.5 159.5v496q0 106 -59.5 159.5t-153.5 53.5t-153.5 -53.5t-59.5 -159.5v-496z M221 1190v231h72v-231h-72zM498 1190v231h71v-231h-71z" />
<glyph unicode="&#xf7;" horiz-adv-x="757" d="M109 674v71h528v-71h-528zM338 446v132h72v-132h-72zM338 844v131h72v-131h-72z" />
<glyph unicode="&#xf8;" d="M27 10l96 152q-12 43 -12 102v496q0 141 78.5 212.5t203.5 71.5q156 0 234 -104l69 107l66 -33l-98 -152q14 -43 14 -102v-496q0 -141 -80 -212.5t-205 -71.5q-160 0 -233 106l-72 -111zM180 250l402 620q-51 102 -189 103q-94 0 -153.5 -53.5t-59.5 -159.5v-496v-14z M203 154q51 -102 190 -103q94 0 153.5 53.5t59.5 159.5v496v12z" />
<glyph unicode="&#xf9;" d="M111 264v760h69v-760q0 -106 59.5 -159.5t153.5 -53.5q96 0 213 35v938h72v-1024h-72v33q-135 -53 -213 -53q-125 0 -203.5 71.5t-78.5 212.5zM156 1397l45 59l352 -246l-47 -59z" />
<glyph unicode="&#xfa;" d="M111 264v760h69v-760q0 -106 59.5 -159.5t153.5 -53.5q96 0 213 35v938h72v-1024h-72v33q-135 -53 -213 -53q-125 0 -203.5 71.5t-78.5 212.5zM258 1210l350 246l47 -59l-352 -246z" />
<glyph unicode="&#xfb;" d="M111 264v760h69v-760q0 -106 59.5 -159.5t153.5 -53.5q96 0 213 35v938h72v-1024h-72v33q-135 -53 -213 -53q-125 0 -203.5 71.5t-78.5 212.5zM141 1202l252 252l254 -252l-55 -53l-199 199l-196 -199z" />
<glyph unicode="&#xfc;" d="M111 264v760h69v-760q0 -106 59.5 -159.5t153.5 -53.5q96 0 213 35v938h72v-1024h-72v33q-135 -53 -213 -53q-125 0 -203.5 71.5t-78.5 212.5zM221 1190v231h72v-231h-72zM498 1190v231h71v-231h-71z" />
<glyph unicode="&#xfd;" d="M111 264v760h69v-760q0 -106 59.5 -159.5t153.5 -53.5q96 0 213 35v938h72v-1255q0 -141 -80 -213t-205 -72q-127 0 -274 49v78q155 -55 274 -55q94 0 153.5 53t59.5 160v264q-135 -53 -213 -53q-125 0 -203.5 71.5t-78.5 212.5zM197 1210l350 246l47 -59l-352 -246z" />
<glyph unicode="&#xfe;" d="M111 -496v2016h69v-531q137 55 213 55q125 0 205 -71.5t80 -212.5v-496q0 -141 -80 -212.5t-205 -71.5q-82 0 -213 53v-529h-69zM180 86q117 -35 213 -35q94 0 153.5 53.5t59.5 159.5v496q0 106 -59.5 159.5t-153.5 53.5q-98 0 -213 -37v-850z" />
<glyph unicode="&#xff;" d="M111 264v760h69v-760q0 -106 59.5 -159.5t153.5 -53.5q96 0 213 35v938h72v-1255q0 -141 -80 -213t-205 -72q-127 0 -274 49v78q155 -55 274 -55q94 0 153.5 53t59.5 160v264q-135 -53 -213 -53q-125 0 -203.5 71.5t-78.5 212.5zM221 1190v231h72v-231h-72zM498 1190v231 h71v-231h-71z" />
<glyph unicode="&#x100;" horiz-adv-x="860" d="M45 0l344 1434h72l342 -1434h-78l-80 340h-442l-82 -340h-76zM150 1679v72h548v-72h-548zM219 412h408l-201 858z" />
<glyph unicode="&#x101;" d="M109 264h2v80q0 141 78.5 212t203.5 71h213v133q0 104 -59.5 158.5t-149.5 54.5q-94 0 -247 -55v75q143 51 249 51q121 0 200 -72.5t79 -211.5v-760h-72v29q-143 -49 -213 -49q-125 0 -204.5 71.5t-79.5 212.5zM119 1270v71h549v-71h-549zM180 264q0 -106 59.5 -159.5 t153.5 -53.5q96 0 213 35v469h-213q-94 0 -153.5 -53t-59.5 -158v-80z" />
<glyph unicode="&#x102;" horiz-adv-x="860" d="M45 0l344 1434h72l342 -1434h-78l-80 340h-442l-82 -340h-76zM180 1831h72q0 -170 172 -170q174 0 174 170h72q0 -240 -246 -240q-244 0 -244 240zM219 412h408l-201 858z" />
<glyph unicode="&#x103;" d="M109 264h2v80q0 141 78.5 212t203.5 71h213v133q0 104 -59.5 158.5t-149.5 54.5q-94 0 -247 -55v75q143 51 249 51q121 0 200 -72.5t79 -211.5v-760h-72v29q-143 -49 -213 -49q-125 0 -204.5 71.5t-79.5 212.5zM150 1421h71q0 -170 172 -170q174 0 174 170h72 q0 -240 -246 -239q-244 0 -243 239zM180 264q0 -106 59.5 -159.5t153.5 -53.5q96 0 213 35v469h-213q-94 0 -153.5 -53t-59.5 -158v-80z" />
<glyph unicode="&#x104;" horiz-adv-x="860" d="M45 0l344 1434h72l340 -1426l2 -8h-21l-49 -25h2l-12 -6q-113 -49 -113 -112q0 -82 80 -82q49 0 146 35v-78q-78 -31 -145.5 -31t-109.5 39t-42 117q0 51 29.5 90t56 54t77.5 38l13 4l-70 297h-442l-82 -340h-76zM219 412h408l-201 858z" />
<glyph unicode="&#x105;" d="M109 264h2v80q0 141 78.5 212t203.5 71h213v133q0 104 -59.5 158.5t-149.5 54.5q-94 0 -247 -55v75q143 51 249 51q121 0 200 -72.5t79 -211.5v-760l-76 -37q-33 -14 -52.5 -26.5t-38.5 -37t-19 -53.5q0 -35 21.5 -55t55.5 -20q49 0 146 34v-77q-72 -29 -137 -29 q-70 0 -114 37t-44 100q0 47 36 80t142 80l8 4v29q-147 -49 -223 -49q-115 0 -194.5 72.5t-79.5 211.5zM180 264q0 -106 59.5 -159.5t161.5 -53.5q88 0 205 35v469h-213q-94 0 -153.5 -53t-59.5 -158v-80z" />
<glyph unicode="&#x106;" horiz-adv-x="778" d="M109 297q0 -156 89 -236.5t228 -80.5q133 0 276 51v78q-154 -57 -276 -58q-111 0 -178.5 61.5t-67.5 184.5v840q0 123 67.5 184t178.5 61q123 0 276 -57v78q-143 51 -276 51q-139 0 -228 -81t-89 -236v-840zM268 1620l350 246l48 -60l-353 -245z" />
<glyph unicode="&#x107;" horiz-adv-x="757" d="M109 264v496q0 141 79.5 212.5t204.5 71.5q102 0 244 -51v-75q-154 55 -244 55q-94 0 -153.5 -53.5t-59.5 -159.5v-496q0 -106 59.5 -159.5t153.5 -53.5q90 0 244 55v-75q-141 -51 -244 -51q-125 0 -204.5 71.5t-79.5 212.5zM176 1210l350 246l47 -59l-352 -246z" />
<glyph unicode="&#x108;" horiz-adv-x="778" d="M109 297v840q0 156 89 236.5t228 80.5q133 0 276 -51v-78q-154 57 -276 57q-111 0 -178.5 -61t-67.5 -184v-840q0 -123 67.5 -184.5t178.5 -61.5q123 0 276 58v-78q-143 -51 -276 -51q-139 0 -228 80.5t-89 236.5zM182 1612l252 252l254 -252l-55 -53l-199 198l-196 -198 z" />
<glyph unicode="&#x109;" horiz-adv-x="757" d="M109 264v496q0 141 79.5 212.5t204.5 71.5q102 0 244 -51v-75q-154 55 -244 55q-94 0 -153.5 -53.5t-59.5 -159.5v-496q0 -106 59.5 -159.5t153.5 -53.5q90 0 244 55v-75q-141 -51 -244 -51q-125 0 -204.5 71.5t-79.5 212.5zM121 1202l252 252l254 -252l-56 -53l-198 199 l-197 -199z" />
<glyph unicode="&#x10a;" horiz-adv-x="778" d="M109 297q0 -156 89 -236.5t228 -80.5q133 0 276 51v78q-154 -57 -276 -58q-111 0 -178.5 61.5t-67.5 184.5v840q0 123 67.5 184t178.5 61q123 0 276 -57v78q-143 51 -276 51q-139 0 -228 -81t-89 -236v-840zM393 1599v232h72v-232h-72z" />
<glyph unicode="&#x10b;" horiz-adv-x="757" d="M109 264v496q0 141 79.5 212.5t204.5 71.5q102 0 244 -51v-75q-154 55 -244 55q-94 0 -153.5 -53.5t-59.5 -159.5v-496q0 -106 59.5 -159.5t153.5 -53.5q90 0 244 55v-75q-141 -51 -244 -51q-125 0 -204.5 71.5t-79.5 212.5zM342 1190v231h72v-231h-72z" />
<glyph unicode="&#x10c;" horiz-adv-x="778" d="M109 297q0 -156 89 -236.5t228 -80.5q133 0 276 51v78q-154 -57 -276 -58q-111 0 -178.5 61.5t-67.5 184.5v840q0 123 67.5 184t178.5 61q123 0 276 -57v78q-143 51 -276 51q-139 0 -228 -81t-89 -236v-840zM182 1810l56 54l196 -199l199 199l55 -54l-254 -251z" />
<glyph unicode="&#x10d;" horiz-adv-x="757" d="M109 264v496q0 141 79.5 212.5t204.5 71.5q102 0 244 -51v-75q-154 55 -244 55q-94 0 -153.5 -53.5t-59.5 -159.5v-496q0 -106 59.5 -159.5t153.5 -53.5q90 0 244 55v-75q-141 -51 -244 -51q-125 0 -204.5 71.5t-79.5 212.5zM121 1401l55 53l197 -199l198 199l56 -53 l-254 -252z" />
<glyph unicode="&#x10e;" horiz-adv-x="839" d="M109 0v1434h297q139 0 227 -81t88 -235v-803q0 -154 -88 -234.5t-227 -80.5h-297zM162 1810l55 54l197 -199l198 199l56 -54l-254 -251zM180 72h226q109 0 176 60t67 183v803q0 123 -67.5 183.5t-175.5 60.5h-226v-1290z" />
<glyph unicode="&#x10f;" d="M111 264v496q0 141 78.5 212.5t203.5 71.5q80 0 213 -49v541h72v-1536h-72v27q-137 -47 -213 -47q-125 0 -203.5 71.5t-78.5 212.5zM180 264q0 -106 59.5 -159.5t153.5 -53.5q96 0 213 35v850q-115 37 -213 37q-94 0 -153.5 -53.5t-59.5 -159.5v-496zM741 1126 q52 131 56 258h-39v191h110v-176q0 -137 -49 -273h-78z" />
<glyph unicode="&#x110;" horiz-adv-x="929" d="M49 680v74h148v680h297q139 0 227 -81t88 -235v-803q0 -154 -88 -234.5t-227 -80.5h-297v680h-148zM270 72h224q111 0 177 60.5t66 182.5v803q0 123 -66.5 183.5t-176.5 60.5h-224v-608h312v-74h-312v-608z" />
<glyph unicode="&#x111;" d="M111 264v496q0 141 78.5 212.5t203.5 71.5q80 0 213 -49v273h-307v71h307v197h72v-197h149v-71h-149v-1268h-72v27q-137 -47 -213 -47q-125 0 -203.5 71.5t-78.5 212.5zM180 264q0 -106 59.5 -159.5t153.5 -53.5q96 0 213 35v850q-115 37 -213 37q-94 0 -153.5 -53.5 t-59.5 -159.5v-496z" />
<glyph unicode="&#x112;" horiz-adv-x="716" d="M78 1679v72h549v-72h-549zM109 0v1434h553v-72h-482v-608h422v-74h-422v-608h482v-72h-553z" />
<glyph unicode="&#x113;" d="M111 264v496q0 141 78.5 212.5t203.5 71.5t205 -71.5t80 -212.5v-283h-498v-213q0 -106 59.5 -159.5t153.5 -53.5q90 0 244 55v-75q-141 -51 -244 -51q-125 0 -203.5 71.5t-78.5 212.5zM119 1270v71h549v-71h-549zM180 547h426v213q0 106 -59.5 159.5t-153.5 53.5 t-153.5 -53.5t-59.5 -159.5v-213z" />
<glyph unicode="&#x114;" horiz-adv-x="716" d="M109 0v1434h553v-72h-482v-608h422v-74h-422v-608h482v-72h-553zM109 1831h71q0 -170 172 -170q174 0 174 170h72q0 -240 -246 -240q-244 0 -243 240z" />
<glyph unicode="&#x115;" d="M111 264v496q0 141 78.5 212.5t203.5 71.5t205 -71.5t80 -212.5v-283h-498v-213q0 -106 59.5 -159.5t153.5 -53.5q90 0 244 55v-75q-141 -51 -244 -51q-125 0 -203.5 71.5t-78.5 212.5zM150 1421h71q0 -170 172 -170q174 0 174 170h72q0 -240 -246 -239q-244 0 -243 239z M180 547h426v213q0 106 -59.5 159.5t-153.5 53.5t-153.5 -53.5t-59.5 -159.5v-213z" />
<glyph unicode="&#x116;" horiz-adv-x="716" d="M109 0v1434h553v-72h-482v-608h422v-74h-422v-608h482v-72h-553zM322 1599v232h71v-232h-71z" />
<glyph unicode="&#x117;" d="M111 264v496q0 141 78.5 212.5t203.5 71.5t205 -71.5t80 -212.5v-283h-498v-213q0 -106 59.5 -159.5t153.5 -53.5q90 0 244 55v-75q-141 -51 -244 -51q-125 0 -203.5 71.5t-78.5 212.5zM180 547h426v213q0 106 -59.5 159.5t-153.5 53.5t-153.5 -53.5t-59.5 -159.5v-213z M362 1190v231h72v-231h-72z" />
<glyph unicode="&#x118;" horiz-adv-x="716" d="M109 0v1434h553v-72h-482v-608h422v-74h-422v-608h482v-72l-76 -37q-39 -18 -59.5 -30.5t-37 -35t-16.5 -51.5q0 -37 21.5 -57t58.5 -20q47 0 147 34v-77q-80 -31 -143 -31q-72 0 -114 40t-42 105q0 55 35 86t131 74h-458z" />
<glyph unicode="&#x119;" d="M111 264v496q0 141 78.5 212.5t203.5 71.5t205 -71.5t80 -212.5v-283h-498v-213q0 -104 59.5 -158.5t149.5 -54.5q94 0 248 55v-73l-76 -37q-37 -18 -55.5 -29.5t-36.5 -35t-18 -52.5q0 -35 22.5 -56.5t54.5 -21.5q45 0 148 37v-78q-78 -31 -144 -30q-70 0 -111.5 40 t-41.5 97q0 76 88 127q-51 -14 -92 -14q-106 0 -185 73.5t-79 210.5zM180 547h426v213q0 106 -59.5 159.5t-153.5 53.5t-153.5 -53.5t-59.5 -159.5v-213z" />
<glyph unicode="&#x11a;" horiz-adv-x="716" d="M100 1810l56 54l196 -199l199 199l55 -54l-254 -251zM109 0v1434h553v-72h-482v-608h422v-74h-422v-608h482v-72h-553z" />
<glyph unicode="&#x11b;" d="M111 264v496q0 141 78.5 212.5t203.5 71.5t205 -71.5t80 -212.5v-283h-498v-213q0 -106 59.5 -159.5t153.5 -53.5q90 0 244 55v-75q-141 -51 -244 -51q-125 0 -203.5 71.5t-78.5 212.5zM141 1401l56 53l196 -199l199 199l55 -53l-254 -252zM180 547h426v213 q0 106 -59.5 159.5t-153.5 53.5t-153.5 -53.5t-59.5 -159.5v-213z" />
<glyph unicode="&#x11c;" horiz-adv-x="860" d="M109 297v840q0 156 89 236.5t228 80.5q127 0 276 -39v-76q-160 43 -276 43q-111 0 -178.5 -61t-67.5 -184v-840q0 -123 67.5 -184.5t178.5 -61.5q113 0 244 33v596h-260v74h331v-723q-164 -51 -315 -51q-139 0 -228 80.5t-89 236.5zM172 1612l252 252l254 -252l-55 -53 l-199 198l-197 -198z" />
<glyph unicode="&#x11d;" d="M111 264v496q0 141 78.5 212.5t203.5 71.5q80 0 213 -49v29h72v-1255q0 -141 -80 -213t-205 -72q-127 0 -274 49v78q155 -55 274 -55q94 0 153.5 53t59.5 160v258q-137 -47 -213 -47q-125 0 -203.5 71.5t-78.5 212.5zM141 1202l252 252l254 -252l-55 -53l-199 199 l-196 -199zM180 264q0 -106 59.5 -159.5t153.5 -53.5q96 0 213 35v850q-115 37 -213 37q-94 0 -153.5 -53.5t-59.5 -159.5v-496z" />
<glyph unicode="&#x11e;" horiz-adv-x="860" d="M109 297v840q0 156 89 236.5t228 80.5q127 0 276 -39v-76q-160 43 -276 43q-111 0 -178.5 -61t-67.5 -184v-840q0 -123 67.5 -184.5t178.5 -61.5q113 0 244 33v596h-260v74h331v-723q-164 -51 -315 -51q-139 0 -228 80.5t-89 236.5zM180 1831h72q0 -170 172 -170 q174 0 174 170h72q0 -240 -246 -240q-244 0 -244 240z" />
<glyph unicode="&#x11f;" d="M111 264v496q0 141 78.5 212.5t203.5 71.5q80 0 213 -49v29h72v-1255q0 -141 -80 -213t-205 -72q-127 0 -274 49v78q155 -55 274 -55q94 0 153.5 53t59.5 160v258q-137 -47 -213 -47q-125 0 -203.5 71.5t-78.5 212.5zM150 1421h71q0 -170 172 -170q174 0 174 170h72 q0 -240 -246 -239q-244 0 -243 239zM180 264q0 -106 59.5 -159.5t153.5 -53.5q96 0 213 35v850q-115 37 -213 37q-94 0 -153.5 -53.5t-59.5 -159.5v-496z" />
<glyph unicode="&#x120;" horiz-adv-x="860" d="M109 297v840q0 156 89 236.5t228 80.5q127 0 276 -39v-76q-160 43 -276 43q-111 0 -178.5 -61t-67.5 -184v-840q0 -123 67.5 -184.5t178.5 -61.5q113 0 244 33v596h-260v74h331v-723q-164 -51 -315 -51q-139 0 -228 80.5t-89 236.5zM393 1599v232h72v-232h-72z" />
<glyph unicode="&#x121;" d="M111 264v496q0 141 78.5 212.5t203.5 71.5q80 0 213 -49v29h72v-1255q0 -141 -80 -213t-205 -72q-127 0 -274 49v78q155 -55 274 -55q94 0 153.5 53t59.5 160v258q-137 -47 -213 -47q-125 0 -203.5 71.5t-78.5 212.5zM180 264q0 -106 59.5 -159.5t153.5 -53.5 q96 0 213 35v850q-115 37 -213 37q-94 0 -153.5 -53.5t-59.5 -159.5v-496zM362 1190v231h72v-231h-72z" />
<glyph unicode="&#x122;" horiz-adv-x="860" d="M109 297v840q0 156 89 236.5t228 80.5q127 0 276 -39v-76q-160 43 -276 43q-111 0 -178.5 -61t-67.5 -184v-840q0 -123 67.5 -184.5t178.5 -61.5q113 0 244 33v596h-260v74h331v-723q-164 -51 -315 -51q-139 0 -228 80.5t-89 236.5zM356 -614h78q49 135 49 272v176h-110 v-190h39q-4 -127 -56 -258z" />
<glyph unicode="&#x123;" d="M111 264v496q0 141 78.5 212.5t203.5 71.5q80 0 213 -49v29h72v-1255q0 -141 -80 -213t-205 -72q-127 0 -274 49v78q155 -55 274 -55q94 0 153.5 53t59.5 160v258q-137 -47 -213 -47q-125 0 -203.5 71.5t-78.5 212.5zM180 264q0 -106 59.5 -159.5t153.5 -53.5 q96 0 213 35v850q-115 37 -213 37q-94 0 -153.5 -53.5t-59.5 -159.5v-496zM334 1229v174q0 127 49 274h78q-49 -133 -55 -258h38v-190h-110z" />
<glyph unicode="&#x124;" horiz-adv-x="839" d="M109 0v1434h71v-680h469v680h72v-1434h-72v680h-469v-680h-71zM162 1612l252 252l254 -252l-56 -53l-198 198l-197 -198z" />
<glyph unicode="&#x125;" d="M111 0v1536h69v-541q129 49 213 49q125 0 205 -71.5t80 -212.5v-760h-72v760q0 106 -59.5 159.5t-153.5 53.5q-98 0 -213 -37v-936h-69zM252 1202l55 -53l197 199l198 -199l56 53l-254 252z" />
<glyph unicode="&#x126;" horiz-adv-x="1001" d="M49 999v72h141v363h72v-363h469v363h72v-363h137v-72h-137v-999h-72v680h-469v-680h-72v999h-141zM262 754h469v245h-469v-245z" />
<glyph unicode="&#x127;" d="M-49 1270v71h160v195h69v-195h320v-71h-320v-275q129 49 213 49q125 0 205 -71.5t80 -212.5v-760h-72v760q0 106 -59.5 159.5t-153.5 53.5q-98 0 -213 -37v-936h-69v1270h-160z" />
<glyph unicode="&#x128;" horiz-adv-x="286" d="M-84 1599q0 133 34 187.5t103 54.5q25 0 42.5 -8t29.5 -26.5t19.5 -33t15.5 -38.5q29 -74 63 -74q41 0 53.5 35t12.5 135h71q0 -131 -32.5 -185.5t-104.5 -54.5q-39 0 -65.5 20.5t-36.5 40t-25 56.5q-20 61 -43 61q-39 0 -52 -35.5t-13 -134.5h-72zM106 0v1434h72v-1434 h-72z" />
<glyph unicode="&#x129;" horiz-adv-x="286" d="M-84 1190q0 133 34 187.5t103 54.5q25 0 42.5 -8.5t29.5 -27t19.5 -32.5t15.5 -39q29 -74 63 -74q41 0 53.5 35t12.5 135h71q0 -131 -32.5 -185t-104.5 -54q-39 0 -65.5 20.5t-36.5 40t-25 55.5q-20 62 -43 62q-39 0 -52 -36t-13 -134h-72zM106 0v1024h72v-1024h-72z" />
<glyph unicode="&#x12a;" horiz-adv-x="286" d="M-137 1679v72h549v-72h-549zM106 0v1434h72v-1434h-72z" />
<glyph unicode="&#x12b;" horiz-adv-x="286" d="M-137 1270v71h549v-71h-549zM106 0v1024h72v-1024h-72z" />
<glyph unicode="&#x12c;" horiz-adv-x="286" d="M-106 1831h71q0 -170 172 -170q174 0 174 170h72q0 -240 -246 -240q-244 0 -243 240zM106 0v1434h72v-1434h-72z" />
<glyph unicode="&#x12d;" horiz-adv-x="286" d="M-106 1421h71q0 -170 172 -170q174 0 174 170h72q0 -240 -246 -239q-244 0 -243 239zM106 0v1024h72v-1024h-72z" />
<glyph unicode="&#x12e;" horiz-adv-x="286" d="M-84 -143q0 39 15.5 68.5t50 54t54 35t62.5 30.5h-2l8 2v1387h74v-1434h-14l-51 -25h2l-15 -6q-111 -49 -110 -112q0 -82 80 -82q49 0 145 35v-78q-76 -31 -145 -31q-68 0 -111 39t-43 117z" />
<glyph unicode="&#x12f;" horiz-adv-x="286" d="M-82 -143q0 39 15.5 69.5t48 54t54 34t62.5 28.5h-2l8 4v977h72v-1024h-12l-51 -25h2l-15 -6q-111 -49 -110 -112q0 -80 80 -80q47 0 143 35v-78q-72 -29 -143 -29q-68 0 -110 38t-42 114zM104 1190v231h72v-231h-72z" />
<glyph unicode="&#x130;" horiz-adv-x="286" d="M106 0v1434h72v-1434h-72zM106 1599v232h72v-232h-72z" />
<glyph unicode="&#x131;" horiz-adv-x="286" d="M106 0v1024h72v-1024h-72z" />
<glyph unicode="&#x132;" horiz-adv-x="1003" d="M106 0v1434h72v-1434h-72zM295 31q141 -51 274 -51q139 0 228.5 80.5t89.5 236.5v1137h-72v-1137q0 -123 -67.5 -184.5t-178.5 -61.5q-125 0 -274 58v-78z" />
<glyph unicode="&#x133;" horiz-adv-x="532" d="M106 0v1024h72v-1024h-72zM106 1190v244h72v-244h-72zM121 -444q100 0 164.5 53.5t64.5 159.5v1255h72v-1255q0 -141 -84 -213t-217 -72v72zM350 1190v244h72v-244h-72z" />
<glyph unicode="&#x134;" horiz-adv-x="757" d="M49 31v78q150 -58 275 -58q111 0 178 61.5t67 184.5v1137h72v-1137q0 -156 -89 -236.5t-228 -80.5q-133 0 -275 51zM356 1612l252 252l254 -252l-55 -53l-199 198l-196 -198z" />
<glyph unicode="&#x135;" horiz-adv-x="286" d="M-125 -444q100 0 164.5 53.5t64.5 159.5v1255h72v-1255q0 -141 -84 -213t-217 -72v72zM-115 1202l252 252l254 -252l-55 -53l-199 199l-196 -199z" />
<glyph unicode="&#x136;" horiz-adv-x="839" d="M109 0v1434h73v-680h221l316 680h78l-334 -717l336 -717h-78l-318 680h-221v-680h-73zM346 -614h78q49 135 49 272v176h-111v-190h39q-4 -127 -55 -258z" />
<glyph unicode="&#x137;" horiz-adv-x="753" d="M111 0v1536h69v-989h203l219 477h78l-240 -512l242 -512h-78l-221 477h-203v-477h-69zM303 -614h78q49 135 49 272v176h-111v-190h39q-4 -127 -55 -258z" />
<glyph unicode="&#x138;" horiz-adv-x="753" d="M111 0v1024h69v-477h203l219 477h78l-240 -512l242 -512h-78l-221 477h-203v-477h-69z" />
<glyph unicode="&#x139;" horiz-adv-x="716" d="M109 0v1434h71v-1362h482v-72h-553zM156 1620l350 246l47 -60l-352 -245z" />
<glyph unicode="&#x13a;" horiz-adv-x="286" d="M-2 1620l350 246l47 -60l-352 -245zM106 0v1536h72v-1536h-72z" />
<glyph unicode="&#x13b;" horiz-adv-x="716" d="M109 0v1434h71v-1362h482v-72h-553zM285 -614h77q49 135 50 272v176h-111v-190h39q-4 -127 -55 -258z" />
<glyph unicode="&#x13c;" horiz-adv-x="286" d="M70 -614h77q49 135 50 272v176h-111v-190h39q-4 -127 -55 -258zM106 0v1536h72v-1536h-72z" />
<glyph unicode="&#x13d;" horiz-adv-x="716" d="M-117 1810l56 54l196 -199l199 199l55 -54l-254 -251zM109 0v1434h71v-1362h482v-72h-553z" />
<glyph unicode="&#x13e;" horiz-adv-x="286" d="M106 0v1536h72v-1536h-72zM254 1130q51 132 55 259h-39v190h111v-176q0 -137 -49 -273h-78z" />
<glyph unicode="&#x13f;" horiz-adv-x="716" d="M109 0v1434h71v-1362h482v-72h-553zM539 530h110v191h-110v-191z" />
<glyph unicode="&#x140;" horiz-adv-x="471" d="M106 0v1536h72v-1536h-72zM250 530h110v191h-110v-191z" />
<glyph unicode="&#x141;" horiz-adv-x="716" d="M-20 594l129 90v750h71v-699l236 166l41 -61l-277 -195v-573h482v-72h-553v594l-89 -62z" />
<glyph unicode="&#x142;" horiz-adv-x="462" d="M-8 590l201 139v791h71v-740l160 113l41 -62l-201 -141v-690h-71v641l-162 -113z" />
<glyph unicode="&#x143;" horiz-adv-x="839" d="M109 0v1434h67l473 -1213v1213h72v-1434h-66l-475 1212v-1212h-71zM217 1620l350 246l47 -60l-352 -245z" />
<glyph unicode="&#x144;" d="M111 0v1024h69v-35q137 55 213 55q125 0 205 -71.5t80 -212.5v-760h-72v760q0 106 -59.5 159.5t-153.5 53.5q-98 0 -213 -37v-936h-69zM313 1210l351 246l47 -59l-353 -246z" />
<glyph unicode="&#x145;" horiz-adv-x="839" d="M109 0v1434h67l473 -1213v1213h72v-1434h-66l-475 1212v-1212h-71zM346 -614h78q49 135 49 272v176h-111v-190h39q-4 -127 -55 -258z" />
<glyph unicode="&#x146;" d="M111 0v1024h69v-35q137 55 213 55q125 0 205 -71.5t80 -212.5v-760h-72v760q0 106 -59.5 159.5t-153.5 53.5q-98 0 -213 -37v-936h-69zM336 -614h78q49 135 49 272v176h-111v-190h39q-4 -127 -55 -258z" />
<glyph unicode="&#x147;" horiz-adv-x="839" d="M109 0v1434h67l473 -1213v1213h72v-1434h-66l-475 1212v-1212h-71zM162 1810l55 54l197 -199l198 199l56 -54l-254 -251z" />
<glyph unicode="&#x148;" d="M111 0v1024h69v-35q137 55 213 55q125 0 205 -71.5t80 -212.5v-760h-72v760q0 106 -59.5 159.5t-153.5 53.5q-98 0 -213 -37v-936h-69zM147 1401l56 53l196 -199l199 199l55 -53l-254 -252z" />
<glyph unicode="&#x149;" d="M86 1126q51 131 55 258h-39v191h111v-176q0 -137 -49 -273h-78zM111 0v1024h69v-35q137 55 213 55q125 0 205 -71.5t80 -212.5v-760h-72v760q0 106 -59.5 159.5t-153.5 53.5q-98 0 -213 -37v-936h-69z" />
<glyph unicode="&#x14a;" horiz-adv-x="839" d="M109 0v1434h67l473 -1213v1213h72v-1616q0 -156 -88 -236t-227 -80q-138 0 -277 49v78q156 -55 277 -55q109 0 176 60.5t67 183.5v196l-469 1198v-1212h-71z" />
<glyph unicode="&#x14b;" d="M111 0v1024h69v-35q137 55 213 55q125 0 205 -71.5t80 -212.5v-991q0 -141 -84 -213t-217 -72v72q100 0 164.5 53t64.5 160v991q0 106 -59.5 159.5t-153.5 53.5q-98 0 -213 -37v-936h-69z" />
<glyph unicode="&#x14c;" horiz-adv-x="860" d="M109 297v840q0 156 89 236.5t228 80.5t227 -81t88 -236v-840q0 -156 -88 -236.5t-227 -80.5t-228 80.5t-89 236.5zM150 1679v72h548v-72h-548zM180 297q0 -123 67.5 -184.5t178.5 -61.5q109 0 176.5 61.5t67.5 184.5v840q0 123 -67.5 184t-176.5 61q-111 0 -178.5 -61 t-67.5 -184v-840z" />
<glyph unicode="&#x14d;" d="M111 264v496q0 141 78.5 212.5t203.5 71.5t205 -71.5t80 -212.5v-496q0 -141 -80 -212.5t-205 -71.5t-203.5 71.5t-78.5 212.5zM119 1270v71h549v-71h-549zM180 264q0 -106 59.5 -159.5t153.5 -53.5t153.5 53.5t59.5 159.5v496q0 106 -59.5 159.5t-153.5 53.5 t-153.5 -53.5t-59.5 -159.5v-496z" />
<glyph unicode="&#x14e;" horiz-adv-x="860" d="M109 297v840q0 156 89 236.5t228 80.5t227 -81t88 -236v-840q0 -156 -88 -236.5t-227 -80.5t-228 80.5t-89 236.5zM180 297q0 -123 67.5 -184.5t178.5 -61.5q109 0 176.5 61.5t67.5 184.5v840q0 123 -67.5 184t-176.5 61q-111 0 -178.5 -61t-67.5 -184v-840zM180 1831h72 q0 -170 172 -170q174 0 174 170h72q0 -240 -246 -240q-244 0 -244 240z" />
<glyph unicode="&#x14f;" d="M111 264v496q0 141 78.5 212.5t203.5 71.5t205 -71.5t80 -212.5v-496q0 -141 -80 -212.5t-205 -71.5t-203.5 71.5t-78.5 212.5zM150 1421h71q0 -170 172 -170q174 0 174 170h72q0 -240 -246 -239q-244 0 -243 239zM180 264q0 -106 59.5 -159.5t153.5 -53.5t153.5 53.5 t59.5 159.5v496q0 106 -59.5 159.5t-153.5 53.5t-153.5 -53.5t-59.5 -159.5v-496z" />
<glyph unicode="&#x150;" horiz-adv-x="860" d="M109 297v840q0 156 89 236.5t228 80.5t227 -81t88 -236v-840q0 -156 -88 -236.5t-227 -80.5t-228 80.5t-89 236.5zM170 1620l352 246l45 -60l-350 -245zM180 297q0 -123 67.5 -184.5t178.5 -61.5q109 0 176.5 61.5t67.5 184.5v840q0 123 -67.5 184t-176.5 61 q-111 0 -178.5 -61t-67.5 -184v-840zM520 1620l350 246l48 -60l-353 -245z" />
<glyph unicode="&#x151;" d="M111 264v496q0 141 78.5 212.5t203.5 71.5t205 -71.5t80 -212.5v-496q0 -141 -80 -212.5t-205 -71.5t-203.5 71.5t-78.5 212.5zM121 1210l352 246l45 -59l-350 -246zM180 264q0 -106 59.5 -159.5t153.5 -53.5t153.5 53.5t59.5 159.5v496q0 106 -59.5 159.5t-153.5 53.5 t-153.5 -53.5t-59.5 -159.5v-496zM471 1210l350 246l47 -59l-352 -246z" />
<glyph unicode="&#x152;" horiz-adv-x="1310" d="M113 297v840q0 156 88 236.5t227 80.5q168 0 244 -113v93h553v-72h-480v-608h420v-74h-420v-608h480v-72h-553v92q-76 -113 -244 -112q-139 0 -227 80.5t-88 236.5zM184 297q0 -123 67.5 -184.5t176.5 -61.5t176.5 61.5t67.5 184.5v852q-4 117 -70.5 175t-173.5 58 q-109 0 -176.5 -61t-67.5 -184v-840z" />
<glyph unicode="&#x153;" horiz-adv-x="1310" d="M115 264v496q0 141 78.5 212.5t203.5 71.5q193 0 248 -157q57 158 248 157q125 0 205 -71.5t80 -212.5v-283h-496v-213q0 -106 58.5 -159.5t152.5 -53.5q90 0 246 55v-75q-143 -51 -246 -51q-190 0 -248 155q-53 -156 -248 -155q-125 0 -203.5 71.5t-78.5 212.5zM184 264 q0 -106 59.5 -159.5t154 -53.5t153.5 53.5t59 159.5v496q0 106 -59 159.5t-153.5 53.5t-154 -53.5t-59.5 -159.5v-496zM682 547h424v213q0 106 -59.5 159.5t-153.5 53.5t-152.5 -53.5t-58.5 -159.5v-213z" />
<glyph unicode="&#x154;" horiz-adv-x="839" d="M109 0v1434h280q147 0 240.5 -81t93.5 -235v-280q0 -240 -203 -301l250 -537h-78l-243 522q-20 -2 -60 -2h-207v-520h-73zM182 592h207q260 0 260 246v280q0 123 -71.5 183.5t-188.5 60.5h-207v-770zM217 1620l350 246l47 -60l-352 -245z" />
<glyph unicode="&#x155;" horiz-adv-x="419" d="M109 0v1024h69v-35q137 55 215 55v-71q-101 0 -215 -37v-936h-69zM123 1210l350 246l47 -59l-352 -246z" />
<glyph unicode="&#x156;" horiz-adv-x="839" d="M109 0v1434h280q147 0 240.5 -81t93.5 -235v-280q0 -240 -203 -301l250 -537h-78l-243 522q-20 -2 -60 -2h-207v-520h-73zM182 592h207q260 0 260 246v280q0 123 -71.5 183.5t-188.5 60.5h-207v-770zM346 -614h78q49 135 49 272v176h-111v-190h39q-4 -127 -55 -258z" />
<glyph unicode="&#x157;" horiz-adv-x="419" d="M109 0v1024h69v-35q137 55 215 55v-71q-101 0 -215 -37v-936h-69zM137 -614h78q49 135 49 272v176h-110v-190h39q-4 -127 -56 -258z" />
<glyph unicode="&#x158;" horiz-adv-x="839" d="M109 0v1434h280q147 0 240.5 -81t93.5 -235v-280q0 -240 -203 -301l250 -537h-78l-243 522q-20 -2 -60 -2h-207v-520h-73zM162 1810l55 54l197 -199l198 199l56 -54l-254 -251zM182 592h207q260 0 260 246v280q0 123 -71.5 183.5t-188.5 60.5h-207v-770z" />
<glyph unicode="&#x159;" horiz-adv-x="419" d="M-47 1401l55 53l197 -199l198 199l56 -53l-254 -252zM109 0v1024h69v-35q137 55 215 55v-71q-101 0 -215 -37v-936h-69z" />
<glyph unicode="&#x15a;" horiz-adv-x="860" d="M109 31v75q170 -55 317 -55q109 0 176.5 61.5t67.5 184.5v139q0 63 -18.5 108.5t-42 70t-62.5 40t-62.5 18.5t-60.5 7q-45 4 -79 10t-82 26.5t-78.5 52.5t-53 90.5t-22.5 137.5v140q0 156 89 236.5t228 80.5q126 0 276 -39v-76q-160 43 -276 43q-111 0 -178.5 -61 t-67.5 -184v-140q0 -63 18.5 -108t42 -69.5t63.5 -40t63.5 -18.5t60.5 -7q45 -4 79 -10.5t81 -27t77.5 -52t53 -90t22.5 -138.5v-139q0 -156 -88 -236.5t-227 -80.5q-154 0 -317 51zM227 1620l351 246l47 -60l-353 -245z" />
<glyph unicode="&#x15b;" d="M111 754q0 -82 25.5 -139.5t71.5 -84t87 -38t96 -15.5q41 -4 72 -12t67.5 -28.5t56 -62.5t19.5 -104q0 -111 -59.5 -165t-153.5 -54q-119 0 -274 55v-75q143 -51 274 -51q127 0 206 72.5t79 217.5q0 82 -25.5 139.5t-73 84t-88 38t-96.5 15.5q-41 4 -71.5 12t-67.5 28.5 t-56.5 62.5t-19.5 104q0 111 59.5 165t153.5 54q90 0 244 -55v75q-141 51 -244 51q-125 0 -203.5 -72.5t-78.5 -217.5zM197 1210l350 246l47 -59l-352 -246z" />
<glyph unicode="&#x15c;" horiz-adv-x="860" d="M109 31v75q170 -55 317 -55q109 0 176.5 61.5t67.5 184.5v139q0 63 -18.5 108.5t-42 70t-62.5 40t-62.5 18.5t-60.5 7q-45 4 -79 10t-82 26.5t-78.5 52.5t-53 90.5t-22.5 137.5v140q0 156 89 236.5t228 80.5q126 0 276 -39v-76q-160 43 -276 43q-111 0 -178.5 -61 t-67.5 -184v-140q0 -63 18.5 -108t42 -69.5t63.5 -40t63.5 -18.5t60.5 -7q45 -4 79 -10.5t81 -27t77.5 -52t53 -90t22.5 -138.5v-139q0 -156 -88 -236.5t-227 -80.5q-154 0 -317 51zM172 1612l252 252l254 -252l-55 -53l-199 198l-197 -198z" />
<glyph unicode="&#x15d;" d="M111 754q0 145 78.5 217.5t203.5 72.5q102 0 244 -51v-75q-154 55 -244 55q-94 0 -153.5 -54.5t-59.5 -164.5q0 -61 19.5 -103.5t56.5 -63t67.5 -28.5t71.5 -12q55 -4 96 -15.5t88.5 -38t73 -84t25.5 -139.5q0 -145 -79 -217.5t-206 -72.5q-131 0 -274 51v75 q155 -55 274 -55q94 0 153.5 54.5t59.5 164.5q0 61 -19.5 103.5t-56 63t-67.5 28.5t-72 12q-55 4 -96 15.5t-87 38t-71.5 84t-25.5 139.5zM141 1202l252 252l254 -252l-55 -53l-199 199l-196 -199z" />
<glyph unicode="&#x15e;" horiz-adv-x="860" d="M109 31v75q170 -55 317 -55q109 0 176.5 61.5t67.5 184.5v139q0 63 -18.5 108.5t-42 70t-62.5 40t-62.5 18.5t-60.5 7q-45 4 -79 10t-82 26.5t-78.5 52.5t-53 90.5t-22.5 137.5v140q0 156 89 236.5t228 80.5q126 0 276 -39v-76q-160 43 -276 43q-111 0 -178.5 -61 t-67.5 -184v-140q0 -63 18.5 -108t42 -69.5t63.5 -40t63.5 -18.5t60.5 -7q45 -4 79 -10.5t81 -27t77.5 -52t53 -90t22.5 -138.5v-139q0 -143 -75.5 -223t-198.5 -92l-21 -58q127 -12 127 -147q0 -78 -42 -117t-109.5 -39t-147.5 31v78q102 -37 148 -37q35 0 57.5 21.5 t22.5 62.5q0 76 -84 76h-74l47 127q-147 6 -282 51z" />
<glyph unicode="&#x15f;" d="M111 754q0 145 78.5 217.5t203.5 72.5q102 0 244 -51v-75q-154 55 -244 55q-94 0 -153.5 -54.5t-59.5 -164.5q0 -61 19.5 -103.5t56.5 -63t67.5 -28.5t71.5 -12q55 -4 96 -15.5t88.5 -38t73 -84t25.5 -139.5q0 -133 -66.5 -204.5t-177.5 -83.5l-20 -58q127 -12 127 -147 q0 -76 -42 -114t-110 -38q-63 0 -145 29v78q96 -35 145 -35q80 0 80 80q0 76 -84 76h-74l47 129q-120 6 -239 49v75q155 -55 274 -55q94 0 153.5 54.5t59.5 164.5q0 61 -19.5 103.5t-56 63t-67.5 28.5t-72 12q-55 4 -96 15.5t-87 38t-71.5 84t-25.5 139.5z" />
<glyph unicode="&#x160;" horiz-adv-x="860" d="M109 31v75q170 -55 317 -55q109 0 176.5 61.5t67.5 184.5v139q0 63 -18.5 108.5t-42 70t-62.5 40t-62.5 18.5t-60.5 7q-45 4 -79 10t-82 26.5t-78.5 52.5t-53 90.5t-22.5 137.5v140q0 156 89 236.5t228 80.5q126 0 276 -39v-76q-160 43 -276 43q-111 0 -178.5 -61 t-67.5 -184v-140q0 -63 18.5 -108t42 -69.5t63.5 -40t63.5 -18.5t60.5 -7q45 -4 79 -10.5t81 -27t77.5 -52t53 -90t22.5 -138.5v-139q0 -156 -88 -236.5t-227 -80.5q-154 0 -317 51zM172 1810l55 54l197 -199l199 199l55 -54l-254 -251z" />
<glyph unicode="&#x161;" d="M111 754q0 -82 25.5 -139.5t71.5 -84t87 -38t96 -15.5q41 -4 72 -12t67.5 -28.5t56 -62.5t19.5 -104q0 -111 -59.5 -165t-153.5 -54q-119 0 -274 55v-75q143 -51 274 -51q127 0 206 72.5t79 217.5q0 82 -25.5 139.5t-73 84t-88 38t-96.5 15.5q-41 4 -71.5 12t-67.5 28.5 t-56.5 62.5t-19.5 104q0 111 59.5 165t153.5 54q90 0 244 -55v75q-141 51 -244 51q-125 0 -203.5 -72.5t-78.5 -217.5zM141 1401l56 53l196 -199l199 199l55 -53l-254 -252z" />
<glyph unicode="&#x162;" horiz-adv-x="737" d="M49 1362v72h633v-72h-281v-1362h-71v1362h-281zM295 -614h78q49 135 49 272v176h-111v-190h39q-4 -127 -55 -258z" />
<glyph unicode="&#x163;" horiz-adv-x="573" d="M49 952v72h137v199h72v-199h258v-72h-258v-688q0 -106 64.5 -159.5t164.5 -53.5v-71q-133 0 -217 71.5t-84 212.5v688h-137zM213 -614h78q49 135 49 272v176h-111v-190h39q-4 -127 -55 -258z" />
<glyph unicode="&#x164;" horiz-adv-x="737" d="M49 1362v72h633v-72h-281v-1362h-71v1362h-281zM111 1810l55 54l196 -199l199 199l55 -54l-254 -251z" />
<glyph unicode="&#x165;" horiz-adv-x="573" d="M49 952v72h137v199h72v-199h258v-72h-258v-688q0 -106 64.5 -159.5t164.5 -53.5v-71q-133 0 -217 71.5t-84 212.5v688h-137zM393 1126q52 131 56 258h-39v191h110v-176q0 -137 -49 -273h-78z" />
<glyph unicode="&#x166;" horiz-adv-x="737" d="M49 1362v72h633v-72h-281v-289h240v-72h-240v-1001h-71v1001h-242v72h242v289h-281z" />
<glyph unicode="&#x167;" horiz-adv-x="573" d="M49 674v71h137v207h-137v72h137v199h72v-199h258v-72h-258v-207h258v-71h-258v-410q0 -106 64.5 -159.5t164.5 -53.5v-71q-133 0 -217 71.5t-84 212.5v410h-137z" />
<glyph unicode="&#x168;" horiz-adv-x="839" d="M109 297v1137h71v-1137q0 -123 64.5 -184.5t171 -61.5t170 61.5t63.5 184.5v1137h72v-1137q0 -158 -83 -237.5t-222.5 -79.5t-223 80.5t-83.5 236.5zM193 1599q0 133 33.5 187.5t103.5 54.5q25 0 42 -8t29.5 -26.5t19.5 -33t15 -38.5q29 -74 64 -74q41 0 53 35t12 135h72 q0 -131 -33 -185.5t-104 -54.5q-39 0 -65.5 20.5t-37 40t-24.5 56.5q-20 61 -43 61q-39 0 -52.5 -35.5t-13.5 -134.5h-71z" />
<glyph unicode="&#x169;" d="M111 264v760h69v-760q0 -106 59.5 -159.5t153.5 -53.5q96 0 213 35v938h72v-1024h-72v33q-135 -53 -213 -53q-125 0 -203.5 71.5t-78.5 212.5zM172 1190q0 133 34 187.5t103 54.5q25 0 42.5 -8.5t29.5 -27t19.5 -32.5t15.5 -39q29 -74 63 -74q41 0 53.5 35t12.5 135h71 q0 -131 -32.5 -185t-104.5 -54q-39 0 -65.5 20.5t-36.5 40t-25 55.5q-20 62 -43 62q-39 0 -52 -36t-13 -134h-72z" />
<glyph unicode="&#x16a;" horiz-adv-x="839" d="M109 297v1137h71v-1137q0 -123 64.5 -184.5t171 -61.5t170 61.5t63.5 184.5v1137h72v-1137q0 -158 -83 -237.5t-222.5 -79.5t-223 80.5t-83.5 236.5zM139 1679v72h549v-72h-549z" />
<glyph unicode="&#x16b;" d="M111 264v760h69v-760q0 -106 59.5 -159.5t153.5 -53.5q96 0 213 35v938h72v-1024h-72v33q-135 -53 -213 -53q-125 0 -203.5 71.5t-78.5 212.5zM119 1270v71h549v-71h-549z" />
<glyph unicode="&#x16c;" horiz-adv-x="839" d="M109 297v1137h71v-1137q0 -123 64.5 -184.5t171 -61.5t170 61.5t63.5 184.5v1137h72v-1137q0 -158 -83 -237.5t-222.5 -79.5t-223 80.5t-83.5 236.5zM170 1831h72q0 -170 172 -170q174 0 174 170h71q0 -240 -245 -240q-244 0 -244 240z" />
<glyph unicode="&#x16d;" d="M111 264v760h69v-760q0 -106 59.5 -159.5t153.5 -53.5q96 0 213 35v938h72v-1024h-72v33q-135 -53 -213 -53q-125 0 -203.5 71.5t-78.5 212.5zM150 1421h71q0 -170 172 -170q174 0 174 170h72q0 -240 -246 -239q-244 0 -243 239z" />
<glyph unicode="&#x16e;" horiz-adv-x="839" d="M109 297v1137h71v-1137q0 -123 64.5 -184.5t171 -61.5t170 61.5t63.5 184.5v1137h72v-1137q0 -158 -83 -237.5t-222.5 -79.5t-223 80.5t-83.5 236.5zM262 1716q0 63 45 108.5t108.5 45.5t109.5 -45t46 -109q0 -66 -46 -110.5t-109.5 -44.5t-108.5 44.5t-45 110.5z M332 1716q0 -37 24.5 -60.5t59.5 -23.5t59.5 23.5t24.5 60.5q0 35 -24.5 58.5t-59.5 23.5t-59.5 -23.5t-24.5 -58.5z" />
<glyph unicode="&#x16f;" d="M111 264v760h69v-760q0 -106 59.5 -159.5t153.5 -53.5q96 0 213 35v938h72v-1024h-72v33q-135 -53 -213 -53q-125 0 -203.5 71.5t-78.5 212.5zM242 1307q0 63 45 108t108.5 45t109.5 -45t46 -108q0 -66 -46 -111t-109.5 -45t-108.5 45t-45 111zM311 1307 q0 -37 24.5 -60.5t59.5 -23.5t59.5 23.5t24.5 60.5q0 35 -24.5 58.5t-59.5 23.5t-59.5 -23.5t-24.5 -58.5z" />
<glyph unicode="&#x170;" horiz-adv-x="839" d="M109 297v1137h71v-1137q0 -123 64.5 -184.5t171 -61.5t170 61.5t63.5 184.5v1137h72v-1137q0 -158 -83 -237.5t-222.5 -79.5t-223 80.5t-83.5 236.5zM178 1620l352 246l45 -60l-350 -245zM528 1620l351 246l47 -60l-353 -245z" />
<glyph unicode="&#x171;" d="M111 264v760h69v-760q0 -106 59.5 -159.5t153.5 -53.5q96 0 213 35v938h72v-1024h-72v33q-135 -53 -213 -53q-125 0 -203.5 71.5t-78.5 212.5zM121 1210l352 246l45 -59l-350 -246zM471 1210l350 246l47 -59l-352 -246z" />
<glyph unicode="&#x172;" horiz-adv-x="839" d="M109 297v1137h71v-1137q0 -123 64.5 -184.5t171 -61.5t170 61.5t63.5 184.5v1137h72v-1137q0 -215 -168 -291l-33 -16h2l-14 -6q-113 -53 -113 -115q0 -39 22.5 -60.5t57.5 -21.5q41 0 148 37v-78q-80 -31 -147.5 -31t-109.5 39t-42 115q0 68 63 113q-127 8 -202.5 88 t-75.5 227z" />
<glyph unicode="&#x173;" d="M111 264v760h69v-760q0 -106 59.5 -159.5t153.5 -53.5q96 0 213 35v938h72v-1024l-76 -37q-33 -14 -52.5 -26.5t-38.5 -37t-19 -53.5q0 -35 21.5 -55t55.5 -20q49 0 146 34v-77q-72 -29 -137 -29q-70 0 -114 37t-44 100q0 47 36 80t142 80l8 4v33q-135 -53 -213 -53 q-125 0 -203.5 71.5t-78.5 212.5z" />
<glyph unicode="&#x174;" horiz-adv-x="1212" d="M47 1434h76l264 -1254q96 479 180 916h68l184 -916q18 88 114.5 549t145.5 705h78l-301 -1434h-72l-182 909l-178 -909h-72zM348 1612l252 252l254 -252l-55 -53l-199 198l-197 -198z" />
<glyph unicode="&#x175;" horiz-adv-x="1015" d="M8 1024h76l209 -877l176 598h63l181 -593l205 872h75l-243 -1024h-70l-180 596q-23 -74 -84.5 -280.5t-91.5 -315.5h-70zM250 1202l252 252l254 -252l-56 -53l-198 199l-197 -199z" />
<glyph unicode="&#x176;" horiz-adv-x="860" d="M43 1434h76l307 -809l301 809h78l-344 -920v-514h-72v518zM172 1612l252 252l254 -252l-55 -53l-199 198l-197 -198z" />
<glyph unicode="&#x177;" d="M111 264v760h69v-760q0 -106 59.5 -159.5t153.5 -53.5q96 0 213 35v938h72v-1255q0 -141 -80 -213t-205 -72q-127 0 -274 49v78q155 -55 274 -55q94 0 153.5 53t59.5 160v264q-135 -53 -213 -53q-125 0 -203.5 71.5t-78.5 212.5zM141 1202l252 252l254 -252l-55 -53 l-199 199l-196 -199z" />
<glyph unicode="&#x178;" horiz-adv-x="860" d="M43 1434h76l307 -809l301 809h78l-344 -920v-514h-72v518zM252 1599v232h72v-232h-72zM528 1599v232h72v-232h-72z" />
<glyph unicode="&#x179;" horiz-adv-x="860" d="M109 0v57l532 1305h-532v72h616v-58l-532 -1304h532v-72h-616zM227 1620l351 246l47 -60l-353 -245z" />
<glyph unicode="&#x17a;" d="M111 0v59l481 893h-481v72h567v-59l-483 -893h483v-72h-567zM197 1210l350 246l47 -59l-352 -246z" />
<glyph unicode="&#x17b;" horiz-adv-x="860" d="M109 0v57l532 1305h-532v72h616v-58l-532 -1304h532v-72h-616zM393 1599v232h72v-232h-72z" />
<glyph unicode="&#x17c;" d="M111 0v59l481 893h-481v72h567v-59l-483 -893h483v-72h-567zM362 1190v231h72v-231h-72z" />
<glyph unicode="&#x17d;" horiz-adv-x="860" d="M109 0v57l532 1305h-532v72h616v-58l-532 -1304h532v-72h-616zM172 1810l55 54l197 -199l199 199l55 -54l-254 -251z" />
<glyph unicode="&#x17e;" d="M111 0v59l481 893h-481v72h567v-59l-483 -893h483v-72h-567zM141 1401l56 53l196 -199l199 199l55 -53l-254 -252z" />
<glyph unicode="&#x1a0;" horiz-adv-x="860" d="M111 297v840q0 156 88 236.5t227 80.5q133 0 222 -75.5t95 -223.5q57 14 58 80q0 57 -49 199h79q41 -123 41 -201q0 -135 -129 -150v-786q0 -156 -89 -236.5t-228 -80.5t-227 80.5t-88 236.5zM182 297q0 -123 67.5 -184.5t176.5 -61.5t176.5 61.5t67.5 184.5v840 q0 123 -67.5 184t-176.5 61t-176.5 -61t-67.5 -184v-840z" />
<glyph unicode="&#x1a1;" d="M111 264v496q0 141 79.5 212.5t204.5 71.5t204 -71.5t79 -212.5v-12q57 14 57 79q0 61 -47 197h78q41 -109 41 -199q0 -135 -129 -149v-412q0 -141 -79 -212.5t-204 -71.5t-204.5 71.5t-79.5 212.5zM182 264q0 -106 58.5 -159.5t154.5 -53.5q94 0 152.5 53.5t58.5 159.5 v496q0 106 -58.5 159.5t-152.5 53.5q-96 0 -154.5 -53.5t-58.5 -159.5v-496z" />
<glyph unicode="&#x1a7;" horiz-adv-x="860" d="M109 297v139q0 80 22.5 138.5t53 90t78.5 52t82 27t79 10.5q37 4 60.5 7t62.5 18.5t62.5 40t42 69.5t18.5 108v140q0 123 -67.5 184t-176.5 61q-116 0 -276 -43v76q150 39 276 39q139 0 227 -81t88 -236v-140q0 -80 -22.5 -138t-53 -90t-77.5 -52.5t-81 -26.5t-79 -10 q-37 -4 -60.5 -7t-63.5 -18.5t-63.5 -40t-42 -69.5t-18.5 -109v-139q0 -123 67.5 -184.5t178.5 -61.5q145 0 315 55v-75q-164 -51 -315 -51q-139 0 -228 80.5t-89 236.5z" />
<glyph unicode="&#x1a8;" d="M111 270q0 82 25.5 139.5t71.5 84t87 38t96 15.5q41 4 72 12t67.5 28.5t56 62.5t19.5 104q0 111 -59.5 165t-153.5 54q-90 0 -243 -55v75q143 51 243 51q127 0 206 -72.5t79 -217.5q0 -82 -25.5 -139.5t-73 -84t-88 -38t-96.5 -15.5q-41 -4 -71.5 -12t-67.5 -28.5 t-56.5 -62.5t-19.5 -104q0 -111 59.5 -165t153.5 -54q119 0 275 55v-75q-143 -51 -275 -51q-125 0 -203.5 72.5t-78.5 217.5z" />
<glyph unicode="&#x1af;" horiz-adv-x="839" d="M111 297v1137h71v-1137q0 -123 63.5 -184.5t170 -61.5t171 61.5t64.5 184.5v1137h72v-279q57 14 57 80q0 43 -47 199h78q41 -109 41 -201q0 -135 -129 -150v-786q0 -156 -84 -236.5t-223.5 -80.5t-222 79.5t-82.5 237.5z" />
<glyph unicode="&#x1b0;" d="M111 264v760h71v-760q0 -106 58.5 -159.5t154.5 -53.5q90 0 149.5 55.5t61.5 161.5v756h72v-276q57 14 57 79q0 61 -47 197h78q41 -109 41 -199q0 -135 -129 -149v-676h-72v76q-70 -96 -211 -96q-125 0 -204.5 71.5t-79.5 212.5z" />
<glyph unicode="&#x1c7;" horiz-adv-x="1433" d="M109 0v1434h71v-1362h482v-72h-553zM725 31q141 -51 274 -51q139 0 228.5 80.5t89.5 236.5v1137h-72v-1137q0 -123 -67.5 -184.5t-178.5 -61.5q-125 0 -274 58v-78z" />
<glyph unicode="&#x1c8;" horiz-adv-x="962" d="M109 0v1434h71v-1362h482v-72h-553zM551 -444q100 0 164.5 53.5t64.5 159.5v1255h72v-1255q0 -141 -84 -213t-217 -72v72zM780 1190v244h72v-244h-72z" />
<glyph unicode="&#x1c9;" horiz-adv-x="532" d="M106 0v1536h72v-1536h-72zM121 -444q100 0 164.5 53.5t64.5 159.5v1255h72v-1255q0 -141 -84 -213t-217 -72v72zM350 1190v244h72v-244h-72z" />
<glyph unicode="&#x1ca;" horiz-adv-x="1556" d="M109 0v1434h67l473 -1213v1213h72v-1434h-66l-475 1212v-1212h-71zM848 31q141 -51 274 -51q139 0 228.5 80.5t89.5 236.5v1137h-72v-1137q0 -123 -67.5 -184.5t-178.5 -61.5q-125 0 -274 58v-78z" />
<glyph unicode="&#x1cb;" horiz-adv-x="1085" d="M109 0v1434h67l473 -1213v1213h72v-1434h-66l-475 1212v-1212h-71zM674 -444q100 0 164.5 53.5t64.5 159.5v1255h72v-1255q0 -141 -84 -213t-217 -72v72zM903 1190v244h72v-244h-72z" />
<glyph unicode="&#x1cc;" horiz-adv-x="1044" d="M111 0v1024h69v-35q137 55 213 55q125 0 205 -71.5t80 -212.5v-760h-72v760q0 106 -59.5 159.5t-153.5 53.5q-98 0 -213 -37v-936h-69zM633 -444q100 0 164.5 53.5t64.5 159.5v1255h72v-1255q0 -141 -84 -213t-217 -72v72zM862 1190v244h72v-244h-72z" />
<glyph unicode="&#x1cd;" horiz-adv-x="860" d="M45 0l344 1434h72l342 -1434h-78l-80 340h-442l-82 -340h-76zM172 1810l55 54l197 -199l199 199l55 -54l-254 -251zM219 412h408l-201 858z" />
<glyph unicode="&#x1ce;" d="M109 264h2v80q0 141 78.5 212t203.5 71h213v133q0 104 -59.5 158.5t-149.5 54.5q-94 0 -247 -55v75q143 51 249 51q121 0 200 -72.5t79 -211.5v-760h-72v29q-143 -49 -213 -49q-125 0 -204.5 71.5t-79.5 212.5zM141 1401l56 53l196 -199l199 199l55 -53l-254 -252z M180 264q0 -106 59.5 -159.5t153.5 -53.5q96 0 213 35v469h-213q-94 0 -153.5 -53t-59.5 -158v-80z" />
<glyph unicode="&#x1cf;" horiz-adv-x="286" d="M-115 1810l56 54l196 -199l199 199l55 -54l-254 -251zM106 0v1434h72v-1434h-72z" />
<glyph unicode="&#x1d0;" horiz-adv-x="286" d="M-115 1401l56 53l196 -199l199 199l55 -53l-254 -252zM106 0v1024h72v-1024h-72z" />
<glyph unicode="&#x1d1;" horiz-adv-x="860" d="M109 297v840q0 156 89 236.5t228 80.5t227 -81t88 -236v-840q0 -156 -88 -236.5t-227 -80.5t-228 80.5t-89 236.5zM172 1810l55 54l197 -199l199 199l55 -54l-254 -251zM180 297q0 -123 67.5 -184.5t178.5 -61.5q109 0 176.5 61.5t67.5 184.5v840q0 123 -67.5 184 t-176.5 61q-111 0 -178.5 -61t-67.5 -184v-840z" />
<glyph unicode="&#x1d2;" d="M111 264v496q0 141 78.5 212.5t203.5 71.5t205 -71.5t80 -212.5v-496q0 -141 -80 -212.5t-205 -71.5t-203.5 71.5t-78.5 212.5zM141 1401l56 53l196 -199l199 199l55 -53l-254 -252zM180 264q0 -106 59.5 -159.5t153.5 -53.5t153.5 53.5t59.5 159.5v496 q0 106 -59.5 159.5t-153.5 53.5t-153.5 -53.5t-59.5 -159.5v-496z" />
<glyph unicode="&#x1d3;" horiz-adv-x="839" d="M109 297v1137h71v-1137q0 -123 64.5 -184.5t171 -61.5t170 61.5t63.5 184.5v1137h72v-1137q0 -158 -83 -237.5t-222.5 -79.5t-223 80.5t-83.5 236.5zM162 1810l55 54l197 -199l198 199l56 -54l-254 -251z" />
<glyph unicode="&#x1d4;" d="M111 264v760h69v-760q0 -106 59.5 -159.5t153.5 -53.5q96 0 213 35v938h72v-1024h-72v33q-135 -53 -213 -53q-125 0 -203.5 71.5t-78.5 212.5zM141 1401l56 53l196 -199l199 199l55 -53l-254 -252z" />
<glyph unicode="&#x1d5;" horiz-adv-x="839" d="M109 297v1137h71v-1137q0 -123 64.5 -184.5t171 -61.5t170 61.5t63.5 184.5v1137h72v-1137q0 -158 -83 -237.5t-222.5 -79.5t-223 80.5t-83.5 236.5zM139 1884v72h549v-72h-549zM242 1559v231h71v-231h-71zM518 1559v231h72v-231h-72z" />
<glyph unicode="&#x1d6;" d="M111 264v760h69v-760q0 -106 59.5 -159.5t153.5 -53.5q96 0 213 35v938h72v-1024h-72v33q-135 -53 -213 -53q-125 0 -203.5 71.5t-78.5 212.5zM119 1475v71h549v-71h-549zM221 1149v231h72v-231h-72zM498 1149v231h71v-231h-71z" />
<glyph unicode="&#x1d7;" horiz-adv-x="839" d="M109 297v1137h71v-1137q0 -123 64.5 -184.5t171 -61.5t170 61.5t63.5 184.5v1137h72v-1137q0 -158 -83 -237.5t-222.5 -79.5t-223 80.5t-83.5 236.5zM242 1559v231h71v-231h-71zM375 1825l350 246l47 -60l-352 -246zM518 1559v231h72v-231h-72z" />
<glyph unicode="&#x1d8;" d="M111 264v760h69v-760q0 -106 59.5 -159.5t153.5 -53.5q96 0 213 35v938h72v-1024h-72v33q-135 -53 -213 -53q-125 0 -203.5 71.5t-78.5 212.5zM221 1149v231h72v-231h-72zM356 1415l351 246l47 -59l-353 -246zM498 1149v231h71v-231h-71z" />
<glyph unicode="&#x1d9;" horiz-adv-x="839" d="M109 297v1137h71v-1137q0 -123 64.5 -184.5t171 -61.5t170 61.5t63.5 184.5v1137h72v-1137q0 -158 -83 -237.5t-222.5 -79.5t-223 80.5t-83.5 236.5zM162 2015l55 53l197 -198l198 198l56 -53l-254 -252zM242 1559v231h71v-231h-71zM518 1559v231h72v-231h-72z" />
<glyph unicode="&#x1da;" d="M111 264v760h69v-760q0 -106 59.5 -159.5t153.5 -53.5q96 0 213 35v938h72v-1024h-72v33q-135 -53 -213 -53q-125 0 -203.5 71.5t-78.5 212.5zM141 1606l56 53l196 -199l199 199l55 -53l-254 -252zM221 1149v231h72v-231h-72zM498 1149v231h71v-231h-71z" />
<glyph unicode="&#x1db;" horiz-adv-x="839" d="M70 2011l45 60l352 -246l-47 -60zM109 297v1137h71v-1137q0 -123 64.5 -184.5t171 -61.5t170 61.5t63.5 184.5v1137h72v-1137q0 -158 -83 -237.5t-222.5 -79.5t-223 80.5t-83.5 236.5zM242 1559v231h71v-231h-71zM518 1559v231h72v-231h-72z" />
<glyph unicode="&#x1dc;" d="M57 1602l45 59l353 -246l-47 -59zM111 264v760h69v-760q0 -106 59.5 -159.5t153.5 -53.5q96 0 213 35v938h72v-1024h-72v33q-135 -53 -213 -53q-125 0 -203.5 71.5t-78.5 212.5zM221 1149v231h72v-231h-72zM498 1149v231h71v-231h-71z" />
<glyph unicode="&#x1dd;" d="M111 264v283h495v213q0 106 -59.5 159.5t-153.5 53.5q-90 0 -243 -55v75q143 51 243 51q125 0 205 -71.5t80 -212.5v-496q0 -141 -80 -212.5t-205 -71.5t-203.5 71.5t-78.5 212.5zM180 264q0 -106 59.5 -159.5t153.5 -53.5t153.5 53.5t59.5 159.5v213h-426v-213z" />
<glyph unicode="&#x1de;" horiz-adv-x="860" d="M45 0l344 1434h72l342 -1434h-78l-80 340h-442l-82 -340h-76zM150 1884v72h548v-72h-548zM219 412h408l-201 858zM252 1559v231h72v-231h-72zM528 1559v231h72v-231h-72z" />
<glyph unicode="&#x1df;" d="M109 264h2v80q0 141 78.5 212t203.5 71h213v133q0 104 -59.5 158.5t-149.5 54.5q-94 0 -247 -55v75q143 51 249 51q121 0 200 -72.5t79 -211.5v-760h-72v29q-143 -49 -213 -49q-125 0 -204.5 71.5t-79.5 212.5zM119 1475v71h549v-71h-549zM180 264q0 -106 59.5 -159.5 t153.5 -53.5q96 0 213 35v469h-213q-94 0 -153.5 -53t-59.5 -158v-80zM221 1149v231h72v-231h-72zM498 1149v231h71v-231h-71z" />
<glyph unicode="&#x1e0;" horiz-adv-x="860" d="M45 0l344 1434h72l342 -1434h-78l-80 340h-442l-82 -340h-76zM150 1884v72h548v-72h-548zM219 412h408l-201 858zM393 1559v231h72v-231h-72z" />
<glyph unicode="&#x1e1;" d="M109 264h2v80q0 141 78.5 212t203.5 71h213v133q0 104 -59.5 158.5t-149.5 54.5q-94 0 -247 -55v75q143 51 249 51q121 0 200 -72.5t79 -211.5v-760h-72v29q-143 -49 -213 -49q-125 0 -204.5 71.5t-79.5 212.5zM119 1475v71h549v-71h-549zM180 264q0 -106 59.5 -159.5 t153.5 -53.5q96 0 213 35v469h-213q-94 0 -153.5 -53t-59.5 -158v-80zM362 1149v231h72v-231h-72z" />
<glyph unicode="&#x1e2;" horiz-adv-x="1001" d="M45 0l344 1434h533v-72h-361v-608h299v-74h-299v-608h361v-72h-435v340h-284l-82 -340h-76zM219 412h268v950h-38zM219 1679v72h549v-72h-549z" />
<glyph unicode="&#x1e3;" horiz-adv-x="1310" d="M115 264v80q0 141 78.5 212t203.5 71h213v133q0 106 -59 159.5t-154 53.5q-90 0 -243 -55v75q141 51 243 51q193 0 248 -157q57 158 248 157q125 0 205 -71.5t80 -212.5v-283h-496v-213q0 -106 58.5 -159.5t152.5 -53.5q90 0 246 55v-75q-143 -51 -246 -51 q-199 0 -252 167q-53 -168 -244 -167q-125 0 -203.5 71.5t-78.5 212.5zM184 264q0 -106 59.5 -159.5t153.5 -53.5q90 0 149.5 55.5t63.5 161.5v287h-213q-94 0 -153.5 -53t-59.5 -158v-80zM375 1270v71h549v-71h-549zM682 547h424v213q0 106 -59.5 159.5t-153.5 53.5 t-152.5 -53.5t-58.5 -159.5v-213z" />
<glyph unicode="&#x1e4;" horiz-adv-x="993" d="M111 297v840q0 156 88 236.5t227 80.5q127 0 276 -39v-76q-160 43 -276 43q-109 0 -176.5 -61t-67.5 -184v-840q0 -123 67.5 -184.5t176.5 -61.5q125 0 244 33v287h-230v71h230v238h-260v74h333v-312h150v-71h-150v-340q-164 -51 -317 -51q-139 0 -227 80.5t-88 236.5z " />
<glyph unicode="&#x1e5;" d="M111 264v496q0 141 78.5 212.5t203.5 71.5q80 0 213 -49v29h72v-1200h147v-72h-147q-6 -133 -85 -200.5t-200 -67.5q-127 0 -274 49v78q155 -55 274 -55q90 0 148.5 50t62.5 146h-227v72h229v203q-137 -47 -213 -47q-125 0 -203.5 71.5t-78.5 212.5zM180 264 q0 -106 59.5 -159.5t153.5 -53.5q96 0 213 35v850q-115 37 -213 37q-94 0 -153.5 -53.5t-59.5 -159.5v-496z" />
<glyph unicode="&#x1e6;" horiz-adv-x="860" d="M109 297v840q0 156 89 236.5t228 80.5q127 0 276 -39v-76q-160 43 -276 43q-111 0 -178.5 -61t-67.5 -184v-840q0 -123 67.5 -184.5t178.5 -61.5q113 0 244 33v596h-260v74h331v-723q-164 -51 -315 -51q-139 0 -228 80.5t-89 236.5zM172 1810l55 54l197 -199l199 199 l55 -54l-254 -251z" />
<glyph unicode="&#x1e7;" d="M111 264v496q0 141 78.5 212.5t203.5 71.5q80 0 213 -49v29h72v-1255q0 -141 -80 -213t-205 -72q-127 0 -274 49v78q155 -55 274 -55q94 0 153.5 53t59.5 160v258q-137 -47 -213 -47q-125 0 -203.5 71.5t-78.5 212.5zM141 1401l56 53l196 -199l199 199l55 -53l-254 -252z M180 264q0 -106 59.5 -159.5t153.5 -53.5q96 0 213 35v850q-115 37 -213 37q-94 0 -153.5 -53.5t-59.5 -159.5v-496z" />
<glyph unicode="&#x1e8;" horiz-adv-x="839" d="M109 0v1434h73v-680h221l316 680h78l-334 -717l336 -717h-78l-318 680h-221v-680h-73zM162 1810l55 54l197 -199l198 199l56 -54l-254 -251z" />
<glyph unicode="&#x1e9;" horiz-adv-x="753" d="M111 0v1536h69v-989h203l219 477h78l-240 -512l242 -512h-78l-221 477h-203v-477h-69zM238 1401l55 53l196 -199l199 199l55 -53l-254 -252z" />
<glyph unicode="&#x1ea;" horiz-adv-x="860" d="M109 297v840q0 156 89 236.5t228 80.5t227 -81t88 -236v-840q0 -123 -56 -200t-153 -103l-36 -19h2l-15 -6q-113 -51 -112 -112q0 -82 80 -82q47 0 147 35v-78q-80 -31 -147.5 -31t-109.5 39t-42 116.5t70 127.5q-117 16 -188.5 96t-71.5 217zM180 297 q0 -123 67.5 -184.5t178.5 -61.5q109 0 176.5 61.5t67.5 184.5v840q0 123 -67.5 184t-176.5 61q-111 0 -178.5 -61t-67.5 -184v-840z" />
<glyph unicode="&#x1eb;" d="M111 264v496q0 141 78.5 212.5t203.5 71.5t205 -71.5t80 -212.5v-496q0 -111 -49 -178.5t-135 -91.5l-11 -6h2l-14 -6q-111 -49 -111 -113q0 -82 78 -82q43 0 146 37v-78q-76 -31 -146 -31q-66 0 -107.5 39t-41.5 115q0 66 53 115q-104 12 -167.5 83.5t-63.5 196.5z M180 264q0 -106 59.5 -159.5t153.5 -53.5t153.5 53.5t59.5 159.5v496q0 106 -59.5 159.5t-153.5 53.5t-153.5 -53.5t-59.5 -159.5v-496z" />
<glyph unicode="&#x1ec;" horiz-adv-x="860" d="M109 297v840q0 156 89 236.5t228 80.5t227 -81t88 -236v-840q0 -123 -56 -200t-153 -103l-36 -19h2l-15 -6q-113 -51 -112 -112q0 -82 80 -82q47 0 147 35v-78q-80 -31 -147.5 -31t-109.5 39t-42 116.5t70 127.5q-117 16 -188.5 96t-71.5 217zM150 1679v72h548v-72h-548z M180 297q0 -123 67.5 -184.5t178.5 -61.5q109 0 176.5 61.5t67.5 184.5v840q0 123 -67.5 184t-176.5 61q-111 0 -178.5 -61t-67.5 -184v-840z" />
<glyph unicode="&#x1ed;" d="M111 264v496q0 141 78.5 212.5t203.5 71.5t205 -71.5t80 -212.5v-496q0 -111 -49 -178.5t-135 -91.5l-11 -6h2l-14 -6q-111 -49 -111 -113q0 -82 78 -82q43 0 146 37v-78q-76 -31 -146 -31q-66 0 -107.5 39t-41.5 115q0 66 53 115q-104 12 -167.5 83.5t-63.5 196.5z M119 1270v71h549v-71h-549zM180 264q0 -106 59.5 -159.5t153.5 -53.5t153.5 53.5t59.5 159.5v496q0 106 -59.5 159.5t-153.5 53.5t-153.5 -53.5t-59.5 -159.5v-496z" />
<glyph unicode="&#x1f0;" horiz-adv-x="286" d="M-125 -444q100 0 164.5 53.5t64.5 159.5v1255h72v-1255q0 -141 -84 -213t-217 -72v72zM-115 1401l56 53l196 -199l199 199l55 -53l-254 -252z" />
<glyph unicode="&#x1f1;" horiz-adv-x="1658" d="M109 0v1434h297q139 0 227 -81t88 -235v-803q0 -154 -88 -234.5t-227 -80.5h-297zM180 72h226q109 0 176 60t67 183v803q0 123 -67.5 183.5t-175.5 60.5h-226v-1290zM907 0v57l533 1305h-533v72h617v-58l-533 -1304h533v-72h-617z" />
<glyph unicode="&#x1f2;" horiz-adv-x="1597" d="M109 0v1434h297q139 0 227 -81t88 -235v-803q0 -154 -88 -234.5t-227 -80.5h-297zM180 72h226q109 0 176 60t67 183v803q0 123 -67.5 183.5t-175.5 60.5h-226v-1290zM909 0v59l482 893h-482v72h568v-59l-484 -893h484v-72h-568z" />
<glyph unicode="&#x1f3;" horiz-adv-x="1556" d="M111 264v496q0 141 78.5 212.5t203.5 71.5q80 0 213 -49v541h72v-1536h-72v27q-137 -47 -213 -47q-125 0 -203.5 71.5t-78.5 212.5zM180 264q0 -106 59.5 -159.5t153.5 -53.5q96 0 213 35v850q-115 37 -213 37q-94 0 -153.5 -53.5t-59.5 -159.5v-496zM868 0v59l482 893 h-482v72h568v-59l-484 -893h484v-72h-568z" />
<glyph unicode="&#x1f4;" horiz-adv-x="860" d="M109 297v840q0 156 89 236.5t228 80.5q127 0 276 -39v-76q-160 43 -276 43q-111 0 -178.5 -61t-67.5 -184v-840q0 -123 67.5 -184.5t178.5 -61.5q113 0 244 33v596h-260v74h331v-723q-164 -51 -315 -51q-139 0 -228 80.5t-89 236.5zM268 1620l350 246l48 -60l-353 -245z " />
<glyph unicode="&#x1f5;" d="M111 264v496q0 141 78.5 212.5t203.5 71.5q80 0 213 -49v29h72v-1255q0 -141 -80 -213t-205 -72q-127 0 -274 49v78q155 -55 274 -55q94 0 153.5 53t59.5 160v258q-137 -47 -213 -47q-125 0 -203.5 71.5t-78.5 212.5zM180 264q0 -106 59.5 -159.5t153.5 -53.5 q96 0 213 35v850q-115 37 -213 37q-94 0 -153.5 -53.5t-59.5 -159.5v-496zM279 1210l350 246l47 -59l-352 -246z" />
<glyph unicode="&#x1f8;" horiz-adv-x="839" d="M109 0v1434h67l473 -1213v1213h72v-1434h-66l-475 1212v-1212h-71zM217 1806l45 60l352 -246l-47 -59z" />
<glyph unicode="&#x1f9;" d="M98 1397l45 59l353 -246l-47 -59zM111 0v1024h69v-35q137 55 213 55q125 0 205 -71.5t80 -212.5v-760h-72v760q0 106 -59.5 159.5t-153.5 53.5q-98 0 -213 -37v-936h-69z" />
<glyph unicode="&#x1fc;" horiz-adv-x="1001" d="M45 0l344 1434h533v-72h-361v-608h299v-74h-299v-608h361v-72h-435v340h-284l-82 -340h-76zM219 412h268v950h-38zM473 1620l350 246l47 -60l-352 -245z" />
<glyph unicode="&#x1fd;" horiz-adv-x="1310" d="M115 264v80q0 141 78.5 212t203.5 71h213v133q0 106 -59 159.5t-154 53.5q-90 0 -243 -55v75q141 51 243 51q193 0 248 -157q57 158 248 157q125 0 205 -71.5t80 -212.5v-283h-496v-213q0 -106 58.5 -159.5t152.5 -53.5q90 0 246 55v-75q-143 -51 -246 -51 q-199 0 -252 167q-53 -168 -244 -167q-125 0 -203.5 71.5t-78.5 212.5zM184 264q0 -106 59.5 -159.5t153.5 -53.5q90 0 149.5 55.5t63.5 161.5v287h-213q-94 0 -153.5 -53t-59.5 -158v-80zM592 1210l350 246l47 -59l-352 -246zM682 547h424v213q0 106 -59.5 159.5 t-153.5 53.5t-152.5 -53.5t-58.5 -159.5v-213z" />
<glyph unicode="&#x1fe;" horiz-adv-x="860" d="M57 10l72 156q-20 61 -20 131v840q0 156 89 236.5t228 80.5q168 0 252 -108l53 112l64 -33l-74 -159q20 -61 20 -129v-840q0 -156 -88 -236.5t-227 -80.5q-170 0 -256 110l-53 -115zM180 274l461 992q-59 117 -215 116q-111 0 -178.5 -61t-67.5 -184v-840v-23zM207 168 q59 -117 219 -117q109 0 176.5 61.5t67.5 184.5v840q0 2 -1 8t-1 10zM279 1620l350 246l47 -60l-352 -245z" />
<glyph unicode="&#x1ff;" d="M27 10l96 152q-12 43 -12 102v496q0 141 78.5 212.5t203.5 71.5q156 0 234 -104l69 107l66 -33l-98 -152q14 -43 14 -102v-496q0 -141 -80 -212.5t-205 -71.5q-160 0 -233 106l-72 -111zM180 250l402 620q-51 102 -189 103q-94 0 -153.5 -53.5t-59.5 -159.5v-496v-14z M203 154q51 -102 190 -103q94 0 153.5 53.5t59.5 159.5v496v12zM279 1210l350 246l47 -59l-352 -246z" />
<glyph unicode="&#x200;" horiz-adv-x="860" d="M45 0l344 1434h72l342 -1434h-78l-80 340h-442l-82 -340h-76zM49 1806l47 60l350 -246l-45 -59zM219 412h408l-201 858zM399 1806l45 60l353 -246l-47 -59z" />
<glyph unicode="&#x201;" d="M18 1397l48 59l350 -246l-45 -59zM109 264h2v80q0 141 78.5 212t203.5 71h213v133q0 104 -59.5 158.5t-149.5 54.5q-94 0 -247 -55v75q143 51 249 51q121 0 200 -72.5t79 -211.5v-760h-72v29q-143 -49 -213 -49q-125 0 -204.5 71.5t-79.5 212.5zM180 264 q0 -106 59.5 -159.5t153.5 -53.5q96 0 213 35v469h-213q-94 0 -153.5 -53t-59.5 -158v-80zM369 1397l45 59l352 -246l-47 -59z" />
<glyph unicode="&#x202;" horiz-adv-x="860" d="M45 0l344 1434h72l342 -1434h-78l-80 340h-442l-82 -340h-76zM180 1591q0 240 244 240q246 0 246 -240h-72q0 168 -174 168q-172 0 -172 -168h-72zM219 412h408l-201 858z" />
<glyph unicode="&#x203;" d="M109 264h2v80q0 141 78.5 212t203.5 71h213v133q0 104 -59.5 158.5t-149.5 54.5q-94 0 -247 -55v75q143 51 249 51q121 0 200 -72.5t79 -211.5v-760h-72v29q-143 -49 -213 -49q-125 0 -204.5 71.5t-79.5 212.5zM150 1182q0 240 243 239q246 1 246 -239h-72 q0 168 -174 168q-172 0 -172 -168h-71zM180 264q0 -106 59.5 -159.5t153.5 -53.5q96 0 213 35v469h-213q-94 0 -153.5 -53t-59.5 -158v-80z" />
<glyph unicode="&#x204;" horiz-adv-x="716" d="M-23 1806l48 60l350 -246l-45 -59zM109 0v1434h553v-72h-482v-608h422v-74h-422v-608h482v-72h-553zM328 1806l45 60l352 -246l-47 -59z" />
<glyph unicode="&#x205;" d="M18 1397l48 59l350 -246l-45 -59zM111 264v496q0 141 78.5 212.5t203.5 71.5t205 -71.5t80 -212.5v-283h-498v-213q0 -106 59.5 -159.5t153.5 -53.5q90 0 244 55v-75q-141 -51 -244 -51q-125 0 -203.5 71.5t-78.5 212.5zM180 547h426v213q0 106 -59.5 159.5t-153.5 53.5 t-153.5 -53.5t-59.5 -159.5v-213zM369 1397l45 59l352 -246l-47 -59z" />
<glyph unicode="&#x206;" horiz-adv-x="716" d="M109 0v1434h553v-72h-482v-608h422v-74h-422v-608h482v-72h-553zM109 1591q0 240 243 240q246 0 246 -240h-72q0 168 -174 168q-172 0 -172 -168h-71z" />
<glyph unicode="&#x207;" d="M111 264v496q0 141 78.5 212.5t203.5 71.5t205 -71.5t80 -212.5v-283h-498v-213q0 -106 59.5 -159.5t153.5 -53.5q90 0 244 55v-75q-141 -51 -244 -51q-125 0 -203.5 71.5t-78.5 212.5zM150 1182q0 240 243 239q246 1 246 -239h-72q0 168 -174 168q-172 0 -172 -168h-71z M180 547h426v213q0 106 -59.5 159.5t-153.5 53.5t-153.5 -53.5t-59.5 -159.5v-213z" />
<glyph unicode="&#x208;" horiz-adv-x="286" d="M-238 1806l48 60l350 -246l-45 -59zM106 0v1434h72v-1434h-72zM113 1806l45 60l352 -246l-47 -59z" />
<glyph unicode="&#x209;" horiz-adv-x="286" d="M-238 1397l48 59l350 -246l-45 -59zM106 0v1024h72v-1024h-72zM113 1397l45 59l352 -246l-47 -59z" />
<glyph unicode="&#x20a;" horiz-adv-x="286" d="M-106 1591q0 240 243 240q246 0 246 -240h-72q0 168 -174 168q-172 0 -172 -168h-71zM106 0v1434h72v-1434h-72z" />
<glyph unicode="&#x20b;" horiz-adv-x="286" d="M-106 1182q0 240 243 239q246 1 246 -239h-72q0 168 -174 168q-172 0 -172 -168h-71zM106 0v1024h72v-1024h-72z" />
<glyph unicode="&#x20c;" horiz-adv-x="860" d="M49 1806l47 60l350 -246l-45 -59zM109 297v840q0 156 89 236.5t228 80.5t227 -81t88 -236v-840q0 -156 -88 -236.5t-227 -80.5t-228 80.5t-89 236.5zM180 297q0 -123 67.5 -184.5t178.5 -61.5q109 0 176.5 61.5t67.5 184.5v840q0 123 -67.5 184t-176.5 61 q-111 0 -178.5 -61t-67.5 -184v-840zM399 1806l45 60l353 -246l-47 -59z" />
<glyph unicode="&#x20d;" d="M18 1397l48 59l350 -246l-45 -59zM111 264v496q0 141 78.5 212.5t203.5 71.5t205 -71.5t80 -212.5v-496q0 -141 -80 -212.5t-205 -71.5t-203.5 71.5t-78.5 212.5zM180 264q0 -106 59.5 -159.5t153.5 -53.5t153.5 53.5t59.5 159.5v496q0 106 -59.5 159.5t-153.5 53.5 t-153.5 -53.5t-59.5 -159.5v-496zM369 1397l45 59l352 -246l-47 -59z" />
<glyph unicode="&#x20e;" horiz-adv-x="860" d="M109 297v840q0 156 89 236.5t228 80.5t227 -81t88 -236v-840q0 -156 -88 -236.5t-227 -80.5t-228 80.5t-89 236.5zM180 297q0 -123 67.5 -184.5t178.5 -61.5q109 0 176.5 61.5t67.5 184.5v840q0 123 -67.5 184t-176.5 61q-111 0 -178.5 -61t-67.5 -184v-840zM180 1591 q0 240 244 240q246 0 246 -240h-72q0 168 -174 168q-172 0 -172 -168h-72z" />
<glyph unicode="&#x20f;" d="M111 264v496q0 141 78.5 212.5t203.5 71.5t205 -71.5t80 -212.5v-496q0 -141 -80 -212.5t-205 -71.5t-203.5 71.5t-78.5 212.5zM150 1182q0 240 243 239q246 1 246 -239h-72q0 168 -174 168q-172 0 -172 -168h-71zM180 264q0 -106 59.5 -159.5t153.5 -53.5t153.5 53.5 t59.5 159.5v496q0 106 -59.5 159.5t-153.5 53.5t-153.5 -53.5t-59.5 -159.5v-496z" />
<glyph unicode="&#x210;" horiz-adv-x="839" d="M39 1806l47 60l350 -246l-45 -59zM109 0v1434h280q147 0 240.5 -81t93.5 -235v-280q0 -240 -203 -301l250 -537h-78l-243 522q-20 -2 -60 -2h-207v-520h-73zM182 592h207q260 0 260 246v280q0 123 -71.5 183.5t-188.5 60.5h-207v-770zM389 1806l45 60l352 -246l-47 -59z " />
<glyph unicode="&#x211;" horiz-adv-x="419" d="M-170 1397l47 59l350 -246l-45 -59zM109 0v1024h69v-35q137 55 215 55v-71q-101 0 -215 -37v-936h-69zM180 1397l45 59l353 -246l-48 -59z" />
<glyph unicode="&#x212;" horiz-adv-x="839" d="M109 0v1434h280q147 0 240.5 -81t93.5 -235v-280q0 -240 -203 -301l250 -537h-78l-243 522q-20 -2 -60 -2h-207v-520h-73zM170 1591q0 240 244 240q245 0 245 -240h-71q0 168 -174 168q-172 0 -172 -168h-72zM182 592h207q260 0 260 246v280q0 123 -71.5 183.5 t-188.5 60.5h-207v-770z" />
<glyph unicode="&#x213;" horiz-adv-x="419" d="M-39 1182q0 240 244 239q246 1 246 -239h-72q0 168 -174 168q-172 0 -172 -168h-72zM109 0v1024h69v-35q137 55 215 55v-71q-101 0 -215 -37v-936h-69z" />
<glyph unicode="&#x214;" horiz-adv-x="839" d="M39 1806l47 60l350 -246l-45 -59zM109 297v1137h71v-1137q0 -123 64.5 -184.5t171 -61.5t170 61.5t63.5 184.5v1137h72v-1137q0 -158 -83 -237.5t-222.5 -79.5t-223 80.5t-83.5 236.5zM389 1806l45 60l352 -246l-47 -59z" />
<glyph unicode="&#x215;" d="M18 1397l48 59l350 -246l-45 -59zM111 264v760h69v-760q0 -106 59.5 -159.5t153.5 -53.5q96 0 213 35v938h72v-1024h-72v33q-135 -53 -213 -53q-125 0 -203.5 71.5t-78.5 212.5zM369 1397l45 59l352 -246l-47 -59z" />
<glyph unicode="&#x216;" horiz-adv-x="839" d="M109 297v1137h71v-1137q0 -123 64.5 -184.5t171 -61.5t170 61.5t63.5 184.5v1137h72v-1137q0 -158 -83 -237.5t-222.5 -79.5t-223 80.5t-83.5 236.5zM170 1591q0 240 244 240q245 0 245 -240h-71q0 168 -174 168q-172 0 -172 -168h-72z" />
<glyph unicode="&#x217;" d="M111 264v760h69v-760q0 -106 59.5 -159.5t153.5 -53.5q96 0 213 35v938h72v-1024h-72v33q-135 -53 -213 -53q-125 0 -203.5 71.5t-78.5 212.5zM150 1182q0 240 243 239q246 1 246 -239h-72q0 168 -174 168q-172 0 -172 -168h-71z" />
<glyph unicode="&#x218;" horiz-adv-x="860" d="M109 31v75q170 -55 317 -55q109 0 176.5 61.5t67.5 184.5v139q0 63 -18.5 108.5t-42 70t-62.5 40t-62.5 18.5t-60.5 7q-45 4 -79 10t-82 26.5t-78.5 52.5t-53 90.5t-22.5 137.5v140q0 156 89 236.5t228 80.5q126 0 276 -39v-76q-160 43 -276 43q-111 0 -178.5 -61 t-67.5 -184v-140q0 -63 18.5 -108t42 -69.5t63.5 -40t63.5 -18.5t60.5 -7q45 -4 79 -10.5t81 -27t77.5 -52t53 -90t22.5 -138.5v-139q0 -156 -88 -236.5t-227 -80.5q-154 0 -317 51zM356 -614h78q49 135 49 272v176h-110v-190h39q-4 -127 -56 -258z" />
<glyph unicode="&#x219;" d="M111 754q0 145 78.5 217.5t203.5 72.5q102 0 244 -51v-75q-154 55 -244 55q-94 0 -153.5 -54.5t-59.5 -164.5q0 -61 19.5 -103.5t56.5 -63t67.5 -28.5t71.5 -12q55 -4 96 -15.5t88.5 -38t73 -84t25.5 -139.5q0 -145 -79 -217.5t-206 -72.5q-131 0 -274 51v75 q155 -55 274 -55q94 0 153.5 54.5t59.5 164.5q0 61 -19.5 103.5t-56 63t-67.5 28.5t-72 12q-55 4 -96 15.5t-87 38t-71.5 84t-25.5 139.5zM326 -614q51 131 55 258h-39v190h111v-176q0 -137 -50 -272h-77z" />
<glyph unicode="&#x21e;" horiz-adv-x="839" d="M109 0v1434h71v-680h469v680h72v-1434h-72v680h-469v-680h-71zM162 1810l55 54l197 -199l198 199l56 -54l-254 -251z" />
<glyph unicode="&#x21f;" d="M111 0v1536h69v-541q129 49 213 49q125 0 205 -71.5t80 -212.5v-760h-72v760q0 106 -59.5 159.5t-153.5 53.5q-98 0 -213 -37v-936h-69zM246 1401l55 53l197 -199l198 199l56 -53l-254 -252z" />
<glyph unicode="&#x220;" d="M109 0v1024h71v-35q137 55 213 55q127 0 208 -68.5t81 -209.5v-1278h-72v1278q0 106 -59 156.5t-157.5 50.5t-213.5 -37v-936h-71z" />
<glyph unicode="&#x226;" horiz-adv-x="860" d="M45 0l344 1434h72l342 -1434h-78l-80 340h-442l-82 -340h-76zM219 412h408l-201 858zM393 1599v232h72v-232h-72z" />
<glyph unicode="&#x227;" d="M109 264h2v80q0 141 78.5 212t203.5 71h213v133q0 104 -59.5 158.5t-149.5 54.5q-94 0 -247 -55v75q143 51 249 51q121 0 200 -72.5t79 -211.5v-760h-72v29q-143 -49 -213 -49q-125 0 -204.5 71.5t-79.5 212.5zM180 264q0 -106 59.5 -159.5t153.5 -53.5q96 0 213 35v469 h-213q-94 0 -153.5 -53t-59.5 -158v-80zM362 1190v231h72v-231h-72z" />
<glyph unicode="&#x22e;" horiz-adv-x="860" d="M109 297v840q0 156 89 236.5t228 80.5t227 -81t88 -236v-840q0 -156 -88 -236.5t-227 -80.5t-228 80.5t-89 236.5zM180 297q0 -123 67.5 -184.5t178.5 -61.5q109 0 176.5 61.5t67.5 184.5v840q0 123 -67.5 184t-176.5 61q-111 0 -178.5 -61t-67.5 -184v-840zM393 1599 v232h72v-232h-72z" />
<glyph unicode="&#x22f;" d="M111 264v496q0 141 78.5 212.5t203.5 71.5t205 -71.5t80 -212.5v-496q0 -141 -80 -212.5t-205 -71.5t-203.5 71.5t-78.5 212.5zM180 264q0 -106 59.5 -159.5t153.5 -53.5t153.5 53.5t59.5 159.5v496q0 106 -59.5 159.5t-153.5 53.5t-153.5 -53.5t-59.5 -159.5v-496z M362 1190v231h72v-231h-72z" />
<glyph unicode="&#x230;" horiz-adv-x="860" d="M109 297v840q0 156 89 236.5t228 80.5t227 -81t88 -236v-840q0 -156 -88 -236.5t-227 -80.5t-228 80.5t-89 236.5zM150 1884v72h548v-72h-548zM180 297q0 -123 67.5 -184.5t178.5 -61.5q109 0 176.5 61.5t67.5 184.5v840q0 123 -67.5 184t-176.5 61q-111 0 -178.5 -61 t-67.5 -184v-840zM393 1559v231h72v-231h-72z" />
<glyph unicode="&#x231;" d="M111 264v496q0 141 78.5 212.5t203.5 71.5t205 -71.5t80 -212.5v-496q0 -141 -80 -212.5t-205 -71.5t-203.5 71.5t-78.5 212.5zM119 1475v71h549v-71h-549zM180 264q0 -106 59.5 -159.5t153.5 -53.5t153.5 53.5t59.5 159.5v496q0 106 -59.5 159.5t-153.5 53.5 t-153.5 -53.5t-59.5 -159.5v-496zM362 1149v231h72v-231h-72z" />
<glyph unicode="&#x232;" horiz-adv-x="860" d="M43 1434h76l307 -809l301 809h78l-344 -920v-514h-72v518zM150 1679v72h548v-72h-548z" />
<glyph unicode="&#x233;" d="M111 264v760h69v-760q0 -106 59.5 -159.5t153.5 -53.5q96 0 213 35v938h72v-1255q0 -141 -80 -213t-205 -72q-127 0 -274 49v78q155 -55 274 -55q94 0 153.5 53t59.5 160v264q-135 -53 -213 -53q-125 0 -203.5 71.5t-78.5 212.5zM119 1270v71h549v-71h-549z" />
<glyph unicode="&#x237;" horiz-adv-x="286" d="M-125 -444q100 0 164.5 53.5t64.5 159.5v1255h72v-1255q0 -141 -84 -213t-217 -72v72z" />
<glyph unicode="&#x2c6;" horiz-adv-x="716" d="M100 1202l252 252l254 -252l-55 -53l-199 199l-196 -199z" />
<glyph unicode="&#x2c7;" horiz-adv-x="716" d="M100 1401l56 53l196 -199l199 199l55 -53l-254 -252z" />
<glyph unicode="&#x2d8;" horiz-adv-x="716" d="M109 1421h71q0 -170 172 -170q174 0 174 170h72q0 -240 -246 -239q-244 0 -243 239z" />
<glyph unicode="&#x2d9;" horiz-adv-x="286" d="M106 1190v231h72v-231h-72z" />
<glyph unicode="&#x2da;" horiz-adv-x="532" d="M109 1307q0 63 45 108t108.5 45t109.5 -45t46 -108q0 -66 -45 -111t-111 -45q-63 0 -108 45t-45 111zM178 1307q0 -37 24.5 -60.5t59.5 -23.5t59.5 23.5t24.5 60.5q0 35 -24.5 58.5t-59.5 23.5t-59.5 -23.5t-24.5 -58.5z" />
<glyph unicode="&#x2db;" horiz-adv-x="518" d="M117 -180q0 31 13 58.5t26.5 43t47.5 35.5t45 25.5t50 23.5l-2 2l78 33v-74l-64 -28h2l-12 -7q-113 -53 -113 -112q0 -39 22.5 -60.5t57.5 -21.5q43 0 146 37v-78q-78 -31 -145.5 -31t-109.5 38t-42 116z" />
<glyph unicode="&#x2dc;" horiz-adv-x="716" d="M84 1190q0 133 34 187.5t103 54.5q25 0 42.5 -8.5t29.5 -27t19 -32.5t16 -39q29 -74 63 -74q41 0 53.5 35t12.5 135h71q0 -131 -32.5 -185t-104.5 -54q-39 0 -65.5 20.5t-36.5 40t-25 55.5q-20 62 -43 62q-39 0 -52 -36t-13 -134h-72z" />
<glyph unicode="&#x2dd;" horiz-adv-x="966" d="M102 1210l353 246l45 -59l-350 -246zM453 1210l350 246l47 -59l-352 -246z" />
<glyph unicode="&#x300;" horiz-adv-x="606" d="M100 1397l45 59l353 -246l-47 -59z" />
<glyph unicode="&#x301;" horiz-adv-x="606" d="M100 1210l351 246l47 -59l-353 -246z" />
<glyph unicode="&#x302;" horiz-adv-x="716" d="M100 1202l252 252l254 -252l-55 -53l-199 199l-196 -199z" />
<glyph unicode="&#x303;" horiz-adv-x="671" d="M109 1190q0 133 32.5 187.5t104.5 54.5q25 0 42 -8.5t29.5 -27t19.5 -32.5t15 -39q29 -74 64 -74q39 0 52 36t13 134h72q0 -131 -33 -185t-104 -54q-39 0 -65.5 20.5t-37 40t-24.5 55.5q-2 4 -5 11.5t-4 11.5t-4.5 10t-5.5 9l-5 8l-5 7q-2 3 -6 4t-8 1q-39 0 -52.5 -36 t-13.5 -134h-71z" />
<glyph unicode="&#x304;" horiz-adv-x="778" d="M109 1270v71h548v-71h-548z" />
<glyph unicode="&#x306;" horiz-adv-x="716" d="M109 1421h71q0 -170 172 -170q174 0 174 170h72q0 -240 -246 -239q-244 0 -243 239z" />
<glyph unicode="&#x307;" horiz-adv-x="286" d="M106 1190v231h72v-231h-72z" />
<glyph unicode="&#x308;" horiz-adv-x="573" d="M109 1190v231h71v-231h-71zM385 1190v231h72v-231h-72z" />
<glyph unicode="&#x309;" horiz-adv-x="532" d="M109 1311q0 70 43 109.5t110.5 39.5t111.5 -35.5t44 -99.5q0 -57 -39 -94t-100 -41v-78h-72v150h55q84 0 84 63.5t-84 63.5t-84 -78h-69z" />
<glyph unicode="&#x30a;" horiz-adv-x="532" d="M109 1307q0 63 45 108t108.5 45t109.5 -45t46 -108q0 -66 -45 -111t-111 -45q-63 0 -108 45t-45 111zM178 1307q0 -37 24.5 -60.5t59.5 -23.5t59.5 23.5t24.5 60.5q0 35 -24.5 58.5t-59.5 23.5t-59.5 -23.5t-24.5 -58.5z" />
<glyph unicode="&#x30b;" horiz-adv-x="966" d="M102 1210l353 246l45 -59l-350 -246zM453 1210l350 246l47 -59l-352 -246z" />
<glyph unicode="&#x30c;" horiz-adv-x="716" d="M100 1401l56 53l196 -199l199 199l55 -53l-254 -252z" />
<glyph unicode="&#x30f;" horiz-adv-x="966" d="M102 1397l48 59l350 -246l-45 -59zM453 1397l45 59l352 -246l-47 -59z" />
<glyph unicode="&#x310;" horiz-adv-x="716" d="M109 1421q0 -240 243 -239q246 -1 246 239h-72q0 -170 -174 -170q-172 0 -172 170h-71zM322 1395v231h71v-231h-71z" />
<glyph unicode="&#x311;" horiz-adv-x="716" d="M109 1182q0 240 243 239q246 1 246 -239h-72q0 168 -174 168q-172 0 -172 -168h-71z" />
<glyph unicode="&#x316;" horiz-adv-x="606" d="M100 -190l45 59l353 -246l-47 -59z" />
<glyph unicode="&#x317;" horiz-adv-x="606" d="M100 -377l351 246l47 -59l-353 -246z" />
<glyph unicode="&#x323;" horiz-adv-x="286" d="M106 -166h72v-231h-72v231z" />
<glyph unicode="&#x324;" horiz-adv-x="573" d="M109 -166h71v-231h-71v231zM385 -166h72v-231h-72v231z" />
<glyph unicode="&#x325;" horiz-adv-x="532" d="M109 -283q0 66 45 111t108 45q66 0 111 -45t45 -111q0 -63 -46 -108t-109.5 -45t-108.5 45t-45 108zM178 -283q0 -35 24.5 -58.5t59.5 -23.5t59.5 24t24.5 58q0 37 -24.5 60.5t-59.5 23.5t-59.5 -23.5t-24.5 -60.5z" />
<glyph unicode="&#x32c;" horiz-adv-x="716" d="M100 -186l56 53l196 -199l199 199l55 -53l-254 -252z" />
<glyph unicode="&#x32d;" horiz-adv-x="716" d="M100 -385l252 252l254 -252l-55 -53l-199 198l-196 -198z" />
<glyph unicode="&#x32e;" horiz-adv-x="716" d="M109 -166h71q0 -170 172 -170q174 0 174 170h72q0 -242 -246 -242q-244 0 -243 242z" />
<glyph unicode="&#x32f;" horiz-adv-x="716" d="M109 -408q0 242 243 242q246 0 246 -242h-72q0 170 -174 170q-172 0 -172 -170h-71z" />
<glyph unicode="&#x330;" horiz-adv-x="671" d="M109 -397q0 131 32.5 185t104.5 54q25 0 42 -8t29.5 -26.5t18.5 -32t16 -37.5q29 -74 64 -74q39 0 52 36t13 134h72q0 -133 -33 -187.5t-104 -54.5q-39 0 -65.5 20.5t-37 41t-24.5 57.5q-2 4 -5 11.5t-4 11.5t-4.5 10t-5.5 9t-5 7t-5 7.5t-6 4.5t-8 1q-39 0 -52.5 -36 t-13.5 -134h-71z" />
<glyph unicode="&#x331;" horiz-adv-x="778" d="M109 -246h548v-71h-548v71z" />
<glyph unicode="&#x400;" horiz-adv-x="778" d="M109 0v1434h553v-72h-482v-608h422v-74h-422v-608h482v-72h-553zM186 1806l45 60l353 -246l-47 -59z" />
<glyph unicode="&#x401;" horiz-adv-x="778" d="M109 0v1434h553v-72h-482v-608h422v-74h-422v-608h482v-72h-553zM211 1599v232h72v-232h-72zM487 1599v232h72v-232h-72z" />
<glyph unicode="&#x402;" horiz-adv-x="1024" d="M49 1362v72h633v-72h-281v-365q137 55 215 56q127 0 207 -73t80 -214v-479q0 -141 -85 -214t-218 -73v72q102 0 166.5 54t64.5 161v479q0 106 -59 160.5t-156 54.5q-101 0 -215 -37v-944h-71v1362h-281z" />
<glyph unicode="&#x403;" horiz-adv-x="716" d="M109 0v1434h553v-72h-482v-1362h-71zM258 1620l350 246l47 -60l-352 -245z" />
<glyph unicode="&#x404;" horiz-adv-x="778" d="M109 297v840q0 156 89 236.5t228 80.5q133 0 276 -51v-78q-154 57 -276 57q-111 0 -178.5 -61t-67.5 -184v-383h422v-74h-422v-383q0 -123 67.5 -184.5t178.5 -61.5q123 0 276 58v-78q-143 -51 -276 -51q-139 0 -228 80.5t-89 236.5z" />
<glyph unicode="&#x405;" horiz-adv-x="860" d="M109 31v75q170 -55 317 -55q109 0 176.5 61.5t67.5 184.5v139q0 63 -18.5 108.5t-42 70t-62.5 40t-62.5 18.5t-60.5 7q-45 4 -79 10t-82 26.5t-78.5 52.5t-53 90.5t-22.5 137.5v140q0 156 89 236.5t228 80.5q126 0 276 -39v-76q-160 43 -276 43q-111 0 -178.5 -61 t-67.5 -184v-140q0 -63 18.5 -108t42 -69.5t63.5 -40t63.5 -18.5t60.5 -7q45 -4 79 -10.5t81 -27t77.5 -52t53 -90t22.5 -138.5v-139q0 -156 -88 -236.5t-227 -80.5q-154 0 -317 51z" />
<glyph unicode="&#x406;" horiz-adv-x="286" d="M106 0v1434h72v-1434h-72z" />
<glyph unicode="&#x407;" horiz-adv-x="286" d="M-35 1599v232h72v-232h-72zM106 0v1434h72v-1434h-72zM242 1599v232h71v-232h-71z" />
<glyph unicode="&#x408;" horiz-adv-x="757" d="M49 31v78q150 -58 275 -58q111 0 178 61.5t67 184.5v1137h72v-1137q0 -156 -89 -236.5t-228 -80.5q-133 0 -275 51z" />
<glyph unicode="&#x409;" horiz-adv-x="1191" d="M51 0v72q61 0 64 49l80 1313h452v-521h129q43 0 82 -6t87 -26.5t82 -53t57.5 -92t23.5 -139.5v-281q0 -154 -93 -234.5t-239 -80.5h-201v1362h-311l-78 -1241q-4 -59 -41 -90t-94 -31zM647 72h129q115 0 187.5 60.5t72.5 182.5v281q0 246 -260 246h-129v-770z" />
<glyph unicode="&#x40a;" horiz-adv-x="1187" d="M111 0v1434h71v-680h389v680h72v-521h129q43 0 83 -6t87 -26.5t81 -53t57.5 -92t23.5 -139.5v-281q0 -154 -93 -234.5t-239 -80.5h-201v680h-389v-680h-71zM643 72h129q115 0 187.5 60.5t72.5 182.5v281q0 246 -260 246h-129v-770z" />
<glyph unicode="&#x40b;" horiz-adv-x="1024" d="M49 1362v72h633v-72h-281v-365q137 55 215 56q127 0 207 -73t80 -214v-766h-72v766q0 106 -59 160.5t-156 54.5q-101 0 -215 -37v-944h-71v1362h-281z" />
<glyph unicode="&#x40c;" horiz-adv-x="839" d="M109 0v1434h73v-680h221l316 680h78l-334 -717l336 -717h-78l-318 680h-221v-680h-73zM299 1620l350 246l47 -60l-352 -245z" />
<glyph unicode="&#x40d;" horiz-adv-x="839" d="M109 0v1434h71v-1213q387 983 475 1213h66v-1434h-72v1212l-473 -1212h-67zM217 1806l45 60l352 -246l-47 -59z" />
<glyph unicode="&#x40e;" horiz-adv-x="860" d="M45 1434h76l274 -1108l332 1108h78l-397 -1317q-18 -63 -48 -90t-90 -27v72q52 0 66 53l18 59zM180 1831h72q0 -170 172 -170q174 0 174 170h72q0 -240 -246 -240q-244 0 -244 240z" />
<glyph unicode="&#x40f;" horiz-adv-x="839" d="M109 0v1434h71v-1362h469v1362h72v-1434h-270v-401h-72v401h-270z" />
<glyph unicode="&#x410;" horiz-adv-x="860" d="M45 0l344 1434h72l342 -1434h-78l-80 340h-442l-82 -340h-76zM219 412h408l-201 858z" />
<glyph unicode="&#x411;" horiz-adv-x="778" d="M109 0v1434h553v-72h-482v-449h209v2q49 -4 84 -11t86 -27.5t83 -52t55.5 -90t23.5 -138.5v-281q0 -154 -93 -234.5t-239 -80.5h-280zM180 72h209q115 0 187.5 60.5t72.5 182.5v281q0 78 -25.5 130t-72.5 74.5t-80 31t-82 12.5v-2h-209v-770z" />
<glyph unicode="&#x412;" horiz-adv-x="839" d="M109 0v1434h280q145 0 238.5 -81t93.5 -235v-121q0 -213 -164 -280q164 -68 164 -281v-121q0 -154 -93.5 -234.5t-238.5 -80.5h-280zM180 72h209q117 0 188.5 60.5t71.5 182.5v121q0 63 -19.5 109.5t-44 70t-66.5 39t-65.5 18.5t-64.5 7h-209v-608zM180 754h209 q41 4 64.5 7t65.5 18.5t66.5 39t44 69.5t19.5 109v121q0 123 -71.5 183.5t-188.5 60.5h-209v-608z" />
<glyph unicode="&#x413;" horiz-adv-x="716" d="M109 0v1434h553v-72h-482v-1362h-71z" />
<glyph unicode="&#x414;" horiz-adv-x="901" d="M29 72h57q61 0 64 49l79 1313h533v-1362h100v-373h-71v301h-691v-301h-71v373zM209 72h481v1290h-391l-78 -1241q-3 -28 -12 -49z" />
<glyph unicode="&#x415;" horiz-adv-x="778" d="M109 0v1434h553v-72h-482v-608h422v-74h-422v-608h482v-72h-553z" />
<glyph unicode="&#x416;" horiz-adv-x="1163" d="M43 0l334 717q-53 115 -166 358.5t-166 358.5h78l311 -680h105v680h73v-680h103l313 680h78l-332 -717l334 -717h-78l-315 680h-103v-680h-73v680h-105l-313 -680h-78z" />
<glyph unicode="&#x417;" horiz-adv-x="819" d="M109 18v76q159 -43 276 -43q109 0 176.5 61.5t67.5 184.5v139q0 63 -19.5 109.5t-44 69t-67.5 38t-65.5 18.5t-63.5 7v74q49 4 81.5 11t80 30.5t73 75t25.5 128.5v140q0 123 -67.5 184t-176.5 61q-117 0 -276 -43v76q150 39 276 39q139 0 228 -81t89 -236v-109 q0 -262 -260 -311q53 -6 92 -18.5t81 -41t64.5 -84t22.5 -137.5v-139q0 -156 -89 -236.5t-228 -80.5q-127 0 -276 38z" />
<glyph unicode="&#x418;" horiz-adv-x="839" d="M109 0v1434h71v-1213q387 983 475 1213h66v-1434h-72v1212l-473 -1212h-67z" />
<glyph unicode="&#x419;" horiz-adv-x="839" d="M109 0v1434h71v-1213q387 983 475 1213h66v-1434h-72v1212l-473 -1212h-67zM170 1831h72q0 -170 172 -170q174 0 174 170h71q0 -240 -245 -240q-244 0 -244 240z" />
<glyph unicode="&#x41a;" horiz-adv-x="839" d="M109 0v1434h73v-680h221l316 680h78l-334 -717l336 -717h-78l-318 680h-221v-680h-73z" />
<glyph unicode="&#x41b;" horiz-adv-x="843" d="M49 0v72q61 0 64 49l80 1313h532v-1434h-72v1362h-391l-78 -1241q-4 -59 -41 -90t-94 -31z" />
<glyph unicode="&#x41c;" horiz-adv-x="1095" d="M104 1434h78l363 -977l356 977h80l-4 -13v-1421h-72v1227l-325 -887h-68l-334 895v-1235h-72v1427z" />
<glyph unicode="&#x41d;" horiz-adv-x="839" d="M109 0v1434h71v-680h469v680h72v-1434h-72v680h-469v-680h-71z" />
<glyph unicode="&#x41e;" horiz-adv-x="860" d="M109 297v840q0 156 89 236.5t228 80.5t227 -81t88 -236v-840q0 -156 -88 -236.5t-227 -80.5t-228 80.5t-89 236.5zM180 297q0 -123 67.5 -184.5t178.5 -61.5q109 0 176.5 61.5t67.5 184.5v840q0 123 -67.5 184t-176.5 61q-111 0 -178.5 -61t-67.5 -184v-840z" />
<glyph unicode="&#x41f;" horiz-adv-x="839" d="M109 0v1434h612v-1434h-72v1362h-469v-1362h-71z" />
<glyph unicode="&#x420;" horiz-adv-x="778" d="M109 0v1434h280h12h21v-2q133 -8 216 -88t83 -226v-280q0 -90 -27.5 -153.5t-77 -95.5t-93.5 -46.5t-101 -22.5h-14q-6 -2 -19 -2v2h-209v-520h-71zM180 592h232q45 4 78.5 14t73.5 35t62.5 75t22.5 122v280q0 123 -71.5 183.5t-188.5 60.5h-209v-770z" />
<glyph unicode="&#x421;" horiz-adv-x="778" d="M109 297v840q0 156 89 236.5t228 80.5q133 0 276 -51v-78q-154 57 -276 57q-111 0 -178.5 -61t-67.5 -184v-840q0 -123 67.5 -184.5t178.5 -61.5q123 0 276 58v-78q-143 -51 -276 -51q-139 0 -228 80.5t-89 236.5z" />
<glyph unicode="&#x422;" horiz-adv-x="737" d="M49 1362v72h633v-72h-281v-1362h-71v1362h-281z" />
<glyph unicode="&#x423;" horiz-adv-x="860" d="M45 1434h76l274 -1108l332 1108h78l-397 -1317q-18 -63 -48 -90t-90 -27v72q52 0 66 53l18 59z" />
<glyph unicode="&#x424;" horiz-adv-x="1146" d="M111 578v278q0 156 93 237t238 81h88v260h74v-260h88q145 0 238.5 -81t93.5 -237v-278q0 -80 -23.5 -138.5t-56.5 -90.5t-84 -52.5t-85 -27.5t-83 -11h-88v-258h-74v258h-88q-49 4 -82.5 11t-85 27.5t-84 52.5t-56 90.5t-23.5 138.5zM182 578q0 -78 25.5 -130.5t73 -75 t80 -30.5t81.5 -12h88v772h-88q-115 0 -187.5 -61.5t-72.5 -184.5v-278zM604 330h88q49 4 82 12t80 30.5t72.5 75t25.5 130.5v278q0 123 -72.5 184.5t-187.5 61.5h-88v-772z" />
<glyph unicode="&#x425;" horiz-adv-x="860" d="M51 1434h78l297 -635l291 635h80l-334 -717l336 -717h-80l-293 633l-295 -633h-78l334 717z" />
<glyph unicode="&#x426;" horiz-adv-x="839" d="M111 0v1434h71v-1362h467v1362h74v-1362h100v-373h-73v301h-639z" />
<glyph unicode="&#x427;" horiz-adv-x="778" d="M49 838v596h72v-596q0 -246 244 -246q113 0 225 29v813h72v-1434h-72v545q-115 -25 -225 -25q-41 0 -79 6t-83 26.5t-78 53.5t-54.5 92.5t-21.5 139.5z" />
<glyph unicode="&#x428;" horiz-adv-x="1167" d="M111 0v1434h71v-1362h359v1362h73v-1362h359v1362h71v-1434h-933z" />
<glyph unicode="&#x429;" horiz-adv-x="1167" d="M111 0v1434h73v-1362h359v1362h71v-1362h359v1362h71v-1362h101v-373h-72v301h-962z" />
<glyph unicode="&#x42a;" horiz-adv-x="880" d="M8 1362v72h252v-521h209q43 0 83 -6t87 -26.5t81 -53t57.5 -92t23.5 -139.5v-281q0 -154 -93.5 -234.5t-238.5 -80.5h-281v1362h-180zM260 72h209q117 0 188.5 60.5t71.5 182.5v281q0 246 -260 246h-209v-770z" />
<glyph unicode="&#x42b;" horiz-adv-x="1064" d="M111 0v1434h71v-521h209q43 0 82 -6t87 -26.5t82 -53t57.5 -92t23.5 -139.5v-281q0 -154 -93 -234.5t-239 -80.5h-280zM182 72h209q115 0 187.5 60.5t72.5 182.5v281q0 246 -260 246h-209v-770zM870 0v1434h74v-1434h-74z" />
<glyph unicode="&#x42c;" d="M109 0v1434h71v-521h209q43 0 83 -6t87 -26.5t81 -53t57.5 -92t23.5 -139.5v-281q0 -154 -93 -234.5t-239 -80.5h-280zM180 72h209q117 0 188.5 60.5t71.5 182.5v281q0 246 -260 246h-209v-770z" />
<glyph unicode="&#x42d;" horiz-adv-x="778" d="M68 31v78q154 -57 276 -58q111 0 178.5 61.5t67.5 184.5v383h-422v74h422v383q0 123 -67.5 184t-178.5 61q-123 0 -276 -57v78q143 51 276 51q139 0 228.5 -81t89.5 -236v-840q0 -156 -89.5 -236.5t-228.5 -80.5q-133 0 -276 51z" />
<glyph unicode="&#x42e;" horiz-adv-x="1146" d="M111 0v1434h71v-680h209v383q0 156 88 236.5t227.5 80.5t228.5 -81t89 -236v-840q0 -156 -89 -236.5t-228.5 -80.5t-227.5 80.5t-88 236.5v383h-209v-680h-71zM463 297q0 -123 67.5 -184.5t176.5 -61.5q111 0 178 61.5t67 184.5v840q0 123 -67.5 184t-177.5 61 q-109 0 -176.5 -61t-67.5 -184v-840z" />
<glyph unicode="&#x42f;" horiz-adv-x="839" d="M61 0l250 537q-203 61 -202 301v280q0 154 93 235t238 81h281v-1434h-72v520h-209q-39 0 -59 2l-242 -522h-78zM180 838q0 -246 260 -246h209v770h-209q-115 0 -187.5 -60.5t-72.5 -183.5v-280z" />
<glyph unicode="&#x430;" d="M109 264h2v80q0 141 78.5 212t203.5 71h213v133q0 104 -59.5 158.5t-149.5 54.5q-94 0 -247 -55v75q143 51 249 51q121 0 200 -72.5t79 -211.5v-760h-72v29q-143 -49 -213 -49q-125 0 -204.5 71.5t-79.5 212.5zM180 264q0 -106 59.5 -159.5t153.5 -53.5q96 0 213 35v469 h-213q-94 0 -153.5 -53t-59.5 -158v-80z" />
<glyph unicode="&#x431;" d="M111 264v973q0 141 78.5 212t203.5 71q90 0 244 55v-76q-141 -51 -244 -51q-94 0 -153.5 -53.5t-59.5 -157.5v-248q137 55 213 55q125 0 205 -71.5t80 -212.5v-496q0 -141 -80 -212.5t-205 -71.5t-203.5 71.5t-78.5 212.5zM180 264q0 -106 59.5 -159.5t153.5 -53.5 t153.5 53.5t59.5 159.5v496q0 106 -59.5 159.5t-153.5 53.5q-98 0 -213 -37v-672z" />
<glyph unicode="&#x432;" horiz-adv-x="755" d="M111 0v1024h237q137 0 232.5 -72.5t95.5 -206.5q0 -170 -152 -233q152 -63 152 -236q0 -133 -95.5 -204.5t-232.5 -71.5h-237zM180 72h168q109 0 182.5 51t73.5 151q0 51 -20.5 90t-44 58.5t-67.5 32t-63.5 15.5t-60.5 7h-168v-405zM180 547h168q41 4 60.5 7t63.5 15.5 t67.5 32t44 57.5t20.5 89q0 100 -73.5 152t-182.5 52h-168v-405z" />
<glyph unicode="&#x433;" horiz-adv-x="634" d="M109 0v1024h469v-72h-398v-952h-71z" />
<glyph unicode="&#x434;" horiz-adv-x="819" d="M31 72h55q61 0 64 47l81 905h447v-952h98v-369h-71v297h-603v-297h-71v369zM211 72h395v880h-307l-78 -835q-2 -23 -10 -45z" />
<glyph unicode="&#x435;" d="M111 264v496q0 141 78.5 212.5t203.5 71.5t205 -71.5t80 -212.5v-283h-498v-213q0 -106 59.5 -159.5t153.5 -53.5q90 0 244 55v-75q-141 -51 -244 -51q-125 0 -203.5 71.5t-78.5 212.5zM180 547h426v213q0 106 -59.5 159.5t-153.5 53.5t-153.5 -53.5t-59.5 -159.5v-213z " />
<glyph unicode="&#x436;" horiz-adv-x="1056" d="M63 0l242 512l-239 512h77l219 -477h123v477h72v-477h121l219 477h78l-238 -512l240 -512h-78l-221 477h-121v-477h-72v477h-123l-221 -477h-78z" />
<glyph unicode="&#x437;" horiz-adv-x="788" d="M111 31v75q154 -55 272 -55q94 0 153.5 54.5t59.5 164.5q0 117 -64.5 162t-150.5 45h-23v70q45 4 76 12t71 28.5t60.5 62.5t20.5 104q0 111 -58.5 165t-154.5 54q-88 0 -244 -55v75q143 51 244 51q127 0 205.5 -72.5t78.5 -217.5q0 -193 -168 -238q178 -35 179 -246 q0 -145 -79 -217.5t-206 -72.5q-131 0 -272 51z" />
<glyph unicode="&#x438;" d="M111 0v1024h69v-852q70 141 215.5 426t216.5 426h66v-1024h-72v852q-57 -113 -204.5 -403.5t-225.5 -448.5h-65z" />
<glyph unicode="&#x439;" d="M111 0v1024h69v-852q70 141 215.5 426t216.5 426h66v-1024h-72v852q-57 -113 -204.5 -403.5t-225.5 -448.5h-65zM150 1421h71q0 -170 172 -170q174 0 174 170h72q0 -240 -246 -239q-244 0 -243 239z" />
<glyph unicode="&#x43a;" horiz-adv-x="753" d="M111 0v1024h69v-477h203l219 477h78l-240 -512l242 -512h-78l-221 477h-203v-477h-69z" />
<glyph unicode="&#x43b;" horiz-adv-x="802" d="M49 -20v71q61 0 64 47l82 926h485v-1024h-70v952h-348l-78 -856q-4 -57 -41 -86.5t-94 -29.5z" />
<glyph unicode="&#x43c;" horiz-adv-x="1050" d="M106 0v1024h76l338 -907l332 907h80v-1024h-72v829l-305 -829h-66l-313 838v-838h-70z" />
<glyph unicode="&#x43d;" d="M111 0v1024h69v-477h426v477h72v-1024h-72v477h-426v-477h-69z" />
<glyph unicode="&#x43e;" d="M111 264v496q0 141 78.5 212.5t203.5 71.5t205 -71.5t80 -212.5v-496q0 -141 -80 -212.5t-205 -71.5t-203.5 71.5t-78.5 212.5zM180 264q0 -106 59.5 -159.5t153.5 -53.5t153.5 53.5t59.5 159.5v496q0 106 -59.5 159.5t-153.5 53.5t-153.5 -53.5t-59.5 -159.5v-496z" />
<glyph unicode="&#x43f;" d="M111 0v1024h567v-1024h-72v952h-426v-952h-69z" />
<glyph unicode="&#x440;" d="M111 -496v1520h69v-29q129 49 213 49q125 0 205 -71.5t80 -212.5v-496q0 -141 -80 -212.5t-205 -71.5q-80 0 -213 47v-523h-69zM180 86q117 -35 213 -35q94 0 153.5 53.5t59.5 159.5v496q0 106 -59.5 159.5t-153.5 53.5q-98 0 -213 -37v-850z" />
<glyph unicode="&#x441;" horiz-adv-x="757" d="M109 264v496q0 141 79.5 212.5t204.5 71.5q102 0 244 -51v-75q-154 55 -244 55q-94 0 -153.5 -53.5t-59.5 -159.5v-496q0 -106 59.5 -159.5t153.5 -53.5q90 0 244 55v-75q-141 -51 -244 -51q-125 0 -204.5 71.5t-79.5 212.5z" />
<glyph unicode="&#x442;" horiz-adv-x="737" d="M49 952v72h627v-72h-277v-952h-71v952h-279z" />
<glyph unicode="&#x443;" d="M111 264v760h69v-760q0 -106 59.5 -159.5t153.5 -53.5q96 0 213 35v938h72v-1255q0 -141 -80 -213t-205 -72q-127 0 -274 49v78q155 -55 274 -55q94 0 153.5 53t59.5 160v264q-135 -53 -213 -53q-125 0 -203.5 71.5t-78.5 212.5z" />
<glyph unicode="&#x444;" horiz-adv-x="1064" d="M113 313v398q0 154 91 233.5t236 79.5h49v496h72v-496h47q145 0 237.5 -80t92.5 -233v-398q0 -96 -33 -163.5t-88 -97t-104 -41t-105 -11.5h-47v-496h-72v496h-49q-55 0 -104 11.5t-103.5 41t-87 97t-32.5 163.5zM182 313q0 -241 258 -241h49v880h-49 q-115 0 -186.5 -60.5t-71.5 -180.5v-398zM561 72h47q258 0 258 241v398q0 121 -71.5 181t-186.5 60h-47v-880z" />
<glyph unicode="&#x445;" horiz-adv-x="729" d="M37 0l280 512l-280 512h82l239 -438l240 438h80l-281 -512l283 -512h-80l-242 438l-239 -438h-82z" />
<glyph unicode="&#x446;" d="M111 0v1024h71v-952h424v952h72v-952h100v-369h-71v297h-596z" />
<glyph unicode="&#x447;" d="M111 641v383h69v-383q0 -106 59.5 -159.5t153.5 -53.5t153.5 58.5t59.5 170.5v367h72v-1024h-72v455q-68 -98 -213 -99q-125 0 -203.5 72t-78.5 213z" />
<glyph unicode="&#x448;" horiz-adv-x="1085" d="M113 0v1024h71v-952h316v952h69v-952h318v952h69v-1024h-843z" />
<glyph unicode="&#x449;" horiz-adv-x="1085" d="M113 0v1024h71v-952h316v952h71v-952h316v952h71v-952h99v-369h-72v297h-872z" />
<glyph unicode="&#x44a;" d="M10 952v72h250v-317h127q53 0 83 -2.5t84 -15.5t84 -39.5t54.5 -82t24.5 -135.5v-158q0 -274 -330 -274h-199v952h-178zM260 72h127q123 0 190.5 43t67.5 159v158q0 59 -16.5 100t-37 60.5t-58 30t-58 11.5t-57.5 1h-158v-563z" />
<glyph unicode="&#x44b;" horiz-adv-x="962" d="M111 0v1024h71v-317h127q53 0 83 -2.5t84 -15.5t84 -39.5t54.5 -82t24.5 -135.5v-158q0 -274 -330 -274h-198zM182 72h127q123 0 190.5 43t67.5 159v158q0 59 -16 100t-36.5 60.5t-58.5 30t-58.5 11.5t-57.5 1h-158v-563zM766 0v1024h72v-1024h-72z" />
<glyph unicode="&#x44c;" horiz-adv-x="716" d="M109 0v1024h71v-317h127q53 0 83 -2.5t84 -15.5t84 -39.5t54.5 -82t24.5 -135.5v-158q0 -274 -330 -274h-198zM180 72h127q123 0 190.5 43t67.5 159v158q0 59 -16.5 100t-36.5 60.5t-58 30t-58.5 11.5t-57.5 1h-158v-563z" />
<glyph unicode="&#x44d;" horiz-adv-x="757" d="M109 31v75q156 -55 245 -55q94 0 152.5 53.5t58.5 159.5v213h-377v70h377v213q0 106 -58.5 159.5t-152.5 53.5q-90 0 -245 -55v75q143 51 245 51q125 0 204 -71.5t79 -212.5v-496q0 -141 -79 -212.5t-204 -71.5q-102 0 -245 51z" />
<glyph unicode="&#x44e;" horiz-adv-x="1054" d="M113 0v1024h69v-477h178v213q0 141 79 212.5t204 71.5t205 -71.5t80 -212.5v-496q0 -141 -80 -212.5t-205 -71.5t-204 71.5t-79 212.5v213h-178v-477h-69zM432 264q0 -106 58.5 -159.5t152.5 -53.5t153.5 53.5t59.5 159.5v496q0 106 -59.5 159.5t-153.5 53.5 t-152.5 -53.5t-58.5 -159.5v-496z" />
<glyph unicode="&#x44f;" horiz-adv-x="800" d="M111 592v158q0 274 327 274h240v-1024h-72v317h-168h-59l-146 -317h-77l149 326q-195 35 -194 266zM180 592q0 -59 16.5 -100t37 -60.5t58.5 -30t58.5 -11.5t59.5 -1h28h168v563h-168q-123 0 -190.5 -43t-67.5 -159v-158z" />
<glyph unicode="&#x450;" d="M111 264v496q0 141 78.5 212.5t203.5 71.5t205 -71.5t80 -212.5v-283h-498v-213q0 -106 59.5 -159.5t153.5 -53.5q90 0 244 55v-75q-141 -51 -244 -51q-125 0 -203.5 71.5t-78.5 212.5zM180 547h426v213q0 106 -59.5 159.5t-153.5 53.5t-153.5 -53.5t-59.5 -159.5v-213z M197 1397l45 59l352 -246l-47 -59z" />
<glyph unicode="&#x451;" d="M111 264v496q0 141 78.5 212.5t203.5 71.5t205 -71.5t80 -212.5v-283h-498v-213q0 -106 59.5 -159.5t153.5 -53.5q90 0 244 55v-75q-141 -51 -244 -51q-125 0 -203.5 71.5t-78.5 212.5zM180 547h426v213q0 106 -59.5 159.5t-153.5 53.5t-153.5 -53.5t-59.5 -159.5v-213z M221 1190v231h72v-231h-72zM498 1190v231h71v-231h-71z" />
<glyph unicode="&#x452;" horiz-adv-x="1024" d="M51 1350v71h279v99h71v-99h277v-71h-277v-361q137 55 211 55q125 0 205 -71.5t80 -212.5v-475q0 -141 -83 -213t-216 -72v72q100 0 163.5 53t63.5 160v475q0 106 -59 159.5t-154 53.5q-96 0 -211 -35v-938h-71v1350h-279z" />
<glyph unicode="&#x453;" horiz-adv-x="634" d="M109 0v1024h469v-72h-398v-952h-71zM197 1210l350 246l47 -59l-352 -246z" />
<glyph unicode="&#x454;" horiz-adv-x="757" d="M109 264v496q0 141 79.5 212.5t204.5 71.5q102 0 244 -51v-75q-154 55 -244 55q-94 0 -153.5 -53.5t-59.5 -159.5v-213h377v-70h-377v-213q0 -106 59.5 -159.5t153.5 -53.5q90 0 244 55v-75q-141 -51 -244 -51q-125 0 -204.5 71.5t-79.5 212.5z" />
<glyph unicode="&#x455;" d="M111 754q0 145 78.5 217.5t203.5 72.5q102 0 244 -51v-75q-154 55 -244 55q-94 0 -153.5 -54.5t-59.5 -164.5q0 -61 19.5 -103.5t56.5 -63t67.5 -28.5t71.5 -12q55 -4 96 -15.5t88.5 -38t73 -84t25.5 -139.5q0 -145 -79 -217.5t-206 -72.5q-131 0 -274 51v75 q155 -55 274 -55q94 0 153.5 54.5t59.5 164.5q0 61 -19.5 103.5t-56 63t-67.5 28.5t-72 12q-55 4 -96 15.5t-87 38t-71.5 84t-25.5 139.5z" />
<glyph unicode="&#x456;" horiz-adv-x="286" d="M106 0v1024h72v-1024h-72zM106 1190v231h72v-231h-72z" />
<glyph unicode="&#x457;" horiz-adv-x="286" d="M6 1190v231h72v-231h-72zM106 0v1024h72v-1024h-72zM205 1190v231h71v-231h-71z" />
<glyph unicode="&#x458;" horiz-adv-x="286" d="M-125 -444q100 0 164.5 53.5t64.5 159.5v1255h72v-1255q0 -141 -84 -213t-217 -72v72zM104 1190v231h72v-231h-72z" />
<glyph unicode="&#x459;" horiz-adv-x="1191" d="M53 0v72q61 0 64 47l82 905h446v-317h127q55 0 104.5 -11.5t104.5 -41t88 -97.5t33 -164v-80q0 -154 -92 -233.5t-238 -79.5h-199v952h-307l-78 -835q-8 -117 -135 -117zM645 72h127q115 0 186.5 60.5t71.5 180.5v80q0 242 -258 242h-127v-563z" />
<glyph unicode="&#x45a;" horiz-adv-x="1187" d="M113 0v1024h71v-477h385v477h72v-317h127q53 0 83 -2.5t84 -15.5t84 -39.5t54.5 -82t24.5 -135.5v-158q0 -264 -299 -274h-4h-27h-199v477h-385v-477h-71zM641 72h127q123 0 190.5 43t67.5 159v158q0 59 -16.5 100t-37 60.5t-58 30t-58 11.5t-59.5 1h-156v-563z" />
<glyph unicode="&#x45b;" horiz-adv-x="1024" d="M51 1350v71h279v99h71v-99h277v-71h-277v-426q57 121 211 120q125 0 205 -71.5t80 -212.5v-760h-72v760q0 106 -59 159.5t-154 53.5q-92 0 -150.5 -55.5t-60.5 -163.5v-754h-71v1350h-279z" />
<glyph unicode="&#x45c;" horiz-adv-x="753" d="M111 0v1024h69v-477h203l219 477h78l-240 -512l242 -512h-78l-221 477h-203v-477h-69zM256 1210l350 246l47 -59l-352 -246z" />
<glyph unicode="&#x45d;" d="M106 1397l46 59l352 -246l-47 -59zM111 0v1024h69v-852q70 141 215.5 426t216.5 426h66v-1024h-72v852q-57 -113 -204.5 -403.5t-225.5 -448.5h-65z" />
<glyph unicode="&#x45e;" d="M111 264v760h69v-760q0 -106 59.5 -159.5t153.5 -53.5q96 0 213 35v938h72v-1255q0 -141 -80 -213t-205 -72q-127 0 -274 49v78q155 -55 274 -55q94 0 153.5 53t59.5 160v264q-135 -53 -213 -53q-125 0 -203.5 71.5t-78.5 212.5zM150 1421h71q0 -170 172 -170 q174 0 174 170h72q0 -240 -246 -239q-244 0 -243 239z" />
<glyph unicode="&#x45f;" d="M111 0v1024h69v-952h426v952h72v-1024h-248v-397h-72v397h-247z" />
<glyph unicode="&#x462;" horiz-adv-x="1064" d="M49 1362v72h633v-72h-281v-449h209q43 0 83 -6t87 -26.5t81 -53t57.5 -92t23.5 -139.5v-281q0 -154 -93.5 -234.5t-238.5 -80.5h-280v1362h-281zM401 72h209q115 0 187.5 60.5t72.5 182.5v281q0 246 -260 246h-209v-770z" />
<glyph unicode="&#x463;" horiz-adv-x="983" d="M51 1350v71h279v99h71v-99h277v-71h-277v-643h127q53 0 83 -2.5t83.5 -15.5t83 -39.5t54 -82t24.5 -135.5v-158q0 -274 -328 -274h-198v1350h-279zM401 72h127q121 0 188.5 43t67.5 159v158q0 72 -20.5 117t-62.5 61.5t-68.5 20.5t-75.5 4h-156v-563z" />
<glyph unicode="&#x490;" horiz-adv-x="716" d="M109 0v1434h481v301h72v-373h-482v-1362h-71z" />
<glyph unicode="&#x491;" horiz-adv-x="634" d="M109 0v1024h397v297h72v-369h-398v-952h-71z" />
<glyph unicode="&#x4d9;" d="M111 264v283h495v213q0 106 -59.5 159.5t-153.5 53.5q-90 0 -243 -55v75q143 51 243 51q125 0 205 -71.5t80 -212.5v-496q0 -141 -80 -212.5t-205 -71.5t-203.5 71.5t-78.5 212.5zM180 264q0 -106 59.5 -159.5t153.5 -53.5t153.5 53.5t59.5 159.5v213h-426v-213z" />
<glyph unicode="&#x1e80;" horiz-adv-x="1212" d="M47 1434h76l264 -1254q96 479 180 916h68l184 -916q18 88 114.5 549t145.5 705h78l-301 -1434h-72l-182 909l-178 -909h-72zM403 1806l46 60l352 -246l-47 -59z" />
<glyph unicode="&#x1e81;" horiz-adv-x="1015" d="M8 1024h76l209 -877l176 598h63l181 -593l205 872h75l-243 -1024h-70l-180 596q-23 -74 -84.5 -280.5t-91.5 -315.5h-70zM223 1397l45 59l353 -246l-48 -59z" />
<glyph unicode="&#x1e82;" horiz-adv-x="1212" d="M47 1434h76l264 -1254q96 479 180 916h68l184 -916q18 88 114.5 549t145.5 705h78l-301 -1434h-72l-182 909l-178 -909h-72zM403 1620l351 246l47 -60l-352 -245z" />
<glyph unicode="&#x1e83;" horiz-adv-x="1015" d="M8 1024h76l209 -877l176 598h63l181 -593l205 872h75l-243 -1024h-70l-180 596q-23 -74 -84.5 -280.5t-91.5 -315.5h-70zM387 1210l350 246l47 -59l-352 -246z" />
<glyph unicode="&#x1e84;" horiz-adv-x="1212" d="M47 1434h76l264 -1254q96 479 180 916h68l184 -916q18 88 114.5 549t145.5 705h78l-301 -1434h-72l-182 909l-178 -909h-72zM428 1599v232h72v-232h-72zM705 1599v232h71v-232h-71z" />
<glyph unicode="&#x1e85;" horiz-adv-x="1015" d="M8 1024h76l209 -877l176 598h63l181 -593l205 872h75l-243 -1024h-70l-180 596q-23 -74 -84.5 -280.5t-91.5 -315.5h-70zM330 1190v231h71v-231h-71zM606 1190v231h72v-231h-72z" />
<glyph unicode="&#x1ef2;" horiz-adv-x="860" d="M43 1434h76l307 -809l301 809h78l-344 -920v-514h-72v518zM227 1806l45 60l353 -246l-47 -59z" />
<glyph unicode="&#x1ef3;" d="M111 264v760h69v-760q0 -106 59.5 -159.5t153.5 -53.5q96 0 213 35v938h72v-1255q0 -141 -80 -213t-205 -72q-127 0 -274 49v78q155 -55 274 -55q94 0 153.5 53t59.5 160v264q-135 -53 -213 -53q-125 0 -203.5 71.5t-78.5 212.5zM197 1397l45 59l352 -246l-47 -59z" />
<glyph unicode="&#x2000;" horiz-adv-x="1035" />
<glyph unicode="&#x2001;" horiz-adv-x="2071" />
<glyph unicode="&#x2002;" horiz-adv-x="1035" />
<glyph unicode="&#x2003;" horiz-adv-x="2071" />
<glyph unicode="&#x2004;" horiz-adv-x="690" />
<glyph unicode="&#x2005;" horiz-adv-x="517" />
<glyph unicode="&#x2006;" horiz-adv-x="345" />
<glyph unicode="&#x2007;" horiz-adv-x="345" />
<glyph unicode="&#x2008;" horiz-adv-x="258" />
<glyph unicode="&#x2009;" horiz-adv-x="414" />
<glyph unicode="&#x200a;" horiz-adv-x="115" />
<glyph unicode="&#x2010;" horiz-adv-x="757" d="M109 674v71h528v-71h-528z" />
<glyph unicode="&#x2011;" horiz-adv-x="757" d="M109 674v71h528v-71h-528z" />
<glyph unicode="&#x2012;" horiz-adv-x="757" d="M109 674v71h528v-71h-528z" />
<glyph unicode="&#x2013;" horiz-adv-x="962" d="M111 674v71h727v-71h-727z" />
<glyph unicode="&#x2014;" horiz-adv-x="1167" d="M113 674v71h925v-71h-925z" />
<glyph unicode="&#x2018;" horiz-adv-x="335" d="M106 973v174q0 127 50 274h77q-47 -125 -55 -258h39v-190h-111z" />
<glyph unicode="&#x2019;" horiz-adv-x="335" d="M98 973q50 129 56 258h-39v190h110v-174q0 -131 -49 -274h-78z" />
<glyph unicode="&#x201a;" horiz-adv-x="327" d="M90 -258q49 133 55 258h-39v190h111v-174q0 -127 -49 -274h-78z" />
<glyph unicode="&#x201c;" horiz-adv-x="540" d="M106 973v174q0 127 50 274h77q-47 -125 -55 -258h39v-190h-111zM311 973v174q0 127 49 274h78q-47 -125 -55 -258h39v-190h-111z" />
<glyph unicode="&#x201d;" horiz-adv-x="542" d="M98 973q50 129 56 258h-39v190h110v-174q0 -131 -49 -274h-78zM305 973q49 129 55 258h-38v190h110v-174q0 -131 -49 -274h-78z" />
<glyph unicode="&#x201e;" horiz-adv-x="540" d="M100 -258q50 133 56 258h-41v190h112v-174q0 -131 -51 -274h-76zM299 -258q49 133 55 258h-41v190h113v-174q0 -131 -51 -274h-76z" />
<glyph unicode="&#x2022;" horiz-adv-x="532" d="M109 711q0 63 44 108t109.5 45t110.5 -45t45 -108.5t-45 -109.5t-111 -46q-63 0 -108 45t-45 111z" />
<glyph unicode="&#x2026;" horiz-adv-x="901" d="M111 0v190h110v-190h-110zM389 0v190h111v-190h-111zM666 0v190h112v-190h-112z" />
<glyph unicode="&#x202f;" horiz-adv-x="414" />
<glyph unicode="&#x2030;" horiz-adv-x="1351" d="M94 860v416q0 80 46 122t118 42t119 -42t47 -122v-416q0 -84 -46 -125t-120 -41q-72 0 -118 41t-46 125zM111 10l667 1434l62 -31l-670 -1438zM166 860q0 -45 25.5 -69.5t66.5 -24.5t67.5 24.5t26.5 69.5v416q0 45 -26.5 69.5t-67.5 24.5t-66.5 -24.5t-25.5 -69.5v-416z M530 145v416q0 80 47.5 123t118.5 43q70 0 117 -43t47 -123v-416q0 -82 -46 -123.5t-118 -41.5q-74 0 -120 41.5t-46 123.5zM602 145q0 -45 26.5 -69.5t67.5 -24.5t66.5 24.5t25.5 69.5v416q0 45 -25.5 69.5t-66.5 24.5t-67.5 -24.5t-26.5 -69.5v-416zM907 145v416 q0 80 47 123t119 43q70 0 117 -43t47 -123v-416q0 -82 -46 -123.5t-118 -41.5q-74 0 -120 41.5t-46 123.5zM979 145q0 -45 26.5 -69.5t67.5 -24.5t66.5 24.5t25.5 69.5v416q0 45 -25.5 69.5t-66.5 24.5t-67.5 -24.5t-26.5 -69.5v-416z" />
<glyph unicode="&#x2039;" horiz-adv-x="636" d="M100 711l375 374l51 -51l-323 -323l323 -324l-51 -51z" />
<glyph unicode="&#x203a;" horiz-adv-x="636" d="M100 387l324 324l-324 323l52 51l374 -374l-374 -375z" />
<glyph unicode="&#x203c;" horiz-adv-x="573" d="M106 0v229h72v-229h-72zM106 397v1024h72v-1024h-72zM393 0v229h72v-229h-72zM393 397v1024h72v-1024h-72z" />
<glyph unicode="&#x2044;" horiz-adv-x="835" d="M47 10l668 1434l61 -31l-670 -1438z" />
<glyph unicode="&#x205f;" horiz-adv-x="517" />
<glyph unicode="&#x20ac;" horiz-adv-x="827" d="M51 537v71h107v205h-107v72h107v241q0 154 88 234t225 80q135 0 274 -49v-78q-154 57 -274 57q-109 0 -175.5 -60.5t-66.5 -183.5v-241h349v-72h-349v-205h349v-71h-349v-244q0 -121 66.5 -181.5t175.5 -60.5q119 0 274 55v-75q-143 -51 -274 -51q-137 0 -225 79.5 t-88 233.5v244h-107z" />
<glyph unicode="&#x20b8;" horiz-adv-x="737" d="M49 1157v72h633v-72h-281v-1157h-71v1157h-281zM49 1362v72h633v-72h-633z" />
<glyph unicode="&#x20b9;" horiz-adv-x="862" d="M66 244v71h106v205h-106v72h106v842h281q152 0 241.5 -83t89.5 -233v-280q0 -90 -28.5 -156t-74.5 -99.5t-95 -48t-101 -14.5h-241v-205h348v-71h-348v-244h-72v244h-106zM244 592h209q260 0 260 246v280q0 123 -72 183.5t-188 60.5h-209v-770z" />
<glyph unicode="&#x20ba;" horiz-adv-x="862" d="M66 244v71h106v205h-106v72h106v842h281q152 0 241.5 -83t89.5 -233v-280q0 -90 -28.5 -156t-74.5 -99.5t-95 -48t-101 -14.5h-241v-205h348v-71h-348v-244h-72v244h-106zM244 592h209q260 0 260 246v280q0 123 -72 183.5t-188 60.5h-209v-770z" />
<glyph unicode="&#x20bb;" horiz-adv-x="862" d="M66 244v71h106v205h-106v72h106v842h281q152 0 241.5 -83t89.5 -233v-280q0 -90 -28.5 -156t-74.5 -99.5t-95 -48t-101 -14.5h-241v-205h348v-71h-348v-244h-72v244h-106zM244 592h209q260 0 260 246v280q0 123 -72 183.5t-188 60.5h-209v-770z" />
<glyph unicode="&#x20bc;" horiz-adv-x="862" d="M66 244v71h106v205h-106v72h106v842h281q152 0 241.5 -83t89.5 -233v-280q0 -90 -28.5 -156t-74.5 -99.5t-95 -48t-101 -14.5h-241v-205h348v-71h-348v-244h-72v244h-106zM244 592h209q260 0 260 246v280q0 123 -72 183.5t-188 60.5h-209v-770z" />
<glyph unicode="&#x20bd;" horiz-adv-x="862" d="M66 244v71h106v205h-106v72h106v842h281q152 0 241.5 -83t89.5 -233v-280q0 -90 -28.5 -156t-74.5 -99.5t-95 -48t-101 -14.5h-241v-205h348v-71h-348v-244h-72v244h-106zM244 592h209q260 0 260 246v280q0 123 -72 183.5t-188 60.5h-209v-770z" />
<glyph unicode="&#x20be;" horiz-adv-x="862" d="M66 244v71h106v205h-106v72h106v842h281q152 0 241.5 -83t89.5 -233v-280q0 -90 -28.5 -156t-74.5 -99.5t-95 -48t-101 -14.5h-241v-205h348v-71h-348v-244h-72v244h-106zM244 592h209q260 0 260 246v280q0 123 -72 183.5t-188 60.5h-209v-770z" />
<glyph unicode="&#x20bf;" horiz-adv-x="862" d="M66 244v71h106v205h-106v72h106v842h281q152 0 241.5 -83t89.5 -233v-280q0 -90 -28.5 -156t-74.5 -99.5t-95 -48t-101 -14.5h-241v-205h348v-71h-348v-244h-72v244h-106zM244 592h209q260 0 260 246v280q0 123 -72 183.5t-188 60.5h-209v-770z" />
<glyph unicode="&#x20c0;" horiz-adv-x="862" d="M66 244v71h106v205h-106v72h106v842h281q152 0 241.5 -83t89.5 -233v-280q0 -90 -28.5 -156t-74.5 -99.5t-95 -48t-101 -14.5h-241v-205h348v-71h-348v-244h-72v244h-106zM244 592h209q260 0 260 246v280q0 123 -72 183.5t-188 60.5h-209v-770z" />
<glyph unicode="&#x20c1;" horiz-adv-x="862" d="M66 244v71h106v205h-106v72h106v842h281q152 0 241.5 -83t89.5 -233v-280q0 -90 -28.5 -156t-74.5 -99.5t-95 -48t-101 -14.5h-241v-205h348v-71h-348v-244h-72v244h-106zM244 592h209q260 0 260 246v280q0 123 -72 183.5t-188 60.5h-209v-770z" />
<glyph unicode="&#x20c2;" horiz-adv-x="862" d="M66 244v71h106v205h-106v72h106v842h281q152 0 241.5 -83t89.5 -233v-280q0 -90 -28.5 -156t-74.5 -99.5t-95 -48t-101 -14.5h-241v-205h348v-71h-348v-244h-72v244h-106zM244 592h209q260 0 260 246v280q0 123 -72 183.5t-188 60.5h-209v-770z" />
<glyph unicode="&#x20c3;" horiz-adv-x="862" d="M66 244v71h106v205h-106v72h106v842h281q152 0 241.5 -83t89.5 -233v-280q0 -90 -28.5 -156t-74.5 -99.5t-95 -48t-101 -14.5h-241v-205h348v-71h-348v-244h-72v244h-106zM244 592h209q260 0 260 246v280q0 123 -72 183.5t-188 60.5h-209v-770z" />
<glyph unicode="&#x20c4;" horiz-adv-x="862" d="M66 244v71h106v205h-106v72h106v842h281q152 0 241.5 -83t89.5 -233v-280q0 -90 -28.5 -156t-74.5 -99.5t-95 -48t-101 -14.5h-241v-205h348v-71h-348v-244h-72v244h-106zM244 592h209q260 0 260 246v280q0 123 -72 183.5t-188 60.5h-209v-770z" />
<glyph unicode="&#x20c5;" horiz-adv-x="862" d="M66 244v71h106v205h-106v72h106v842h281q152 0 241.5 -83t89.5 -233v-280q0 -90 -28.5 -156t-74.5 -99.5t-95 -48t-101 -14.5h-241v-205h348v-71h-348v-244h-72v244h-106zM244 592h209q260 0 260 246v280q0 123 -72 183.5t-188 60.5h-209v-770z" />
<glyph unicode="&#x20c6;" horiz-adv-x="862" d="M66 244v71h106v205h-106v72h106v842h281q152 0 241.5 -83t89.5 -233v-280q0 -90 -28.5 -156t-74.5 -99.5t-95 -48t-101 -14.5h-241v-205h348v-71h-348v-244h-72v244h-106zM244 592h209q260 0 260 246v280q0 123 -72 183.5t-188 60.5h-209v-770z" />
<glyph unicode="&#x20c7;" horiz-adv-x="862" d="M66 244v71h106v205h-106v72h106v842h281q152 0 241.5 -83t89.5 -233v-280q0 -90 -28.5 -156t-74.5 -99.5t-95 -48t-101 -14.5h-241v-205h348v-71h-348v-244h-72v244h-106zM244 592h209q260 0 260 246v280q0 123 -72 183.5t-188 60.5h-209v-770z" />
<glyph unicode="&#x20c8;" horiz-adv-x="862" d="M66 244v71h106v205h-106v72h106v842h281q152 0 241.5 -83t89.5 -233v-280q0 -90 -28.5 -156t-74.5 -99.5t-95 -48t-101 -14.5h-241v-205h348v-71h-348v-244h-72v244h-106zM244 592h209q260 0 260 246v280q0 123 -72 183.5t-188 60.5h-209v-770z" />
<glyph unicode="&#x20c9;" horiz-adv-x="862" d="M66 244v71h106v205h-106v72h106v842h281q152 0 241.5 -83t89.5 -233v-280q0 -90 -28.5 -156t-74.5 -99.5t-95 -48t-101 -14.5h-241v-205h348v-71h-348v-244h-72v244h-106zM244 592h209q260 0 260 246v280q0 123 -72 183.5t-188 60.5h-209v-770z" />
<glyph unicode="&#x20ca;" horiz-adv-x="862" d="M66 244v71h106v205h-106v72h106v842h281q152 0 241.5 -83t89.5 -233v-280q0 -90 -28.5 -156t-74.5 -99.5t-95 -48t-101 -14.5h-241v-205h348v-71h-348v-244h-72v244h-106zM244 592h209q260 0 260 246v280q0 123 -72 183.5t-188 60.5h-209v-770z" />
<glyph unicode="&#x20cb;" horiz-adv-x="862" d="M66 244v71h106v205h-106v72h106v842h281q152 0 241.5 -83t89.5 -233v-280q0 -90 -28.5 -156t-74.5 -99.5t-95 -48t-101 -14.5h-241v-205h348v-71h-348v-244h-72v244h-106zM244 592h209q260 0 260 246v280q0 123 -72 183.5t-188 60.5h-209v-770z" />
<glyph unicode="&#x20cc;" horiz-adv-x="862" d="M66 244v71h106v205h-106v72h106v842h281q152 0 241.5 -83t89.5 -233v-280q0 -90 -28.5 -156t-74.5 -99.5t-95 -48t-101 -14.5h-241v-205h348v-71h-348v-244h-72v244h-106zM244 592h209q260 0 260 246v280q0 123 -72 183.5t-188 60.5h-209v-770z" />
<glyph unicode="&#x20cd;" horiz-adv-x="862" d="M66 244v71h106v205h-106v72h106v842h281q152 0 241.5 -83t89.5 -233v-280q0 -90 -28.5 -156t-74.5 -99.5t-95 -48t-101 -14.5h-241v-205h348v-71h-348v-244h-72v244h-106zM244 592h209q260 0 260 246v280q0 123 -72 183.5t-188 60.5h-209v-770z" />
<glyph unicode="&#x20ce;" horiz-adv-x="862" d="M66 244v71h106v205h-106v72h106v842h281q152 0 241.5 -83t89.5 -233v-280q0 -90 -28.5 -156t-74.5 -99.5t-95 -48t-101 -14.5h-241v-205h348v-71h-348v-244h-72v244h-106zM244 592h209q260 0 260 246v280q0 123 -72 183.5t-188 60.5h-209v-770z" />
<glyph unicode="&#x20cf;" horiz-adv-x="862" d="M66 244v71h106v205h-106v72h106v842h281q152 0 241.5 -83t89.5 -233v-280q0 -90 -28.5 -156t-74.5 -99.5t-95 -48t-101 -14.5h-241v-205h348v-71h-348v-244h-72v244h-106zM244 592h209q260 0 260 246v280q0 123 -72 183.5t-188 60.5h-209v-770z" />
<glyph unicode="&#x2116;" horiz-adv-x="1300" d="M113 0v1421h65l471 -1202v1202h72v-1421h-66l-471 1202v-1202h-71zM868 754v71h299v-71h-299zM868 1042v248q0 74 42 112t107.5 38t107.5 -38t42 -112v-248q0 -74 -42 -111.5t-107.5 -37.5t-107.5 38t-42 111zM940 1042q0 -78 78 -78t78 78v248q0 80 -78 80t-78 -80v-248 z" />
<glyph unicode="&#x2122;" horiz-adv-x="946" d="M111 1350v71h309v-71h-119v-359h-72v359h-118zM442 1421h78l115 -313l115 313h77l-6 -16v-414h-71v223l-84 -223h-64l-82 219v-219h-71v414z" />
<glyph unicode="&#x212e;" horiz-adv-x="1765" d="M80 676q0 295 231.5 504t556.5 209q328 0 559.5 -209t231.5 -504v-33h-1264v-371q0 -20 15 -34q190 -201 462 -201q295 0 492 229h152q-119 -141 -289 -221t-359 -80q-326 0 -557 209t-231 502zM395 713h948v374q0 23 -16 35q-186 193 -455 193q-270 0 -460 -197 q-17 -17 -17 -37v-368z" />
<glyph unicode="&#xe000;" horiz-adv-x="1025" d="M0 1025h1025v-1025h-1025v1025z" />
<glyph horiz-adv-x="757" d="M305 -614q51 131 55 258h-38v190h110v-176q0 -137 -49 -272h-78z" />
</font>
</defs>
</svg>
